{"glyphs":{"0":{"ha":826,"x_min":0,"x_max":0,"o":"m 504 1008 b 363 976 451 1008 404 998 b 252 890 321 955 284 926 b 170 765 220 854 193 813 b 115 617 147 718 129 669 b 83 459 100 565 90 512 b 74 307 77 406 74 355 b 89 177 74 261 79 217 b 138 72 99 137 115 102 b 223 1 160 43 188 19 b 349 -25 258 -16 300 -25 b 490 7 401 -25 449 -14 b 600 92 532 28 569 57 b 681 217 631 128 658 169 b 735 365 703 264 721 313 b 767 521 750 416 760 468 b 776 671 773 574 776 624 b 761 801 776 716 771 759 b 713 908 751 842 735 878 b 629 981 691 939 663 963 b 504 1008 595 999 553 1008 z m 493 897 b 563 878 521 897 544 891 b 608 826 581 865 596 847 b 632 749 619 804 627 778 b 639 657 637 720 639 689 b 618 451 639 588 632 519 b 560 268 604 383 585 322 b 472 138 536 214 506 171 b 358 88 438 104 400 88 b 288 107 331 88 307 94 b 241 159 268 120 253 137 b 216 235 229 181 221 206 b 208 326 211 263 208 294 b 229 533 208 396 215 465 b 288 716 243 601 263 662 b 378 847 313 770 343 814 b 493 897 413 881 451 897 z "},"1":{"ha":826,"x_min":0,"x_max":0,"o":"m 450 0 l 624 983 l 499 983 l 186 765 l 249 667 l 464 824 l 318 0 z "},"2":{"ha":826,"x_min":0,"x_max":0,"o":"m 651 0 l 672 119 l 199 119 l 558 421 b 649 500 592 449 622 475 b 716 576 675 525 698 550 b 758 660 734 602 748 630 b 772 761 767 689 772 723 b 751 864 772 799 765 833 b 690 942 736 894 716 920 b 599 991 664 963 634 979 b 483 1008 563 1003 525 1008 b 275 943 403 1008 333 987 b 149 763 217 900 175 839 l 271 732 b 345 851 286 781 310 821 b 476 896 380 881 424 896 b 592 858 524 896 562 883 b 638 751 622 832 638 797 b 601 633 638 708 625 668 b 488 515 576 597 538 558 l 33 128 l 11 0 z "},"3":{"ha":826,"x_min":0,"x_max":0,"o":"m 321 568 l 301 460 l 344 460 b 428 451 374 460 402 457 b 497 421 455 445 478 435 b 544 368 517 407 532 389 b 561 290 555 347 561 321 b 505 144 561 229 542 180 b 350 89 467 107 416 89 b 227 124 303 89 262 101 b 160 226 192 148 170 182 l 33 185 b 145 31 54 119 91 68 b 342 -25 199 -6 265 -25 b 486 -1 394 -25 443 -17 b 599 65 530 14 567 37 b 672 169 630 94 654 128 b 697 304 689 209 697 254 b 652 438 697 356 682 401 b 536 511 622 476 583 500 l 536 514 b 686 601 598 530 648 559 b 743 765 724 644 743 699 b 722 869 743 804 736 839 b 663 945 707 899 688 924 b 576 992 638 966 609 982 b 471 1008 543 1003 508 1008 b 299 967 407 1008 350 995 b 169 842 248 940 205 898 l 272 782 b 461 897 314 859 377 897 b 569 861 506 897 542 885 b 611 763 597 837 611 804 b 550 618 611 700 591 651 b 367 568 509 585 448 568 z "},"4":{"ha":826,"x_min":0,"x_max":0,"o":"m 608 336 l 724 983 l 551 983 l 31 349 l 8 221 l 463 221 l 425 0 l 553 0 l 590 221 l 731 221 l 751 336 z m 572 840 l 482 336 l 164 336 l 568 840 z "},"5":{"ha":826,"x_min":0,"x_max":0,"o":"m 731 867 l 753 983 l 251 983 l 147 460 b 252 502 178 477 213 491 b 364 518 291 513 329 518 b 444 506 393 518 419 514 b 508 468 468 497 490 485 b 551 408 526 451 540 431 b 567 326 561 384 567 357 b 551 233 567 293 562 262 b 506 158 541 205 526 179 b 433 107 486 136 462 119 b 332 89 403 95 370 89 b 217 123 288 89 249 100 b 150 214 185 146 163 176 l 29 164 b 138 29 49 110 85 65 b 333 -25 191 -7 256 -25 b 483 1 388 -25 438 -16 b 601 76 529 19 568 44 b 677 194 634 109 659 148 b 704 346 695 240 704 290 b 680 465 704 391 696 431 b 615 552 664 500 642 528 b 521 606 587 576 556 594 b 410 624 486 618 449 624 b 349 619 389 624 369 622 b 294 607 329 617 311 613 l 349 867 z "},"6":{"ha":826,"x_min":0,"x_max":0,"o":"m 721 335 b 701 440 721 373 714 408 b 645 525 688 473 670 501 b 556 582 621 549 591 568 b 438 603 520 596 481 603 b 384 597 419 603 401 601 b 339 579 367 592 352 587 l 338 583 l 675 983 l 515 983 l 181 571 b 74 410 132 513 97 459 b 40 264 52 362 40 313 b 63 147 40 221 48 182 b 128 55 78 111 100 80 b 226 -4 156 29 188 10 b 350 -25 264 -18 306 -25 b 503 3 406 -25 458 -16 b 620 79 549 21 588 47 b 694 193 652 112 677 150 b 721 335 712 237 721 284 z m 588 324 b 571 228 588 289 582 258 b 524 153 560 199 544 174 b 451 103 504 131 480 115 b 354 85 423 91 390 85 b 283 98 328 85 304 89 b 226 135 261 107 242 119 b 188 192 209 152 197 171 b 174 264 178 214 174 238 b 191 358 174 297 179 328 b 240 433 203 387 219 412 b 317 483 262 455 287 471 b 415 501 346 495 379 501 b 484 488 440 501 463 497 b 538 451 505 479 523 467 b 574 395 553 436 566 417 b 588 324 583 373 588 350 z "},"7":{"ha":826,"x_min":0,"x_max":0,"o":"m 792 863 l 813 983 l 194 983 l 174 865 l 650 865 l 69 0 l 231 0 z "},"8":{"ha":826,"x_min":0,"x_max":0,"o":"m 763 772 b 741 876 763 812 755 847 b 683 950 727 906 707 931 b 597 994 658 969 630 984 b 494 1008 565 1003 531 1008 b 374 988 452 1008 412 1002 b 274 930 336 975 302 955 b 206 837 245 904 222 873 b 181 714 189 800 181 759 b 215 601 181 671 192 634 b 303 529 237 569 267 545 l 303 525 b 211 491 270 519 240 507 b 135 429 182 475 157 454 b 82 344 113 404 95 376 b 63 238 69 312 63 276 b 88 119 63 191 71 152 b 156 38 105 86 128 59 b 250 -10 183 16 215 0 b 357 -25 285 -20 321 -25 b 495 -3 405 -25 451 -18 b 610 62 539 12 577 34 b 688 165 642 90 668 125 b 717 306 707 206 717 253 b 674 438 717 356 702 400 b 565 513 645 475 609 500 l 564 515 b 638 550 590 524 615 535 b 701 604 662 565 683 583 b 746 678 720 625 735 650 b 763 772 757 706 763 737 z m 636 753 b 622 686 636 730 631 707 b 583 629 613 665 600 646 b 524 590 567 613 547 599 b 449 575 500 580 475 575 b 343 616 404 575 369 589 b 304 715 317 643 304 676 b 317 785 304 740 309 764 b 354 843 326 807 338 826 b 411 883 370 860 389 873 b 485 897 433 892 458 897 b 594 860 530 897 567 885 b 636 753 622 836 636 800 z m 588 303 b 572 217 588 272 582 244 b 528 149 562 191 547 168 b 458 103 509 129 486 114 b 363 86 431 92 399 86 b 241 128 314 86 274 100 b 192 250 208 157 192 197 b 209 335 192 281 197 309 b 257 403 221 361 237 383 b 329 448 277 422 301 437 b 421 464 357 459 388 464 b 542 419 471 464 511 449 b 588 303 572 389 588 350 z "},"9":{"ha":826,"x_min":0,"x_max":0,"o":"m 807 719 b 784 837 807 762 799 801 b 719 928 769 872 747 903 b 621 988 692 954 659 974 b 497 1008 583 1001 542 1008 b 344 981 441 1008 390 999 b 227 904 298 962 259 937 b 153 790 195 872 170 834 b 126 649 135 747 126 700 b 146 543 126 611 133 575 b 202 458 159 511 178 482 b 292 401 227 434 256 415 b 410 381 327 388 366 381 b 463 388 426 381 444 383 b 487 394 471 389 479 392 b 508 404 495 397 502 400 l 510 400 l 172 0 l 332 0 l 667 413 b 773 573 715 471 750 524 b 807 719 796 622 807 670 z m 675 719 b 657 626 675 686 669 655 b 607 550 645 597 628 571 b 531 500 586 529 560 512 b 432 482 501 488 468 482 b 363 495 407 482 384 486 b 308 532 341 504 323 516 b 272 588 292 548 280 566 b 258 660 263 610 258 634 b 275 755 258 694 264 726 b 322 831 286 784 302 809 b 396 881 343 852 367 869 b 493 899 425 893 457 899 b 565 885 519 899 543 894 b 623 848 588 877 607 864 b 661 791 639 832 652 813 b 675 719 670 769 675 745 z "},"\u0000":{"ha":694,"x_min":0,"x_max":0,"o":""},"\r":{"ha":0,"x_min":0,"x_max":0,"o":""}," ":{"ha":347,"x_min":0,"x_max":0,"o":""},"!":{"ha":399,"x_min":0,"x_max":0,"o":"m 240 288 l 364 983 l 232 983 l 108 288 z m 236 85 b 211 148 236 112 228 133 b 150 171 194 163 174 171 b 86 145 126 171 105 162 b 58 79 68 128 58 106 b 85 16 58 52 67 31 b 147 -7 102 1 123 -7 b 210 21 171 -7 192 2 b 236 85 227 39 236 61 z "},"\"":{"ha":590,"x_min":0,"x_max":0,"o":"m 485 638 l 546 983 l 435 983 l 374 638 z m 263 638 l 324 983 l 213 983 l 150 638 z "},"#":{"ha":796,"x_min":0,"x_max":0,"o":"m 167 293 l 74 0 l 176 0 l 269 293 l 435 293 l 340 0 l 443 0 l 538 293 l 679 293 l 696 393 l 567 393 l 629 592 l 769 592 l 786 692 l 661 692 l 754 983 l 651 983 l 558 692 l 394 692 l 488 983 l 385 983 l 292 692 l 140 692 l 124 592 l 260 592 l 197 393 l 51 393 l 33 293 z m 300 393 l 363 592 l 528 592 l 465 393 z "},"$":{"ha":826,"x_min":0,"x_max":0,"o":"m 674 806 l 778 885 b 681 963 754 917 721 943 b 540 1000 640 983 593 995 l 558 1100 l 494 1100 l 476 1000 b 338 973 425 998 378 989 b 235 909 297 957 263 935 b 171 816 207 883 186 852 b 149 701 156 780 149 742 b 168 608 149 666 155 635 b 219 538 181 581 198 558 b 294 486 241 517 266 500 b 381 450 322 472 351 460 l 318 96 b 205 131 276 98 239 109 b 129 207 171 152 146 177 l 19 132 b 138 26 47 86 87 50 b 299 -15 190 1 243 -12 l 281 -117 l 344 -117 l 363 -15 b 512 18 420 -12 470 0 b 617 88 554 37 589 60 b 678 182 644 115 665 147 b 699 290 692 217 699 253 b 681 385 699 326 693 358 b 631 456 669 412 652 435 b 556 511 609 477 584 495 b 463 554 527 527 496 541 l 522 888 b 613 861 557 886 588 877 b 674 806 639 845 659 827 z m 457 888 l 401 575 b 311 629 363 590 332 608 b 279 718 290 650 279 680 b 294 790 279 746 284 770 b 333 842 303 811 317 828 b 390 874 350 856 369 866 b 457 888 412 881 434 886 z m 565 275 b 514 149 565 224 548 182 b 382 96 480 116 436 99 l 440 429 b 530 371 476 413 506 394 b 565 275 553 348 565 316 z "},"%":{"ha":1206,"x_min":0,"x_max":0,"o":"m 576 797 b 560 880 576 828 571 855 b 516 944 550 904 535 926 b 447 985 497 962 474 976 b 360 1000 420 995 391 1000 b 247 978 319 1000 281 993 b 158 917 213 963 183 943 b 100 826 133 891 114 861 b 79 715 86 792 79 755 b 96 632 79 685 85 657 b 142 567 107 607 122 585 b 211 524 161 548 184 534 b 299 508 238 513 267 508 b 410 531 339 508 377 516 b 498 592 444 545 473 566 b 556 684 522 619 542 649 b 576 797 569 719 576 756 z m 453 778 b 413 668 453 734 439 698 b 308 624 386 638 351 624 b 233 654 276 624 251 634 b 206 729 215 675 206 700 b 245 840 206 774 219 811 b 347 885 272 870 306 885 b 424 853 380 885 405 874 b 453 778 443 833 453 807 z m 1129 272 b 1113 355 1129 303 1124 330 b 1069 419 1103 379 1088 401 b 1000 460 1050 437 1027 451 b 913 475 973 470 944 475 b 800 453 872 475 834 468 b 711 392 766 438 736 418 b 653 301 686 366 667 336 b 632 190 639 267 632 230 b 649 107 632 160 638 132 b 694 42 660 82 675 60 b 764 -1 714 23 737 9 b 851 -17 791 -12 820 -17 b 963 6 892 -17 929 -9 b 1051 67 997 20 1026 41 b 1108 159 1075 94 1094 124 b 1129 272 1122 194 1129 231 z m 1006 253 b 965 143 1006 209 992 173 b 861 99 938 113 904 99 b 785 129 829 99 803 109 b 758 204 767 150 758 175 b 798 315 758 249 772 286 b 900 360 824 345 858 360 b 977 328 932 360 958 349 b 1006 253 996 308 1006 282 z m 250 -56 l 1032 971 l 950 1029 l 167 3 z "},"&":{"ha":1003,"x_min":0,"x_max":0,"o":"m 718 233 l 944 526 l 788 526 l 642 319 l 483 517 b 586 569 520 532 555 550 b 667 631 618 588 645 608 b 720 704 690 653 708 677 b 739 792 733 731 739 760 b 721 883 739 826 733 856 b 670 951 709 910 692 933 b 594 994 648 970 623 984 b 499 1008 565 1003 533 1008 b 395 990 462 1008 427 1002 b 313 936 363 977 336 959 b 258 853 289 913 271 885 b 239 747 245 822 239 786 b 258 644 239 712 245 678 b 308 551 270 610 287 579 b 209 503 275 538 242 522 b 122 435 176 483 147 461 b 59 347 96 410 75 381 b 35 236 43 314 35 277 b 56 125 35 194 42 156 b 117 46 71 94 91 67 b 210 -2 143 25 174 9 b 328 -18 246 -13 285 -18 b 490 17 385 -18 439 -6 b 642 135 540 41 591 80 l 746 0 l 911 0 z m 613 785 b 598 725 613 763 608 744 b 558 674 588 706 575 690 b 498 632 541 659 521 645 b 425 597 475 619 451 607 b 381 668 408 616 394 639 b 361 756 368 697 361 726 b 399 861 361 798 374 833 b 500 903 425 889 458 903 b 583 870 535 903 563 892 b 613 785 603 848 613 820 z m 372 465 l 564 224 b 459 128 530 182 495 150 b 338 96 423 107 383 96 b 273 106 314 96 293 99 b 221 136 253 113 236 123 b 185 183 206 149 194 165 b 172 244 177 202 172 222 b 188 323 172 274 178 300 b 232 383 199 346 213 366 b 296 430 250 401 272 416 b 372 465 320 443 345 455 z "},"'":{"ha":368,"x_min":0,"x_max":0,"o":"m 211 983 l 150 638 l 263 638 l 324 983 z "},"(":{"ha":438,"x_min":0,"x_max":0,"o":"m 144 239 b 165 428 144 301 151 364 b 223 616 178 492 197 554 b 315 795 248 678 279 737 b 438 958 351 853 392 907 l 356 1018 b 115 651 253 907 172 785 b 28 238 57 518 28 380 b 58 -8 28 152 38 70 b 140 -217 78 -87 105 -156 l 239 -168 b 169 22 208 -112 185 -48 b 144 239 153 91 144 164 z "},")":{"ha":438,"x_min":0,"x_max":0,"o":"m 290 563 b 270 374 290 500 284 438 b 212 185 257 310 237 247 b 119 6 186 124 156 64 b -3 -157 83 -52 43 -106 l 79 -217 b 320 150 182 -106 262 17 b 407 564 378 283 407 421 b 377 810 407 649 397 731 b 294 1018 357 888 330 958 l 196 969 b 265 780 225 913 249 850 b 290 563 282 710 290 638 z "},"*":{"ha":629,"x_min":0,"x_max":0,"o":"m 599 861 l 422 804 l 422 983 l 311 983 l 311 804 l 135 861 l 97 756 l 274 699 l 161 547 l 250 481 l 367 638 l 483 481 l 572 547 l 460 699 l 636 756 z "},"+":{"ha":925,"x_min":0,"x_max":0,"o":"m 519 478 l 519 786 l 406 786 l 406 478 l 97 478 l 97 364 l 406 364 l 406 56 l 519 56 l 519 364 l 828 364 l 828 478 z "},",":{"ha":361,"x_min":0,"x_max":0,"o":"m 50 -185 l 226 161 l 97 161 l -60 -185 z "},"-":{"ha":444,"x_min":0,"x_max":0,"o":"m 358 285 l 378 394 l 56 394 l 36 285 z "},".":{"ha":361,"x_min":0,"x_max":0,"o":"m 201 85 b 177 148 201 112 193 133 b 117 171 161 163 141 171 b 53 145 93 171 71 162 b 25 79 34 128 25 106 b 51 16 25 52 34 31 b 113 -7 68 1 88 -7 b 176 21 138 -7 159 2 b 201 85 193 39 201 61 z "},"/":{"ha":526,"x_min":0,"x_max":0,"o":"m 13 -46 l 621 994 l 532 1029 l -79 -11 z "},":":{"ha":417,"x_min":0,"x_max":0,"o":"m 236 85 b 211 148 236 112 228 133 b 150 171 194 163 174 171 b 86 145 126 171 105 162 b 58 79 68 128 58 106 b 85 16 58 52 67 31 b 147 -7 102 1 123 -7 b 210 21 171 -7 192 2 b 236 85 227 39 236 61 z m 315 579 b 291 643 315 606 307 627 b 231 667 275 659 255 667 b 167 640 206 667 185 658 b 139 574 148 623 139 600 b 165 510 139 547 147 526 b 226 488 182 495 202 488 b 290 515 251 488 272 497 b 315 579 307 534 315 555 z "},";":{"ha":417,"x_min":0,"x_max":0,"o":"m 74 -185 l 250 161 l 115 161 l -40 -185 z m 315 579 b 291 643 315 606 307 627 b 231 667 275 659 255 667 b 167 640 206 667 185 658 b 139 574 148 623 139 600 b 165 510 139 547 147 526 b 226 488 182 495 202 488 b 290 515 251 488 272 497 b 315 579 307 534 315 555 z "},"<":{"ha":925,"x_min":0,"x_max":0,"o":"m 818 665 l 818 783 l 110 463 l 110 379 l 815 58 l 815 176 l 283 421 z "},"=":{"ha":925,"x_min":0,"x_max":0,"o":"m 828 592 l 97 592 l 97 479 l 828 479 z m 828 363 l 97 363 l 97 250 l 828 250 z "},">":{"ha":925,"x_min":0,"x_max":0,"o":"m 110 783 l 110 665 l 642 421 l 110 176 l 110 58 l 815 379 l 815 463 z "},"?":{"ha":694,"x_min":0,"x_max":0,"o":"m 390 278 l 397 324 b 413 383 401 347 406 366 b 438 427 419 399 428 414 b 478 466 449 441 462 453 b 533 508 494 478 512 493 b 660 624 587 545 629 584 b 707 769 691 663 707 712 b 686 877 707 811 700 847 b 630 950 672 907 653 931 b 547 991 606 969 579 982 b 447 1004 516 1000 482 1004 b 335 985 407 1004 370 998 b 242 933 301 973 269 956 b 172 854 214 911 191 885 b 131 754 153 824 139 790 l 254 732 b 314 840 263 774 283 810 b 438 886 344 871 386 886 b 535 853 479 886 512 875 b 571 763 559 832 571 801 b 539 669 571 725 560 693 b 467 601 518 644 494 622 l 407 554 b 318 465 370 525 340 496 b 274 346 296 435 281 395 l 263 278 z m 397 85 b 372 148 397 112 389 133 b 311 171 356 163 335 171 b 248 145 287 171 266 162 b 221 79 230 128 221 106 b 247 16 221 52 229 31 b 308 -7 264 1 284 -7 b 371 21 332 -7 353 2 b 397 85 388 39 397 61 z "},"@":{"ha":1111,"x_min":0,"x_max":0,"o":"m 1094 624 b 1062 787 1094 685 1084 739 b 971 908 1040 834 1010 875 b 831 983 932 941 885 966 b 653 1008 777 1000 718 1008 b 410 960 565 1008 484 992 b 220 829 337 927 273 884 b 95 637 167 775 125 710 b 50 404 65 563 50 486 b 83 231 50 341 61 284 b 176 96 104 179 136 134 b 327 7 217 58 267 28 b 529 -25 387 -14 454 -25 b 765 15 613 -25 692 -12 b 960 135 837 42 902 82 l 910 208 b 743 107 858 165 802 131 b 543 71 684 83 617 71 b 388 94 486 71 434 79 b 270 162 342 110 303 133 b 194 268 237 191 212 226 b 168 408 177 310 168 356 b 203 601 168 476 180 540 b 302 762 227 663 260 716 b 454 871 344 808 395 844 b 651 911 513 898 579 911 b 787 891 700 911 746 904 b 893 832 828 878 863 858 b 963 738 923 806 946 775 b 988 613 979 702 988 660 b 974 506 988 576 983 541 b 936 410 964 470 952 439 b 879 342 920 382 901 359 b 807 317 857 325 833 317 b 767 329 788 317 774 321 b 756 369 759 338 756 351 b 759 395 756 376 757 384 b 768 427 761 406 764 416 b 778 458 772 438 775 448 b 788 482 782 467 785 475 l 889 742 l 785 742 l 761 682 l 758 682 b 713 740 754 705 739 724 b 622 763 688 755 657 763 b 486 726 571 763 526 750 b 385 635 446 702 413 672 b 323 515 358 598 337 558 b 301 393 309 472 301 431 b 347 269 301 341 316 300 b 479 222 377 238 421 222 b 538 231 500 222 519 225 b 588 255 556 237 573 245 b 628 287 603 265 617 275 b 657 321 640 298 650 310 l 663 321 b 685 251 657 294 664 271 b 775 222 705 232 735 222 b 906 255 823 222 867 233 b 1007 342 946 277 979 306 b 1072 470 1035 379 1056 422 b 1094 624 1087 519 1094 570 z m 699 571 b 683 484 699 543 694 514 b 642 403 673 454 659 427 b 581 343 625 379 605 359 b 504 319 558 327 532 319 b 438 349 472 319 450 329 b 421 413 427 368 421 389 b 438 508 421 446 426 478 b 481 588 449 538 463 565 b 542 644 499 612 520 631 b 613 665 565 658 588 665 b 681 638 646 665 669 656 b 699 571 693 619 699 597 z "},"A":{"ha":946,"x_min":0,"x_max":0,"o":"m 65 0 l 215 242 l 676 242 l 724 0 l 867 0 l 667 983 l 543 983 l -94 0 z m 286 363 l 574 829 l 657 363 z "},"B":{"ha":879,"x_min":0,"x_max":0,"o":"m 218 983 l 44 0 l 365 0 b 534 19 426 0 483 6 b 667 77 585 32 630 52 b 753 172 704 103 733 134 b 785 304 774 210 785 254 b 733 447 785 363 768 410 b 601 514 699 483 655 506 l 601 517 b 758 605 666 532 719 562 b 818 768 798 648 818 702 b 792 869 818 808 809 841 b 726 935 775 896 753 918 b 634 972 698 953 668 965 b 532 983 600 980 566 983 z m 278 567 l 332 869 l 497 869 b 569 862 523 869 547 867 b 627 839 592 857 611 849 b 665 799 643 829 656 815 b 679 739 675 782 679 762 b 659 658 679 706 672 679 b 608 605 646 636 628 618 b 540 576 587 591 564 582 b 468 567 515 570 491 567 z m 199 115 l 258 453 l 453 453 b 597 415 515 453 563 440 b 647 311 630 390 647 356 b 625 219 647 275 640 244 b 565 159 610 194 590 174 b 479 126 540 144 512 133 b 378 115 447 119 413 115 z "},"C":{"ha":972,"x_min":0,"x_max":0,"o":"m 906 154 l 814 231 b 682 126 775 183 731 149 b 526 93 633 104 581 93 b 393 118 476 93 432 101 b 295 187 354 135 322 158 b 235 289 269 216 249 250 b 215 414 222 328 215 369 b 247 590 215 474 226 533 b 338 743 269 648 299 699 b 476 851 376 788 423 823 b 653 892 530 878 589 892 b 733 881 682 892 709 888 b 798 853 757 874 779 865 b 846 815 817 842 833 829 b 876 774 859 801 869 788 l 989 856 b 933 918 975 879 956 900 b 856 966 910 937 884 953 b 762 997 827 979 796 990 b 657 1008 728 1005 693 1008 b 428 960 575 1008 499 992 b 243 830 358 928 296 885 b 119 636 190 775 149 710 b 74 397 89 562 74 482 b 106 225 74 334 84 277 b 195 92 127 173 157 129 b 334 6 234 55 280 26 b 514 -25 388 -15 448 -25 b 642 -11 560 -25 603 -20 b 750 27 682 -2 718 11 b 838 84 782 43 812 62 b 906 154 863 106 886 129 z "},"D":{"ha":1051,"x_min":0,"x_max":0,"o":"m 218 983 l 44 0 l 394 0 b 633 41 481 0 560 14 b 824 157 706 68 770 107 b 949 338 877 207 919 267 b 994 572 979 408 994 486 b 954 760 994 645 981 708 b 849 888 927 813 892 855 b 701 960 805 921 756 945 b 536 983 647 976 592 983 z m 200 119 l 332 867 l 503 867 b 659 842 563 867 615 858 b 767 774 703 825 739 803 b 831 676 796 746 817 713 b 851 556 844 638 851 598 b 823 394 851 500 842 446 b 738 254 804 341 775 295 b 597 156 700 213 653 181 b 401 119 541 132 475 119 z "},"E":{"ha":808,"x_min":0,"x_max":0,"o":"m 200 121 l 258 451 l 708 451 l 729 567 l 279 567 l 331 864 l 803 864 l 824 983 l 218 983 l 44 0 l 689 0 l 710 121 z "},"F":{"ha":768,"x_min":0,"x_max":0,"o":"m 181 0 l 258 442 l 688 442 l 707 557 l 278 557 l 333 864 l 792 864 l 813 983 l 218 983 l 44 0 z "},"G":{"ha":1049,"x_min":0,"x_max":0,"o":"m 538 93 b 400 117 486 93 440 101 b 299 185 360 134 327 156 b 237 287 272 213 251 247 b 215 414 222 326 215 369 b 247 590 215 474 226 533 b 338 743 269 648 299 699 b 476 851 376 788 423 823 b 653 892 530 878 589 892 b 799 856 712 892 761 880 b 883 774 837 831 865 804 l 996 856 b 856 969 963 906 917 944 b 657 1008 796 995 729 1008 b 428 960 575 1008 499 992 b 243 830 358 928 296 885 b 119 636 190 775 149 710 b 74 397 89 562 74 482 b 106 225 74 334 84 277 b 197 92 127 173 157 129 b 338 6 236 55 283 26 b 521 -25 393 -15 454 -25 b 710 -3 586 -25 649 -18 b 883 61 772 11 830 32 l 967 538 l 614 538 l 592 421 l 814 421 l 765 146 b 538 93 705 112 629 94 z "},"H":{"ha":999,"x_min":0,"x_max":0,"o":"m 218 983 l 44 0 l 181 0 l 260 451 l 746 451 l 667 0 l 803 0 l 976 983 l 840 983 l 767 571 l 281 571 l 354 983 z "},"I":{"ha":376,"x_min":0,"x_max":0,"o":"m 181 0 l 354 983 l 218 983 l 44 0 z "},"J":{"ha":682,"x_min":0,"x_max":0,"o":"m 100 215 l -24 179 b 2 98 -20 150 -11 122 b 55 33 16 73 33 52 b 133 -10 77 15 103 0 b 235 -25 163 -20 197 -25 b 378 6 293 -25 341 -15 b 468 85 415 27 445 53 b 520 190 491 117 509 152 b 546 300 532 228 540 265 l 667 983 l 531 983 l 411 307 b 392 225 406 278 400 251 b 360 157 384 199 374 176 b 309 111 347 138 330 122 b 231 94 288 100 262 94 b 140 130 193 94 163 106 b 100 215 118 153 105 182 z "},"K":{"ha":863,"x_min":0,"x_max":0,"o":"m 275 544 l 353 983 l 218 983 l 44 0 l 179 0 l 268 508 l 271 508 l 633 0 l 810 0 l 414 524 l 938 983 l 749 983 l 278 544 z "},"L":{"ha":710,"x_min":0,"x_max":0,"o":"m 200 121 l 354 983 l 218 983 l 44 0 l 621 0 l 640 121 z "},"M":{"ha":1254,"x_min":0,"x_max":0,"o":"m 588 225 l 428 983 l 218 983 l 44 0 l 175 0 l 321 821 l 324 821 l 506 0 l 592 0 l 1065 821 l 1069 821 l 924 0 l 1058 0 l 1231 983 l 1019 983 l 589 225 z "},"N":{"ha":1067,"x_min":0,"x_max":0,"o":"m 751 192 l 392 983 l 218 983 l 44 0 l 179 0 l 322 808 l 325 808 l 686 0 l 856 0 l 1029 983 l 893 983 l 754 192 z "},"O":{"ha":1154,"x_min":0,"x_max":0,"o":"m 529 -25 b 756 23 611 -25 686 -9 b 936 153 825 55 885 98 b 1055 347 987 209 1027 273 b 1097 585 1083 421 1097 500 b 1065 760 1097 650 1086 708 b 972 893 1043 812 1012 856 b 829 978 932 930 885 959 b 646 1008 774 998 713 1008 b 419 960 564 1008 489 992 b 238 830 350 928 290 885 b 117 637 187 775 147 710 b 74 400 88 563 74 484 b 106 224 74 335 84 277 b 199 90 128 172 159 127 b 342 5 238 53 286 25 b 529 -25 398 -15 461 -25 z m 956 572 b 926 394 956 511 946 452 b 841 241 906 337 878 286 b 708 133 804 196 760 160 b 532 93 655 106 597 93 b 395 118 480 93 434 101 b 297 187 356 135 323 158 b 236 289 270 216 250 250 b 215 413 222 328 215 369 b 245 589 215 473 225 531 b 331 742 265 646 294 697 b 465 851 368 787 412 823 b 639 892 517 878 575 892 b 774 867 690 892 735 883 b 874 798 814 850 847 827 b 935 697 900 769 921 735 b 956 572 949 658 956 617 z "},"P":{"ha":826,"x_min":0,"x_max":0,"o":"m 218 983 l 44 0 l 179 0 l 256 432 l 424 432 b 583 450 482 432 535 438 b 708 506 631 462 673 481 b 788 601 742 531 769 562 b 817 736 807 639 817 684 b 734 918 817 814 789 875 b 499 983 679 962 600 983 z m 275 546 l 333 868 l 481 868 b 562 861 510 868 537 866 b 625 837 586 856 607 848 b 666 791 643 825 656 810 b 681 721 676 772 681 749 b 613 588 681 660 658 615 b 431 546 567 560 506 546 z "},"Q":{"ha":1149,"x_min":0,"x_max":0,"o":"m 1083 593 b 1051 765 1083 656 1072 713 b 959 896 1029 816 998 860 b 818 979 920 932 873 960 b 638 1008 763 999 703 1008 b 415 962 558 1008 484 993 b 237 835 347 931 287 888 b 118 646 186 781 147 718 b 75 413 89 574 75 496 b 110 235 75 346 87 287 b 205 106 133 184 165 141 b 349 27 245 72 293 45 b 529 0 404 9 464 0 l 1061 0 l 1082 114 l 819 114 l 819 118 b 914 184 851 135 882 157 b 999 284 945 211 974 245 b 1060 420 1024 323 1044 369 b 1083 593 1075 472 1083 529 z m 943 575 b 911 401 943 514 932 456 b 824 256 890 346 861 297 b 694 156 787 214 743 181 b 535 118 644 131 591 118 b 400 141 485 118 440 126 b 299 205 360 156 326 178 b 235 303 271 232 250 265 b 214 429 221 341 214 383 b 244 599 214 488 224 544 b 329 747 264 654 292 704 b 462 852 366 791 410 826 b 635 892 513 878 571 892 b 767 867 685 892 729 884 b 863 800 805 851 837 829 b 923 699 890 771 909 738 b 943 575 936 661 943 619 z "},"R":{"ha":850,"x_min":0,"x_max":0,"o":"m 179 0 l 256 439 l 407 439 l 603 0 l 756 0 l 546 453 b 656 485 586 459 622 470 b 742 542 689 500 718 519 b 799 626 766 566 785 594 b 819 739 813 659 819 696 b 797 844 819 779 812 814 b 731 920 781 874 759 899 b 629 967 703 941 669 957 b 497 983 589 978 545 983 l 218 983 l 44 0 z m 275 551 l 332 868 l 476 868 b 626 835 539 868 589 857 b 681 724 662 813 681 775 b 660 641 681 690 674 663 b 606 588 647 619 629 602 b 526 560 584 575 557 565 b 426 551 495 554 462 551 z "},"S":{"ha":790,"x_min":0,"x_max":0,"o":"m 668 806 l 774 886 b 659 976 747 925 709 955 b 499 1008 609 998 556 1008 b 354 987 447 1008 399 1001 b 239 926 310 972 271 952 b 163 831 206 900 181 869 b 136 707 145 794 136 752 b 154 611 136 670 142 638 b 203 542 166 584 182 561 b 274 492 223 522 247 506 b 357 454 300 478 328 465 b 431 424 383 445 407 435 b 492 388 454 414 474 401 b 533 339 509 374 523 357 b 549 274 544 320 549 299 b 530 194 549 243 542 216 b 481 137 517 171 501 152 b 410 102 460 122 437 110 b 329 90 384 94 357 90 b 201 123 281 90 238 101 b 117 204 163 145 135 172 l 3 128 b 62 60 19 102 38 79 b 140 13 85 41 112 26 b 230 -15 169 1 199 -9 b 324 -25 261 -22 292 -25 b 476 -1 380 -25 431 -17 b 592 64 522 14 560 36 b 666 163 624 92 649 125 b 692 289 683 202 692 244 b 672 387 692 326 685 359 b 616 462 658 415 640 440 b 534 519 592 484 565 503 b 433 563 503 535 469 550 b 369 590 410 571 389 580 b 319 622 350 599 333 610 b 287 664 306 634 295 648 b 275 719 279 680 275 698 b 295 799 275 750 282 776 b 347 853 309 821 326 839 b 415 885 367 868 390 878 b 486 894 439 891 463 894 b 593 870 526 894 562 886 b 668 806 625 854 650 832 z "},"T":{"ha":743,"x_min":0,"x_max":0,"o":"m 361 0 l 514 864 l 822 864 l 843 983 l 88 983 l 67 864 l 378 864 l 225 0 z "},"U":{"ha":989,"x_min":0,"x_max":0,"o":"m 440 -25 b 616 8 508 -25 566 -14 b 741 94 666 29 707 58 b 822 219 775 131 802 172 b 865 364 841 266 856 314 l 974 983 l 838 983 l 731 372 b 702 269 724 337 715 303 b 650 180 690 236 672 206 b 567 117 628 153 600 132 b 444 93 533 101 493 93 b 346 110 406 93 373 99 b 280 155 319 121 297 136 b 243 220 263 174 250 196 b 232 299 236 245 232 271 b 239 372 232 322 234 346 l 347 983 l 211 983 l 103 364 b 94 278 97 334 94 306 b 116 160 94 236 102 197 b 181 64 130 124 152 92 b 288 -1 209 36 245 14 b 440 -25 331 -17 382 -25 z "},"V":{"ha":872,"x_min":0,"x_max":0,"o":"m 361 176 l 250 983 l 106 983 l 263 0 l 392 0 l 990 983 l 842 983 l 365 176 z "},"W":{"ha":1364,"x_min":0,"x_max":0,"o":"m 324 197 l 260 983 l 117 983 l 213 0 l 356 0 l 749 794 l 751 794 l 836 0 l 978 0 l 1456 983 l 1311 983 l 940 197 l 938 197 l 858 983 l 708 983 l 326 197 z "},"X":{"ha":864,"x_min":0,"x_max":0,"o":"m 461 613 l 299 983 l 144 983 l 361 521 l -103 0 l 74 0 l 424 413 l 607 0 l 764 0 l 524 508 l 943 983 l 775 983 z "},"Y":{"ha":778,"x_min":0,"x_max":0,"o":"m 372 0 l 447 425 l 925 983 l 758 983 l 399 536 l 218 983 l 64 983 l 311 425 l 236 0 z "},"Z":{"ha":806,"x_min":0,"x_max":0,"o":"m 835 864 l 857 983 l 171 983 l 150 864 l 660 864 l -25 119 l -46 0 l 693 0 l 714 121 l 154 121 z "},"[":{"ha":438,"x_min":0,"x_max":0,"o":"m 415 925 l 432 1017 l 186 1017 l -32 -217 l 214 -217 l 231 -125 l 101 -125 l 286 925 z "},"\\":{"ha":528,"x_min":0,"x_max":0,"o":"m 6 994 l 432 -46 l 531 -12 l 103 1031 z "},"]":{"ha":438,"x_min":0,"x_max":0,"o":"m 13 -125 l -4 -217 l 242 -217 l 460 1017 l 214 1017 l 199 925 l 328 925 l 142 -125 z "},"^":{"ha":925,"x_min":0,"x_max":0,"o":"m 417 983 l 103 429 l 229 429 l 461 846 l 696 429 l 822 429 l 508 983 z "},"_":{"ha":694,"x_min":0,"x_max":0,"o":"m -93 -104 l -106 -174 l 589 -174 l 601 -104 z "},"`":{"ha":347,"x_min":0,"x_max":0,"o":"m 26 983 l 217 783 l 318 783 l 179 983 z "},"a":{"ha":746,"x_min":0,"x_max":0,"o":"m 514 411 b 340 402 456 411 399 408 b 183 366 282 396 229 384 b 68 290 136 348 98 322 b 24 160 38 257 24 213 b 43 76 24 126 30 99 b 92 23 56 54 72 36 b 158 -6 112 9 134 0 b 228 -14 182 -11 206 -14 b 358 11 278 -14 321 -6 b 461 92 395 28 430 55 l 464 92 b 458 44 461 76 459 60 b 456 0 456 29 456 14 l 574 0 b 578 69 574 19 575 41 b 589 149 581 96 584 123 l 638 415 b 642 449 639 425 641 436 b 643 482 643 463 643 474 b 622 572 643 517 636 547 b 567 633 608 597 590 617 b 490 666 545 648 519 659 b 399 676 460 673 430 676 b 254 652 350 676 301 668 b 131 586 207 636 166 614 l 183 500 b 275 551 209 520 240 538 b 381 572 310 565 345 572 b 483 547 425 572 459 564 b 519 463 507 529 519 501 b 518 442 519 456 519 449 b 514 411 517 434 516 424 z m 479 317 l 500 317 l 490 268 b 465 197 486 243 477 219 b 418 139 452 175 437 156 b 353 99 400 122 378 109 b 272 85 328 90 301 85 b 228 89 257 85 243 86 b 190 104 214 92 201 97 b 162 133 178 112 169 121 b 151 178 155 144 151 159 b 182 250 151 207 162 231 b 260 292 202 269 228 283 b 367 312 292 302 328 309 b 479 317 406 315 443 317 z "},"b":{"ha":879,"x_min":0,"x_max":0,"o":"m 185 111 l 188 111 b 284 16 209 69 241 38 b 421 -17 327 -6 373 -17 b 570 15 475 -17 524 -6 b 689 103 616 37 656 66 b 767 233 722 140 748 183 b 794 392 785 282 794 335 b 774 508 794 434 788 473 b 715 597 760 542 740 572 b 625 656 690 622 660 642 b 507 676 590 669 550 676 b 367 641 456 676 409 665 b 268 553 325 617 292 588 l 265 553 l 356 1050 l 226 1050 l 42 0 l 165 0 z m 663 379 b 644 265 663 338 656 300 b 593 174 632 230 615 200 b 513 112 571 148 544 127 b 407 89 481 97 446 89 b 329 103 378 89 352 94 b 269 143 306 113 286 126 b 231 203 253 160 240 180 b 218 281 222 227 218 253 b 238 392 218 319 225 356 b 294 484 252 427 270 458 b 376 547 317 510 345 531 b 479 569 408 562 442 569 b 615 515 538 569 584 551 b 663 379 647 478 663 433 z "},"c":{"ha":689,"x_min":0,"x_max":0,"o":"m 582 490 l 682 565 b 640 615 671 585 657 601 b 583 649 622 629 603 641 b 516 669 562 658 540 665 b 444 676 492 674 469 676 b 281 643 384 676 330 665 b 155 553 231 621 190 591 b 74 423 120 516 93 472 b 46 267 55 373 46 321 b 68 151 46 224 53 185 b 131 61 83 116 104 86 b 228 3 157 36 190 17 b 357 -18 267 -11 310 -18 b 506 13 413 -18 463 -8 b 624 97 549 34 588 62 l 546 169 b 471 113 525 146 500 127 b 365 90 442 98 407 90 b 283 106 334 90 306 95 b 224 147 259 116 239 129 b 188 207 208 164 196 184 b 176 282 180 230 176 255 b 196 392 176 321 183 358 b 250 484 209 427 227 458 b 333 547 273 510 301 531 b 438 569 365 562 400 569 b 526 547 470 569 499 562 b 582 490 552 531 571 513 z "},"d":{"ha":872,"x_min":0,"x_max":0,"o":"m 42 268 b 63 152 42 225 49 187 b 121 63 76 117 96 88 b 211 4 146 38 176 18 b 329 -17 246 -10 286 -17 b 469 17 380 -17 427 -5 b 569 106 512 40 545 69 l 572 106 l 554 0 l 679 0 l 865 1050 l 736 1050 l 649 550 l 646 550 b 556 643 625 590 596 621 b 417 676 517 665 470 676 b 266 644 362 676 312 666 b 147 557 220 623 181 594 b 69 427 114 520 88 477 b 42 268 51 378 42 325 z m 175 281 b 193 394 175 320 181 358 b 244 486 205 429 222 460 b 325 548 267 512 294 533 b 431 571 356 563 392 571 b 508 556 459 571 485 566 b 568 517 531 547 551 533 b 606 456 585 500 597 480 b 619 379 615 433 619 407 b 599 268 619 340 613 303 b 544 176 586 233 567 202 b 460 113 520 149 492 128 b 358 90 428 98 394 90 b 222 145 299 90 254 109 b 175 281 191 182 175 227 z "},"e":{"ha":785,"x_min":0,"x_max":0,"o":"m 169 290 l 686 290 b 697 359 691 312 694 334 b 700 415 699 384 700 402 b 626 608 700 498 675 562 b 426 676 577 653 511 676 b 274 644 372 676 321 666 b 151 558 226 623 186 594 b 71 429 117 521 90 478 b 42 274 51 380 42 328 b 65 150 42 227 49 186 b 128 58 80 114 101 83 b 226 1 156 33 188 14 b 347 -18 263 -12 304 -18 b 510 16 406 -18 460 -7 b 643 117 560 39 604 72 l 567 189 b 481 117 544 160 515 136 b 360 89 447 98 407 89 b 284 102 333 89 308 93 b 223 140 260 111 240 123 b 183 197 206 156 192 175 b 168 268 173 218 168 242 l 168 278 b 169 290 168 282 169 286 z m 576 385 l 183 385 b 212 454 189 408 198 431 b 262 515 225 477 242 498 b 331 558 282 533 305 547 b 417 575 356 569 385 575 b 538 533 469 575 510 561 b 579 426 565 504 579 469 b 578 406 579 420 579 413 b 576 385 578 398 577 391 z "},"f":{"ha":429,"x_min":0,"x_max":0,"o":"m 443 554 l 463 658 l 306 658 l 331 796 b 345 856 334 816 339 836 b 370 907 351 875 359 892 b 410 942 381 922 394 934 b 467 956 425 951 444 956 b 499 953 479 956 490 955 b 528 946 509 951 519 949 l 556 1057 b 476 1067 533 1063 507 1067 b 364 1044 433 1067 395 1059 b 284 983 332 1028 306 1008 b 233 897 262 958 245 930 b 204 797 220 865 211 831 l 179 658 l 50 658 l 31 554 l 163 554 l 65 0 l 192 0 l 289 554 z "},"g":{"ha":875,"x_min":0,"x_max":0,"o":"m 71 -115 l -15 -208 b 122 -301 19 -248 65 -279 b 296 -333 178 -322 237 -333 b 470 -303 365 -333 423 -323 b 585 -222 517 -282 555 -255 b 655 -105 616 -188 639 -149 b 692 32 671 -61 683 -15 l 801 658 l 676 658 l 658 551 l 654 551 b 568 643 637 590 608 621 b 428 676 528 665 481 676 b 278 645 373 676 323 666 b 160 560 232 624 193 596 b 82 433 126 524 100 481 b 54 279 63 385 54 334 b 74 164 54 238 61 199 b 132 74 88 129 107 99 b 222 15 157 49 187 29 b 340 -7 257 0 297 -7 b 476 24 390 -7 436 3 b 578 110 517 45 551 74 l 581 110 l 564 22 b 535 -74 556 -12 547 -44 b 485 -151 523 -103 506 -129 b 408 -202 465 -172 439 -190 b 297 -221 378 -215 341 -221 b 167 -192 251 -221 208 -211 b 71 -115 127 -173 95 -148 z m 186 289 b 205 401 186 330 192 367 b 257 490 217 436 235 465 b 338 549 279 515 306 535 b 442 571 369 564 404 571 b 580 517 500 571 546 553 b 631 381 614 481 631 435 b 611 272 631 343 624 306 b 557 183 598 238 580 208 b 475 122 534 157 506 137 b 372 99 444 106 409 99 b 293 113 343 99 316 103 b 235 154 270 123 250 137 b 199 215 219 172 207 192 b 186 289 190 237 186 262 z "},"h":{"ha":807,"x_min":0,"x_max":0,"o":"m 482 676 b 356 642 435 676 393 665 b 269 558 320 620 291 592 l 267 558 l 353 1050 l 224 1050 l 39 0 l 168 0 l 229 349 b 303 508 241 415 266 468 b 439 567 341 547 386 567 b 539 531 487 567 520 555 b 567 438 557 506 567 475 b 558 364 567 413 564 389 l 494 0 l 624 0 l 696 407 b 701 474 700 428 701 450 b 646 619 701 532 683 580 b 482 676 609 657 554 676 z "},"i":{"ha":360,"x_min":0,"x_max":0,"o":"m 168 0 l 285 658 l 156 658 l 40 0 z m 340 899 b 317 957 340 923 333 942 b 261 979 302 972 283 979 b 202 955 239 979 219 971 b 176 893 185 939 176 918 b 201 835 176 868 184 849 b 258 814 217 821 236 814 b 317 839 281 814 301 822 b 340 899 332 856 340 875 z "},"j":{"ha":360,"x_min":0,"x_max":0,"o":"m -137 -215 l -164 -325 b -127 -331 -154 -327 -141 -329 b -87 -333 -113 -332 -100 -333 b 19 -313 -45 -333 -9 -327 b 90 -259 48 -300 72 -282 b 131 -180 108 -236 122 -210 b 154 -86 141 -150 149 -119 l 286 658 l 157 658 l 26 -82 b 14 -137 23 -101 19 -120 b -6 -181 9 -154 3 -169 b -37 -211 -14 -194 -25 -204 b -86 -222 -50 -219 -67 -222 b -137 -215 -104 -222 -121 -220 z m 340 899 b 317 957 340 923 333 942 b 261 979 302 972 283 979 b 202 955 239 979 219 971 b 176 893 185 939 176 918 b 201 835 176 868 184 849 b 258 814 217 821 236 814 b 317 839 281 814 301 822 b 340 899 332 856 340 875 z "},"k":{"ha":700,"x_min":0,"x_max":0,"o":"m 235 371 l 354 1050 l 225 1050 l 40 0 l 169 0 l 229 342 l 233 342 l 479 0 l 642 0 l 371 353 l 726 658 l 556 658 l 239 371 z "},"l":{"ha":361,"x_min":0,"x_max":0,"o":"m 169 0 l 356 1050 l 225 1050 l 40 0 z "},"m":{"ha":1228,"x_min":0,"x_max":0,"o":"m 900 676 b 766 641 850 676 805 665 b 667 542 727 617 694 584 b 598 644 656 588 634 622 b 476 676 562 666 522 676 b 349 640 427 676 385 664 b 261 551 314 616 284 587 l 258 551 b 265 606 260 565 263 583 b 272 658 268 628 270 645 l 150 658 b 141 583 148 636 145 611 b 129 515 137 556 133 533 l 39 0 l 168 0 l 229 350 b 257 439 235 382 244 412 b 303 508 270 466 285 489 b 364 552 322 527 342 541 b 433 568 386 563 409 568 b 522 536 475 568 505 557 b 549 451 540 515 549 487 b 547 422 549 442 548 432 b 542 390 545 412 544 401 l 472 0 l 601 0 l 664 356 b 685 432 669 381 676 407 b 724 500 695 457 708 480 b 781 549 739 520 759 537 b 861 568 804 562 831 568 b 960 531 908 568 941 556 b 988 438 978 507 988 475 b 985 401 988 425 987 413 b 981 364 984 389 982 377 l 917 0 l 1044 0 l 1117 407 b 1122 441 1119 419 1120 430 b 1124 474 1123 452 1124 463 b 1067 619 1124 532 1105 580 b 900 676 1030 657 974 676 z "},"n":{"ha":807,"x_min":0,"x_max":0,"o":"m 272 658 l 150 658 b 141 583 148 636 145 611 b 129 515 137 556 133 533 l 39 0 l 168 0 l 229 350 b 304 508 241 416 266 468 b 439 567 342 547 387 567 b 539 531 487 567 520 555 b 567 438 557 506 567 475 b 558 364 567 413 564 389 l 494 0 l 624 0 l 696 407 b 701 474 700 428 701 450 b 645 619 701 532 683 580 b 481 676 608 657 553 676 b 353 642 433 676 391 665 b 261 551 316 620 285 589 l 258 551 b 266 606 261 566 264 584 b 272 658 268 628 270 645 z "},"o":{"ha":833,"x_min":0,"x_max":0,"o":"m 354 -18 b 515 15 413 -18 467 -7 b 640 103 563 36 605 66 b 720 234 674 141 701 184 b 749 392 739 284 749 336 b 726 508 749 434 741 473 b 661 597 710 542 689 572 b 563 656 633 622 600 642 b 438 676 525 669 483 676 b 276 644 378 676 324 666 b 151 555 227 622 185 592 b 70 425 116 517 89 474 b 42 269 51 376 42 324 b 65 153 42 227 50 188 b 131 62 81 118 103 87 b 229 3 158 36 191 17 b 354 -18 267 -11 309 -18 z m 618 379 b 599 268 618 340 612 303 b 547 176 587 233 569 202 b 465 113 524 149 497 128 b 361 90 434 98 399 90 b 222 144 302 90 256 108 b 172 281 189 179 172 225 b 191 391 172 319 178 356 b 244 483 203 426 221 456 b 325 546 266 509 294 530 b 429 569 356 562 391 569 b 508 555 458 569 484 565 b 567 515 531 545 551 532 b 605 454 584 497 596 477 b 618 379 614 431 618 406 z "},"p":{"ha":878,"x_min":0,"x_max":0,"o":"m 265 553 l 263 553 l 281 658 l 156 658 l -19 -333 l 110 -333 l 186 107 l 189 107 b 278 15 209 68 239 38 b 418 -18 318 -7 364 -18 b 567 14 472 -18 522 -7 b 686 101 613 35 653 64 b 765 231 719 138 746 182 b 793 390 784 281 793 334 b 772 506 793 433 786 472 b 714 596 758 541 739 571 b 624 654 689 621 659 640 b 506 675 588 668 549 675 b 365 640 455 675 408 663 b 265 553 323 617 289 588 z m 660 378 b 642 264 660 337 654 299 b 590 172 630 229 613 198 b 510 110 568 146 541 126 b 406 88 478 95 444 88 b 327 102 377 88 351 92 b 267 142 303 112 283 125 b 228 202 250 158 237 178 b 215 279 220 226 215 251 b 235 390 215 318 222 355 b 291 483 249 425 267 456 b 374 545 315 509 342 530 b 476 568 406 560 440 568 b 613 513 536 568 581 550 b 660 378 644 477 660 431 z "},"q":{"ha":869,"x_min":0,"x_max":0,"o":"m 42 268 b 63 152 42 225 49 187 b 121 63 76 117 96 88 b 211 4 146 38 176 18 b 329 -17 246 -10 286 -17 b 469 17 380 -17 427 -5 b 569 106 512 40 545 69 l 572 106 l 492 -333 l 621 -333 l 796 658 l 671 658 l 651 547 l 649 547 b 553 643 627 589 595 621 b 417 676 510 665 465 676 b 266 644 362 676 312 666 b 147 557 220 623 181 594 b 69 427 114 520 88 477 b 42 268 51 378 42 325 z m 175 281 b 193 394 175 320 181 358 b 244 486 205 429 222 460 b 325 548 267 512 294 533 b 431 571 356 563 392 571 b 508 556 459 571 485 566 b 568 517 531 547 551 533 b 606 456 585 500 597 480 b 619 379 615 433 619 407 b 599 268 619 340 613 303 b 544 176 586 233 567 202 b 460 113 520 149 492 128 b 358 90 428 98 394 90 b 222 145 299 90 254 109 b 175 281 191 182 175 227 z "},"r":{"ha":476,"x_min":0,"x_max":0,"o":"m 128 515 l 128 515 l 38 0 l 165 0 l 226 346 b 249 426 231 374 239 400 b 292 493 260 451 274 474 b 354 540 309 513 330 528 b 438 557 378 551 406 557 b 494 550 457 557 476 555 l 517 671 b 465 676 503 675 486 676 b 347 641 421 676 381 665 b 260 547 312 617 283 586 l 257 547 b 260 573 258 555 259 563 b 265 603 262 583 263 593 b 268 634 266 614 267 624 b 271 658 269 644 270 652 l 149 658 b 140 583 147 636 144 611 b 128 515 135 556 131 533 z "},"s":{"ha":617,"x_min":0,"x_max":0,"o":"m 482 500 l 582 565 b 490 647 562 600 531 628 b 353 676 450 667 404 676 b 251 663 318 676 284 672 b 164 622 218 653 189 640 b 104 558 139 605 119 583 b 82 471 89 532 82 503 b 95 403 82 444 86 421 b 132 354 104 384 116 368 b 188 319 148 340 166 329 b 258 293 209 310 232 301 b 360 249 304 278 338 263 b 394 183 383 234 394 212 b 351 110 394 151 380 127 b 250 86 323 94 289 86 b 151 111 213 86 180 94 b 85 176 122 128 100 150 l -19 108 b 87 14 6 69 41 37 b 250 -21 133 -9 187 -21 b 349 -8 283 -21 316 -16 b 435 32 381 1 410 14 b 497 99 461 50 481 72 b 521 193 513 125 521 157 b 470 317 521 247 504 288 b 325 389 436 347 388 370 b 238 422 287 399 258 410 b 207 482 217 434 207 454 b 219 525 207 499 211 513 b 252 553 228 537 239 547 b 296 569 266 560 280 566 b 343 574 312 572 327 574 b 429 553 378 574 407 567 b 482 500 451 539 469 521 z "},"t":{"ha":450,"x_min":0,"x_max":0,"o":"m 438 553 l 457 658 l 292 658 l 325 847 l 197 847 l 165 658 l 42 658 l 22 553 l 147 553 l 83 196 b 79 163 81 185 80 174 b 78 131 78 151 78 141 b 123 23 78 81 93 46 b 244 -11 153 0 194 -11 b 301 -6 263 -11 282 -9 b 349 7 320 -3 336 1 l 358 110 b 326 99 350 105 339 101 b 288 94 313 96 300 94 b 230 109 263 94 244 99 b 208 165 216 119 208 138 b 213 207 208 177 210 191 l 275 553 z "},"u":{"ha":807,"x_min":0,"x_max":0,"o":"m 489 0 l 611 0 b 620 75 613 22 616 47 b 632 143 624 103 628 125 l 722 658 l 594 658 l 532 308 b 458 151 521 243 496 190 b 322 92 419 111 374 92 b 224 128 275 92 242 104 b 196 221 205 152 196 183 b 198 258 196 233 197 245 b 203 296 199 270 201 283 l 267 658 l 139 658 l 67 251 b 62 218 65 240 63 229 b 60 186 60 207 60 196 b 116 40 60 127 78 78 b 281 -18 153 1 208 -18 b 408 16 328 -18 370 -7 b 500 107 445 39 476 69 l 503 107 b 496 52 501 92 499 74 b 489 0 493 30 491 13 z "},"v":{"ha":681,"x_min":0,"x_max":0,"o":"m 315 0 l 710 658 l 572 658 l 272 139 l 269 139 l 178 658 l 44 658 l 178 0 z "},"w":{"ha":1054,"x_min":0,"x_max":0,"o":"m 190 658 l 56 658 l 138 0 l 271 0 l 531 499 l 533 499 l 600 0 l 733 0 l 1081 658 l 944 658 l 694 156 l 690 156 l 625 658 l 496 658 l 239 156 l 236 156 z "},"x":{"ha":679,"x_min":0,"x_max":0,"o":"m 438 0 l 585 0 l 394 339 l 701 658 l 544 658 l 333 426 l 217 658 l 76 658 l 247 349 l -92 0 l 71 0 l 307 257 z "},"y":{"ha":688,"x_min":0,"x_max":0,"o":"m 288 140 l 193 658 l 56 658 l 200 0 l 135 -111 b 74 -192 113 -146 93 -173 b 0 -221 54 -211 30 -221 b -61 -210 -20 -221 -41 -217 l -79 -324 b 3 -333 -53 -330 -26 -333 b 78 -321 31 -333 56 -329 b 139 -285 100 -312 120 -301 b 190 -230 157 -270 175 -252 b 239 -156 206 -208 222 -183 l 721 658 l 582 658 l 290 140 z "},"z":{"ha":640,"x_min":0,"x_max":0,"o":"m 607 553 l 625 658 l 110 658 l 90 553 l 443 553 l -11 106 l -29 0 l 521 0 l 539 108 l 151 108 z "},"{":{"ha":438,"x_min":0,"x_max":0,"o":"m 17 451 l -3 349 b 58 327 21 349 41 341 b 82 257 74 313 82 289 b 78 218 82 245 81 232 l 32 -37 b 28 -79 29 -53 28 -67 b 68 -185 28 -128 41 -163 b 165 -217 95 -206 127 -217 l 260 -217 l 276 -121 l 206 -121 b 161 -103 184 -121 169 -115 b 149 -62 153 -92 149 -78 b 153 -21 149 -49 150 -35 l 196 229 b 200 274 199 246 200 261 b 188 333 200 298 196 318 b 160 371 180 349 171 362 b 127 391 150 380 139 387 b 97 399 116 395 106 398 l 97 401 b 135 413 106 402 119 406 b 183 441 152 419 168 428 b 227 490 199 453 214 470 b 256 567 241 511 250 536 l 300 821 b 308 856 302 833 305 845 b 324 888 312 868 317 878 b 350 912 331 898 340 906 b 389 921 360 918 373 921 l 460 921 l 476 1017 l 382 1017 b 319 1007 361 1017 340 1013 b 261 975 298 1000 279 990 b 215 919 244 960 228 941 b 188 838 202 896 193 869 l 140 576 b 94 481 133 532 117 500 b 17 451 70 461 44 451 z "},"|":{"ha":308,"x_min":0,"x_max":0,"o":"m 211 1042 l 97 1042 l 97 -347 l 211 -347 z "},"}":{"ha":438,"x_min":0,"x_max":0,"o":"m 424 349 l 443 451 b 383 473 419 451 399 459 b 358 543 366 487 358 511 b 363 582 358 555 360 568 l 408 838 b 413 879 411 852 413 866 b 372 984 413 927 399 962 b 275 1017 345 1006 313 1017 l 181 1017 l 164 921 l 235 921 b 279 903 256 921 271 915 b 292 863 288 892 292 878 b 288 821 292 849 290 835 l 244 571 b 240 526 242 554 240 539 b 252 467 240 502 244 482 b 280 429 260 451 269 438 b 313 409 291 420 302 413 b 343 401 325 405 335 402 l 343 399 b 304 387 333 397 320 393 b 257 359 288 381 273 372 b 213 310 241 347 227 330 b 185 233 200 289 190 264 l 140 -21 b 132 -56 138 -33 136 -45 b 116 -88 128 -68 123 -78 b 90 -112 109 -98 100 -106 b 51 -121 79 -118 66 -121 l -19 -121 l -36 -217 l 58 -217 b 122 -207 80 -217 101 -213 b 179 -175 142 -200 162 -190 b 225 -119 197 -160 212 -142 b 253 -37 238 -97 247 -70 l 300 224 b 347 319 307 268 323 300 b 424 349 370 339 396 349 z "},"~":{"ha":925,"x_min":0,"x_max":0,"o":"m 472 481 b 390 522 441 501 413 515 b 313 533 366 530 340 533 b 213 506 281 533 248 524 b 113 397 178 487 145 451 l 194 321 b 315 415 229 384 269 415 b 344 413 325 415 335 415 b 372 406 353 412 362 409 b 406 390 382 402 394 397 b 451 363 419 383 434 374 b 536 321 484 342 512 328 b 613 310 560 313 586 310 b 661 315 628 310 644 312 b 712 336 678 319 695 326 b 763 378 729 346 746 360 b 813 444 779 395 796 418 l 731 521 b 610 426 696 458 656 426 b 581 428 600 426 590 427 b 553 436 572 430 563 432 b 518 453 543 440 531 445 b 472 481 505 460 490 469 z "}," ":{"ha":347,"x_min":0,"x_max":0,"o":""},"¡":{"ha":399,"x_min":0,"x_max":0,"o":"m 125 389 l 3 -307 l 135 -307 l 257 389 z m 131 592 b 156 528 131 565 139 544 b 217 506 172 513 193 506 b 280 531 241 506 262 514 b 307 597 298 548 307 570 b 281 660 307 624 298 645 b 219 683 264 676 244 683 b 156 656 194 683 173 674 b 131 592 139 638 131 617 z "},"¢":{"ha":826,"x_min":0,"x_max":0,"o":"m 342 -12 l 325 -108 l 396 -108 l 411 -18 b 559 15 467 -17 516 -6 b 675 97 602 35 641 63 l 599 169 b 527 115 577 148 553 130 b 431 90 501 100 469 92 l 515 568 b 588 541 542 564 566 555 b 635 490 609 527 625 510 l 735 565 b 650 642 714 599 686 624 b 533 674 614 659 575 670 l 549 763 l 478 763 l 463 675 b 312 633 407 670 357 656 b 197 542 267 609 228 579 b 123 416 165 506 140 464 b 97 267 106 368 97 319 b 163 80 97 192 119 129 b 342 -12 207 30 267 0 z m 444 567 l 361 96 b 260 163 315 105 281 127 b 228 282 238 198 228 238 b 244 382 228 316 233 350 b 288 469 254 414 269 444 b 356 534 307 495 330 517 b 444 567 383 551 412 562 z "},"£":{"ha":826,"x_min":0,"x_max":0,"o":"m 594 453 l 613 551 l 379 551 l 399 665 b 417 739 402 687 408 712 b 452 815 425 766 437 791 b 512 874 467 838 487 858 b 606 899 536 891 568 899 b 688 881 636 899 663 893 b 746 836 712 870 731 855 l 826 928 b 735 988 802 954 772 974 b 611 1008 698 1001 656 1008 b 461 976 552 1008 502 997 b 360 893 420 954 387 926 b 299 784 334 860 314 823 b 268 674 285 745 275 708 l 246 551 l 114 551 l 96 453 l 231 453 l 172 114 l 33 114 l 13 0 l 650 0 l 671 114 l 304 114 l 364 453 z "},"€":{"ha":826,"x_min":0,"x_max":0,"o":"m 797 853 l 797 853 l 851 963 b 763 996 828 976 799 988 b 646 1008 726 1004 688 1008 b 492 982 591 1008 540 1000 b 361 909 445 964 401 940 b 256 799 321 878 286 841 b 183 664 226 757 202 712 l 107 664 l 56 565 l 153 565 b 133 481 144 537 138 509 b 125 417 129 454 126 432 l 60 417 l 10 318 l 125 318 b 152 188 127 273 136 229 b 223 79 168 147 192 111 b 338 3 254 48 292 22 b 497 -25 383 -16 436 -25 b 625 -8 544 -25 587 -19 b 728 38 663 3 697 18 l 699 142 b 609 101 668 123 638 110 b 515 89 580 93 549 89 b 409 106 476 89 441 95 b 327 153 377 118 350 134 b 274 226 304 173 287 197 b 254 318 262 254 255 285 l 560 318 l 607 417 l 256 417 b 258 450 256 426 256 437 b 263 490 259 463 261 476 b 272 531 266 504 268 518 b 282 565 275 544 278 555 l 669 565 l 718 664 l 318 664 b 372 755 333 696 351 727 b 444 828 394 783 417 807 b 531 876 470 848 499 864 b 632 893 563 887 597 893 b 722 883 663 893 694 890 b 797 853 751 877 776 867 z "},"¥":{"ha":826,"x_min":0,"x_max":0,"o":"m 329 317 l 92 317 l 78 226 l 315 226 l 275 0 l 401 0 l 442 226 l 679 226 l 694 317 l 456 317 l 479 444 l 718 444 l 733 535 l 536 535 l 894 983 l 743 983 l 442 575 l 275 983 l 131 983 l 339 535 l 131 535 l 115 444 l 351 444 z "},"Š":{"ha":790,"x_min":0,"x_max":0,"o":"m 668 806 l 774 886 b 659 976 747 925 709 955 b 499 1008 609 998 556 1008 b 354 987 447 1008 399 1001 b 239 926 310 972 271 952 b 163 831 206 900 181 869 b 136 707 145 794 136 752 b 154 611 136 670 142 638 b 203 542 166 584 182 561 b 274 492 223 522 247 506 b 357 454 300 478 328 465 b 431 424 383 445 407 435 b 492 388 454 414 474 401 b 533 339 509 374 523 357 b 549 274 544 320 549 299 b 530 194 549 243 542 216 b 481 137 517 171 501 152 b 410 102 460 122 437 110 b 329 90 384 94 357 90 b 201 123 281 90 238 101 b 117 204 163 145 135 172 l 3 128 b 62 60 19 102 38 79 b 140 13 85 41 112 26 b 230 -15 169 1 199 -9 b 324 -25 261 -22 292 -25 b 476 -1 380 -25 431 -17 b 592 64 522 14 560 36 b 666 163 624 92 649 125 b 692 289 683 202 692 244 b 672 387 692 326 685 359 b 616 462 658 415 640 440 b 534 519 592 484 565 503 b 433 563 503 535 469 550 b 369 590 410 571 389 580 b 319 622 350 599 333 610 b 287 664 306 634 295 648 b 275 719 279 680 275 698 b 295 799 275 750 282 776 b 347 853 309 821 326 839 b 415 885 367 868 390 878 b 486 894 439 891 463 894 b 593 870 526 894 562 886 b 668 806 625 854 650 832 z m 572 1061 l 763 1261 l 638 1261 l 507 1124 l 426 1261 l 306 1261 l 425 1061 z "},"§":{"ha":810,"x_min":0,"x_max":0,"o":"m 664 817 l 765 893 b 665 975 743 928 710 956 b 514 1004 621 994 570 1004 b 399 987 473 1004 435 998 b 303 937 363 975 331 959 b 239 857 276 915 255 888 b 215 751 223 825 215 790 b 235 672 215 722 222 695 b 283 617 248 648 264 630 b 160 539 232 602 191 576 b 113 407 128 502 113 458 b 162 278 113 352 129 309 b 303 194 195 246 242 219 b 377 162 331 183 356 172 b 428 128 398 151 415 140 b 456 90 441 117 450 104 b 465 43 462 76 465 61 b 452 -15 465 21 461 2 b 416 -54 443 -31 431 -44 b 363 -76 401 -64 383 -72 b 301 -83 343 -81 323 -83 b 201 -57 269 -83 236 -75 b 126 22 167 -39 142 -13 l 17 -47 b 64 -109 28 -70 44 -91 b 133 -156 84 -127 107 -143 b 216 -185 159 -169 187 -178 b 303 -196 245 -192 274 -196 b 417 -179 343 -196 381 -190 b 513 -130 453 -168 485 -152 b 578 -49 540 -108 562 -81 b 603 64 595 -16 603 21 b 585 137 603 90 597 114 b 539 197 574 159 558 180 b 651 272 583 214 621 239 b 696 407 681 306 696 350 b 683 481 696 435 691 459 b 644 540 674 503 661 522 b 581 587 627 557 606 572 b 497 628 557 601 529 615 b 431 658 471 639 449 649 b 385 688 412 668 397 677 b 358 722 373 698 364 709 b 350 767 353 735 350 750 b 395 862 350 807 365 839 b 510 896 425 884 463 896 b 597 876 541 896 570 889 b 664 817 624 863 646 844 z m 571 385 b 538 300 571 350 560 322 b 458 256 515 278 489 263 l 349 303 b 269 351 316 318 290 334 b 239 428 249 368 239 394 b 250 478 239 446 243 463 b 279 518 257 494 267 507 b 321 545 291 529 305 538 b 368 560 337 552 352 557 l 468 513 b 507 492 482 506 495 499 b 540 465 519 484 530 475 b 563 430 549 455 557 443 b 571 385 568 416 571 401 z "},"š":{"ha":617,"x_min":0,"x_max":0,"o":"m 482 500 l 582 565 b 490 647 562 600 531 628 b 353 676 450 667 404 676 b 251 663 318 676 284 672 b 164 622 218 653 189 640 b 104 558 139 605 119 583 b 82 471 89 532 82 503 b 95 403 82 444 86 421 b 132 354 104 384 116 368 b 188 319 148 340 166 329 b 258 293 209 310 232 301 b 360 249 304 278 338 263 b 394 183 383 234 394 212 b 351 110 394 151 380 127 b 250 86 323 94 289 86 b 151 111 213 86 180 94 b 85 176 122 128 100 150 l -19 108 b 87 14 6 69 41 37 b 250 -21 133 -9 187 -21 b 349 -8 283 -21 316 -16 b 435 32 381 1 410 14 b 497 99 461 50 481 72 b 521 193 513 125 521 157 b 470 317 521 247 504 288 b 325 389 436 347 388 370 b 238 422 287 399 258 410 b 207 482 217 434 207 454 b 219 525 207 499 211 513 b 252 553 228 537 239 547 b 296 569 266 560 280 566 b 343 574 312 572 327 574 b 429 553 378 574 407 567 b 482 500 451 539 469 521 z m 443 783 l 633 983 l 508 983 l 378 846 l 297 983 l 176 983 l 296 783 z "},"©":{"ha":1111,"x_min":0,"x_max":0,"o":"m 28 490 b 69 287 28 418 42 350 b 183 121 97 223 135 168 b 351 10 230 74 286 37 b 557 -31 415 -17 484 -31 b 761 10 629 -31 697 -17 b 928 121 825 37 881 74 b 1042 287 976 168 1014 223 b 1083 490 1069 350 1083 418 b 1042 695 1083 563 1069 632 b 928 861 1014 759 976 814 b 761 973 881 908 825 946 b 557 1014 697 1000 629 1014 b 351 973 484 1014 415 1000 b 183 861 286 946 230 908 b 69 695 135 814 97 759 b 28 490 42 632 28 563 z m 111 490 b 147 663 111 551 123 609 b 242 805 170 717 202 765 b 384 901 283 845 330 877 b 557 936 438 924 496 936 b 729 901 618 936 675 924 b 870 805 783 877 830 845 b 965 663 910 765 942 717 b 1000 490 988 609 1000 551 b 965 318 1000 429 988 372 b 870 177 942 264 910 217 b 729 82 830 137 783 105 b 557 47 675 59 618 47 b 384 82 496 47 438 59 b 242 177 330 105 283 137 b 147 318 202 217 170 264 b 111 490 123 372 111 429 z m 715 657 l 796 721 b 753 762 784 737 769 750 b 699 790 736 773 718 783 b 639 807 679 798 659 803 b 579 813 619 811 599 813 b 451 790 533 813 490 805 b 348 728 411 775 377 755 b 279 630 319 701 296 668 b 254 500 263 591 254 548 b 278 371 254 453 262 410 b 344 271 294 332 316 299 b 445 206 372 243 406 222 b 574 183 484 191 527 183 b 708 211 625 183 669 193 b 806 289 746 230 779 256 l 721 349 b 660 298 705 327 685 310 b 575 279 636 285 607 279 b 427 340 513 279 464 300 b 372 500 391 381 372 434 b 388 586 372 531 377 559 b 430 656 398 613 412 636 b 495 701 448 675 470 690 b 579 718 521 713 549 718 b 653 703 603 718 628 713 b 715 657 679 694 700 678 z "},"ª":{"ha":528,"x_min":0,"x_max":0,"o":"m 490 885 b 450 972 490 922 477 951 b 342 1003 423 992 387 1003 b 260 989 317 1003 290 998 b 179 946 231 980 204 965 l 217 886 b 271 917 232 899 250 909 b 329 929 291 925 311 929 b 385 916 353 929 372 925 b 404 871 398 907 404 892 b 403 859 404 867 404 863 b 401 847 402 855 401 851 b 289 841 362 847 324 845 b 197 818 254 837 223 829 b 136 772 171 807 151 792 b 114 697 121 753 114 728 b 154 616 114 661 127 634 b 246 589 181 598 212 589 b 322 606 275 589 301 595 b 376 653 344 618 362 633 l 379 653 b 374 599 375 634 374 616 l 451 599 b 453 640 451 610 452 624 b 458 689 454 657 456 673 l 486 842 b 489 863 487 848 488 855 b 490 885 490 870 490 877 z m 382 783 l 393 783 l 388 758 b 348 688 381 731 368 707 b 269 658 328 668 302 658 b 224 669 254 658 239 662 b 203 710 210 676 203 689 b 220 748 203 725 209 738 b 263 770 232 758 246 765 b 321 781 280 775 300 779 b 382 783 342 782 363 783 z "},"«":{"ha":704,"x_min":0,"x_max":0,"o":"m 290 90 l 172 331 l 378 576 l 301 639 l 46 339 l 199 35 z m 568 90 l 450 331 l 656 576 l 581 639 l 325 339 l 478 35 z "},"¬":{"ha":925,"x_min":0,"x_max":0,"o":"m 828 193 l 828 592 l 97 592 l 97 479 l 715 479 l 715 193 z "},"­":{"ha":444,"x_min":0,"x_max":0,"o":"m 358 285 l 378 394 l 56 394 l 36 285 z "},"®":{"ha":833,"x_min":0,"x_max":0,"o":"m 488 710 l 422 710 l 422 797 l 488 797 b 521 788 498 797 509 794 b 539 756 533 781 539 770 b 523 722 539 742 534 731 b 488 710 512 714 500 710 z m 549 511 l 649 511 l 554 661 b 605 696 575 669 591 680 b 625 756 618 712 625 731 b 613 809 625 777 621 795 b 582 843 605 823 595 835 b 539 861 569 851 555 857 b 490 867 523 865 507 867 l 338 867 l 338 511 l 422 511 l 422 649 l 472 649 z m 156 685 b 181 563 156 641 164 600 b 249 463 197 525 220 491 b 349 397 277 435 311 413 b 472 372 388 380 429 372 b 595 397 516 372 557 380 b 696 463 634 413 667 435 b 764 563 725 491 747 525 b 789 685 781 600 789 641 b 764 808 789 728 781 769 b 696 908 747 846 725 879 b 595 975 667 936 634 958 b 472 1000 557 992 516 1000 b 349 975 429 1000 388 992 b 249 908 311 958 277 936 b 181 808 220 879 197 846 b 156 685 164 769 156 728 z m 206 685 b 226 789 206 722 213 756 b 283 874 240 821 259 850 b 368 931 307 898 336 917 b 472 951 400 944 435 951 b 576 931 509 951 544 944 b 661 874 609 917 637 898 b 718 789 685 850 704 821 b 739 685 732 756 739 722 b 718 582 739 649 732 614 b 661 497 704 550 685 521 b 576 439 637 472 609 453 b 472 418 544 425 509 418 b 368 439 435 418 400 425 b 283 497 336 453 307 472 b 226 582 259 521 240 550 b 206 685 213 614 206 649 z "},"¯":{"ha":347,"x_min":0,"x_max":0,"o":"m 449 829 l 465 921 l 56 921 l 40 829 z "},"°":{"ha":556,"x_min":0,"x_max":0,"o":"m 549 785 b 532 869 549 815 543 844 b 486 938 521 895 506 918 b 418 983 467 957 444 972 b 333 1000 392 994 364 1000 b 249 983 303 1000 275 994 b 181 938 223 972 200 957 b 135 869 161 918 146 895 b 118 785 124 844 118 815 b 135 700 118 754 124 726 b 181 633 146 674 161 652 b 249 588 200 614 223 599 b 333 571 275 576 303 571 b 418 588 364 571 392 576 b 486 633 444 599 467 614 b 532 700 506 652 521 674 b 549 785 543 726 549 754 z m 460 785 b 423 695 460 750 447 720 b 333 658 398 671 369 658 b 244 695 298 658 268 671 b 207 785 219 720 207 750 b 217 835 207 802 210 819 b 244 876 223 850 232 864 b 284 903 255 887 269 896 b 333 913 299 909 316 913 b 383 903 351 913 367 909 b 423 876 398 896 411 887 b 450 835 434 864 444 850 b 460 785 456 819 460 802 z "},"±":{"ha":925,"x_min":0,"x_max":0,"o":"m 97 582 l 97 469 l 407 469 l 407 265 l 519 265 l 519 469 l 828 469 l 828 582 l 519 582 l 519 790 l 407 790 l 407 582 z m 97 168 l 97 56 l 828 56 l 828 168 z "},"²":{"ha":535,"x_min":0,"x_max":0,"o":"m 478 490 l 214 490 l 394 635 b 453 685 417 653 436 670 b 496 732 471 701 485 716 b 521 782 507 748 515 764 b 529 842 526 800 529 819 b 482 954 529 889 513 926 b 351 996 450 982 407 996 b 229 958 306 996 265 983 b 149 846 193 932 166 895 l 242 819 b 281 885 251 847 264 869 b 346 910 297 902 319 910 b 409 891 373 910 394 903 b 432 836 424 878 432 860 b 412 776 432 816 425 796 b 346 707 398 756 376 733 l 88 493 l 71 397 l 460 397 z "},"³":{"ha":535,"x_min":0,"x_max":0,"o":"m 274 747 l 274 747 l 243 747 l 228 665 l 258 665 b 342 644 291 665 319 658 b 378 575 366 631 378 607 b 350 506 378 546 369 523 b 269 479 331 488 305 479 b 208 497 245 479 225 485 b 171 551 191 508 178 526 l 72 521 b 143 424 86 480 110 448 b 268 389 176 401 218 389 b 351 401 298 389 325 393 b 419 439 377 410 400 422 b 464 500 438 456 453 476 b 481 585 475 524 481 552 b 456 660 481 613 472 638 b 389 706 439 682 417 697 b 469 753 419 713 446 729 b 504 849 493 777 504 809 b 460 958 504 892 489 928 b 338 1001 430 987 389 1001 b 229 976 298 1001 262 993 b 149 894 197 959 170 931 l 226 847 b 269 899 239 871 254 888 b 329 914 285 909 305 914 b 383 897 350 914 368 908 b 404 846 397 885 404 868 b 274 747 404 780 361 747 z "},"Ž":{"ha":806,"x_min":0,"x_max":0,"o":"m 835 864 l 857 983 l 171 983 l 150 864 l 660 864 l -25 119 l -46 0 l 693 0 l 714 121 l 154 121 z m 592 1061 l 782 1261 l 657 1261 l 526 1124 l 446 1261 l 325 1261 l 444 1061 z "},"µ":{"ha":803,"x_min":0,"x_max":0,"o":"m 504 0 l 628 0 b 632 35 629 11 630 23 b 638 74 634 48 636 61 b 645 111 641 87 643 99 b 651 142 647 123 650 133 l 761 658 l 631 658 l 557 308 b 475 151 543 243 516 190 b 335 92 434 111 388 92 b 243 125 290 92 260 103 b 218 211 226 147 218 176 b 220 251 218 224 219 238 b 228 294 222 265 224 280 l 304 658 l 174 658 l -37 -333 l 93 -333 l 169 24 b 213 -7 179 11 193 0 b 276 -18 232 -14 253 -18 b 348 -8 300 -18 324 -15 b 415 19 372 -2 394 7 b 474 59 437 30 456 44 b 518 108 491 74 506 91 l 521 108 b 512 56 518 94 515 77 b 504 0 509 35 506 17 z "},"¶":{"ha":833,"x_min":0,"x_max":0,"o":"m 621 -175 l 825 983 l 474 983 b 303 955 407 983 350 974 b 188 881 256 936 217 911 b 122 778 158 850 136 816 b 101 665 108 740 101 702 b 119 581 101 635 107 606 b 169 514 130 555 147 532 b 249 470 191 495 217 481 b 354 454 280 459 315 454 l 243 -175 l 351 -175 l 540 896 l 701 896 l 513 -175 z "},"·":{"ha":361,"x_min":0,"x_max":0,"o":"m 274 425 b 249 488 274 452 266 473 b 189 511 233 503 213 511 b 125 485 165 511 144 503 b 97 419 106 468 97 446 b 123 356 97 393 106 372 b 185 333 140 341 161 333 b 248 361 210 333 231 343 b 274 425 265 380 274 401 z "},"ž":{"ha":640,"x_min":0,"x_max":0,"o":"m 607 553 l 625 658 l 110 658 l 90 553 l 443 553 l -11 106 l -29 0 l 521 0 l 539 108 l 151 108 z m 453 783 l 643 983 l 518 983 l 388 846 l 307 983 l 186 983 l 306 783 z "},"¹":{"ha":535,"x_min":0,"x_max":0,"o":"m 336 392 l 440 983 l 349 983 l 151 843 l 201 772 l 311 854 l 229 392 z "},"º":{"ha":528,"x_min":0,"x_max":0,"o":"m 542 832 b 489 955 542 883 524 924 b 354 1001 454 986 409 1001 b 261 983 321 1001 290 995 b 186 933 232 971 207 954 b 136 856 165 911 148 885 b 118 760 124 826 118 794 b 169 639 118 712 135 671 b 306 590 203 606 248 590 b 399 608 339 590 370 596 b 474 658 427 620 452 637 b 524 735 495 680 512 705 b 542 832 536 764 542 797 z m 446 822 b 436 765 446 802 443 783 b 408 717 430 747 420 731 b 365 683 396 703 382 692 b 311 671 349 675 331 671 b 240 699 281 671 257 680 b 214 771 222 718 214 742 b 224 828 214 791 217 810 b 251 876 230 847 239 863 b 294 910 263 890 278 901 b 347 922 310 918 328 922 b 420 894 379 922 403 913 b 446 822 437 875 446 851 z "},"»":{"ha":704,"x_min":0,"x_max":0,"o":"m 388 585 l 506 344 l 300 99 l 375 35 l 631 336 l 478 639 z m 108 585 l 226 344 l 21 99 l 96 35 l 353 336 l 200 639 z "},"Œ":{"ha":1372,"x_min":0,"x_max":0,"o":"m 1367 865 l 1388 983 l 674 983 b 435 942 588 983 508 970 b 244 826 362 915 298 876 b 119 646 191 776 149 716 b 74 411 89 575 74 497 b 114 222 74 337 87 274 b 219 95 141 170 176 128 b 367 23 263 62 312 38 b 532 0 421 8 476 0 l 1253 0 l 1274 121 l 781 121 l 840 453 l 1272 453 l 1293 567 l 860 567 l 913 865 z m 667 867 l 781 867 l 649 118 l 564 118 b 408 143 504 118 452 126 b 299 210 364 160 327 182 b 235 310 270 239 249 272 b 215 431 222 348 215 388 b 244 592 215 486 225 540 b 331 732 264 645 293 691 b 472 830 369 773 416 805 b 667 867 528 854 593 867 z "},"œ":{"ha":1349,"x_min":0,"x_max":0,"o":"m 1264 415 b 1190 608 1264 498 1239 562 b 989 676 1140 653 1073 676 b 823 636 930 676 874 663 b 700 526 772 609 731 573 b 601 637 679 574 646 610 b 439 676 557 663 503 676 b 278 644 381 676 327 666 b 153 555 230 622 188 592 b 71 425 118 517 90 474 b 42 268 51 376 42 324 b 65 151 42 225 49 187 b 128 61 80 116 101 86 b 226 3 156 36 188 17 b 351 -18 264 -11 306 -18 b 528 23 421 -18 480 -4 b 646 129 577 50 616 86 b 745 22 668 85 701 49 b 910 -18 789 -5 844 -18 b 1207 118 1028 -18 1127 27 l 1131 189 b 1044 117 1106 160 1078 136 b 922 88 1010 97 969 88 b 847 101 895 88 870 92 b 785 139 823 111 803 123 b 745 196 768 155 755 174 b 731 268 735 218 731 242 l 731 279 b 733 292 731 283 731 287 l 1249 292 b 1260 360 1254 313 1258 336 b 1264 415 1263 384 1264 402 z m 1143 425 l 1143 426 b 1142 405 1143 419 1143 412 b 1140 383 1142 398 1141 391 l 746 383 b 774 454 751 407 761 431 b 824 516 788 477 804 498 b 894 560 844 534 867 549 b 981 576 920 571 949 576 b 1101 533 1033 576 1074 562 b 1143 425 1129 505 1143 469 z m 618 379 b 599 268 618 340 612 303 b 545 176 586 233 568 202 b 463 113 522 149 495 128 b 360 89 431 97 397 89 b 281 103 330 89 304 94 b 222 144 257 113 238 127 b 185 204 205 161 193 181 b 172 281 176 227 172 253 b 192 392 172 319 179 356 b 245 484 205 427 222 458 b 326 547 268 510 295 531 b 429 571 358 563 392 571 b 508 556 459 571 485 566 b 567 516 531 547 551 533 b 605 455 584 499 596 478 b 618 379 614 431 618 406 z "},"Ÿ":{"ha":778,"x_min":0,"x_max":0,"o":"m 372 0 l 447 425 l 925 983 l 758 983 l 399 536 l 218 983 l 64 983 l 311 425 l 236 0 z m 728 1176 b 706 1235 728 1201 720 1221 b 650 1257 691 1250 672 1257 b 590 1233 627 1257 607 1249 b 565 1172 574 1218 565 1197 b 589 1114 565 1147 573 1128 b 646 1093 605 1100 624 1093 b 705 1117 670 1093 690 1101 b 728 1176 720 1134 728 1153 z m 453 1176 b 431 1235 453 1201 445 1221 b 375 1257 416 1250 397 1257 b 316 1233 353 1257 333 1249 b 290 1172 299 1218 290 1197 b 314 1114 290 1147 298 1128 b 372 1093 330 1100 349 1093 b 430 1117 395 1093 415 1101 b 453 1176 445 1134 453 1153 z "},"¿":{"ha":694,"x_min":0,"x_max":0,"o":"m 281 399 l 275 354 b 260 295 271 331 266 311 b 234 250 253 279 245 264 b 194 210 223 236 210 223 b 139 168 179 197 160 183 b 10 51 84 130 41 91 b -36 -93 -21 12 -36 -37 b -15 -200 -36 -135 -29 -170 b 41 -272 -1 -230 17 -254 b 123 -313 65 -291 92 -304 b 222 -326 154 -322 187 -326 b 336 -308 263 -326 301 -320 b 430 -256 371 -295 403 -278 b 499 -176 457 -233 480 -207 b 540 -76 518 -146 532 -112 l 417 -56 b 356 -164 407 -97 387 -133 b 233 -210 324 -194 283 -210 b 135 -177 192 -210 159 -199 b 100 -85 112 -155 100 -125 b 130 10 100 -46 110 -14 b 201 78 150 34 174 56 l 260 124 b 310 166 278 138 295 152 b 351 212 326 180 339 196 b 380 265 362 228 372 246 b 397 331 388 285 394 306 l 408 399 z m 275 593 b 299 529 275 566 283 545 b 360 506 316 513 336 506 b 424 531 384 506 405 514 b 451 597 442 548 451 570 b 426 662 451 625 443 647 b 364 685 409 677 388 685 b 301 657 339 685 318 675 b 275 593 284 638 275 617 z "},"À":{"ha":946,"x_min":0,"x_max":0,"o":"m 65 0 l 215 242 l 676 242 l 724 0 l 867 0 l 667 983 l 543 983 l -94 0 z m 286 363 l 574 829 l 657 363 z m 374 1261 l 564 1061 l 665 1061 l 526 1261 z "},"Á":{"ha":946,"x_min":0,"x_max":0,"o":"m 65 0 l 215 242 l 676 242 l 724 0 l 867 0 l 667 983 l 543 983 l -94 0 z m 286 363 l 574 829 l 657 363 z m 653 1061 l 878 1261 l 724 1261 l 550 1061 z "},"Â":{"ha":946,"x_min":0,"x_max":0,"o":"m 65 0 l 215 242 l 676 242 l 724 0 l 867 0 l 667 983 l 543 983 l -94 0 z m 286 363 l 574 829 l 657 363 z m 846 1061 l 726 1261 l 579 1261 l 388 1061 l 514 1061 l 644 1199 l 726 1061 z "},"Ã":{"ha":946,"x_min":0,"x_max":0,"o":"m 65 0 l 215 242 l 676 242 l 724 0 l 867 0 l 667 983 l 543 983 l -94 0 z m 286 363 l 574 829 l 657 363 z m 376 1072 l 453 1072 b 482 1117 460 1088 470 1103 b 531 1138 494 1131 510 1138 b 574 1128 544 1138 559 1134 b 621 1107 590 1122 605 1115 b 668 1088 637 1100 652 1093 b 717 1079 684 1082 700 1079 b 778 1093 740 1079 760 1084 b 826 1129 797 1102 813 1114 b 862 1180 840 1144 852 1161 b 888 1239 872 1199 880 1219 l 811 1239 b 782 1194 804 1223 794 1208 b 735 1174 770 1181 754 1174 b 693 1183 722 1174 708 1177 b 647 1203 678 1189 663 1195 b 599 1224 631 1211 616 1218 b 547 1232 583 1229 566 1232 b 484 1218 523 1232 502 1227 b 437 1182 466 1209 450 1197 b 401 1131 423 1167 412 1150 b 376 1072 391 1112 383 1093 z "},"Ä":{"ha":946,"x_min":0,"x_max":0,"o":"m 65 0 l 215 242 l 676 242 l 724 0 l 867 0 l 667 983 l 543 983 l -94 0 z m 286 363 l 574 829 l 657 363 z m 856 1176 b 833 1235 856 1201 848 1221 b 778 1257 819 1250 800 1257 b 718 1233 755 1257 735 1249 b 693 1172 701 1218 693 1197 b 717 1114 693 1147 701 1128 b 774 1093 732 1100 751 1093 b 833 1117 798 1093 817 1101 b 856 1176 848 1134 856 1153 z m 581 1176 b 558 1235 581 1201 573 1221 b 503 1257 544 1250 525 1257 b 444 1233 481 1257 461 1249 b 418 1172 427 1218 418 1197 b 442 1114 418 1147 426 1128 b 500 1093 457 1100 477 1093 b 558 1117 523 1093 542 1101 b 581 1176 573 1134 581 1153 z "},"Å":{"ha":946,"x_min":0,"x_max":0,"o":"m 65 0 l 215 242 l 676 242 l 724 0 l 867 0 l 667 983 l 543 983 l -94 0 z m 286 363 l 574 829 l 657 363 z m 618 1046 b 729 1092 663 1046 700 1061 b 772 1207 758 1123 772 1162 b 739 1289 772 1240 761 1268 b 651 1321 717 1310 688 1321 b 590 1308 629 1321 609 1317 b 540 1274 571 1300 554 1288 b 508 1223 526 1259 516 1242 b 497 1161 501 1204 497 1183 b 531 1079 497 1129 509 1101 b 618 1046 554 1057 583 1046 z m 715 1199 b 689 1128 715 1171 706 1147 b 622 1099 671 1108 649 1099 b 573 1119 601 1099 584 1105 b 556 1168 561 1132 556 1149 b 581 1240 556 1197 564 1221 b 647 1269 598 1260 620 1269 b 697 1249 669 1269 685 1263 b 715 1199 709 1235 715 1218 z "},"Æ":{"ha":1397,"x_min":0,"x_max":0,"o":"m 653 0 l 1276 0 l 1297 121 l 806 121 l 865 451 l 1297 451 l 1318 567 l 885 567 l 938 864 l 1392 864 l 1413 983 l 739 983 l -51 0 l 108 0 l 321 268 l 700 268 z m 719 382 l 407 382 l 789 864 l 806 864 z "},"Ç":{"ha":972,"x_min":0,"x_max":0,"o":"m 906 154 l 814 231 b 682 126 775 183 731 149 b 526 93 633 104 581 93 b 393 118 476 93 432 101 b 295 187 354 135 322 158 b 235 289 269 216 249 250 b 215 414 222 328 215 369 b 247 590 215 474 226 533 b 338 743 269 648 299 699 b 476 851 376 788 423 823 b 653 892 530 878 589 892 b 733 881 682 892 709 888 b 798 853 757 874 779 865 b 846 815 817 842 833 829 b 876 774 859 801 869 788 l 989 856 b 933 918 975 879 956 900 b 856 966 910 937 884 953 b 762 997 827 979 796 990 b 657 1008 728 1005 693 1008 b 428 960 575 1008 499 992 b 243 830 358 928 296 885 b 119 636 190 775 149 710 b 74 397 89 562 74 482 b 102 234 74 338 83 284 b 182 105 121 184 148 141 b 306 17 216 68 258 39 b 468 -22 355 -4 409 -18 l 378 -131 l 401 -158 b 431 -151 411 -156 420 -153 b 460 -149 441 -150 450 -149 b 506 -160 477 -149 493 -152 b 526 -200 520 -167 526 -181 b 517 -230 526 -212 523 -222 b 494 -248 511 -238 504 -244 b 465 -257 485 -252 475 -255 b 436 -260 455 -259 445 -260 b 381 -253 418 -260 399 -258 b 331 -236 363 -249 346 -244 l 297 -294 b 365 -318 316 -305 338 -312 b 442 -326 392 -324 418 -326 b 503 -319 461 -326 481 -324 b 562 -297 524 -315 544 -307 b 607 -256 580 -287 595 -273 b 625 -192 619 -238 625 -217 b 614 -145 625 -173 621 -158 b 586 -115 606 -133 597 -122 b 549 -98 575 -107 563 -101 b 511 -93 536 -95 523 -93 b 494 -94 506 -93 500 -93 b 475 -97 489 -94 482 -95 l 536 -24 b 757 32 622 -21 696 -2 b 906 154 818 66 868 107 z "},"È":{"ha":808,"x_min":0,"x_max":0,"o":"m 200 121 l 258 451 l 708 451 l 729 567 l 279 567 l 331 864 l 803 864 l 824 983 l 218 983 l 44 0 l 689 0 l 710 121 z m 338 1261 l 528 1061 l 629 1061 l 490 1261 z "},"É":{"ha":808,"x_min":0,"x_max":0,"o":"m 200 121 l 258 451 l 708 451 l 729 567 l 279 567 l 331 864 l 803 864 l 824 983 l 218 983 l 44 0 l 689 0 l 710 121 z m 535 1061 l 760 1261 l 606 1261 l 432 1061 z "},"Ê":{"ha":808,"x_min":0,"x_max":0,"o":"m 200 121 l 258 451 l 708 451 l 729 567 l 279 567 l 331 864 l 803 864 l 824 983 l 218 983 l 44 0 l 689 0 l 710 121 z m 758 1061 l 639 1261 l 492 1261 l 300 1061 l 426 1061 l 557 1199 l 639 1061 z "},"Ë":{"ha":808,"x_min":0,"x_max":0,"o":"m 200 121 l 258 451 l 708 451 l 729 567 l 279 567 l 331 864 l 803 864 l 824 983 l 218 983 l 44 0 l 689 0 l 710 121 z m 767 1176 b 744 1235 767 1201 759 1221 b 689 1257 730 1250 711 1257 b 629 1233 666 1257 646 1249 b 604 1172 613 1218 604 1197 b 628 1114 604 1147 612 1128 b 685 1093 644 1100 663 1093 b 744 1117 709 1093 728 1101 b 767 1176 759 1134 767 1153 z m 492 1176 b 469 1235 492 1201 484 1221 b 414 1257 455 1250 436 1257 b 355 1233 392 1257 372 1249 b 329 1172 338 1218 329 1197 b 353 1114 329 1147 337 1128 b 411 1093 369 1100 388 1093 b 469 1117 434 1093 453 1101 b 492 1176 484 1134 492 1153 z "},"Ì":{"ha":376,"x_min":0,"x_max":0,"o":"m 181 0 l 354 983 l 218 983 l 44 0 z m 63 1261 l 253 1061 l 354 1061 l 215 1261 z "},"Í":{"ha":376,"x_min":0,"x_max":0,"o":"m 181 0 l 354 983 l 218 983 l 44 0 z m 331 1061 l 556 1261 l 401 1261 l 228 1061 z "},"Î":{"ha":376,"x_min":0,"x_max":0,"o":"m 181 0 l 354 983 l 218 983 l 44 0 z m 524 1061 l 404 1261 l 257 1261 l 65 1061 l 192 1061 l 322 1199 l 404 1061 z "},"Ï":{"ha":376,"x_min":0,"x_max":0,"o":"m 181 0 l 354 983 l 218 983 l 44 0 z m 531 1176 b 508 1235 531 1201 523 1221 b 453 1257 494 1250 475 1257 b 393 1233 430 1257 410 1249 b 368 1172 376 1218 368 1197 b 392 1114 368 1147 376 1128 b 449 1093 407 1100 426 1093 b 508 1117 473 1093 492 1101 b 531 1176 523 1134 531 1153 z m 256 1176 b 233 1235 256 1201 248 1221 b 178 1257 219 1250 200 1257 b 119 1233 156 1257 136 1249 b 93 1172 102 1218 93 1197 b 117 1114 93 1147 101 1128 b 175 1093 132 1100 152 1093 b 233 1117 198 1093 217 1101 b 256 1176 248 1134 256 1153 z "},"Ð":{"ha":1051,"x_min":0,"x_max":0,"o":"m 218 983 l 144 563 l 53 563 l 35 467 l 126 467 l 44 0 l 394 0 b 633 41 481 0 560 14 b 824 157 706 68 770 107 b 949 338 877 207 919 267 b 994 572 979 408 994 486 b 954 760 994 645 981 708 b 849 888 927 813 892 855 b 701 960 805 921 756 945 b 536 983 647 976 592 983 z m 200 119 l 261 467 l 578 467 l 597 563 l 278 563 l 332 867 l 503 867 b 659 842 563 867 615 858 b 767 774 703 825 739 803 b 831 676 796 746 817 713 b 851 556 844 638 851 598 b 823 394 851 500 842 446 b 738 254 804 341 775 295 b 597 156 700 213 653 181 b 401 119 541 132 475 119 z "},"Ñ":{"ha":1067,"x_min":0,"x_max":0,"o":"m 751 192 l 392 983 l 218 983 l 44 0 l 179 0 l 322 808 l 325 808 l 686 0 l 856 0 l 1029 983 l 893 983 l 754 192 z m 394 1072 l 471 1072 b 500 1117 478 1088 488 1103 b 549 1138 512 1131 528 1138 b 592 1128 563 1138 577 1134 b 639 1107 608 1122 623 1115 b 686 1088 655 1100 670 1093 b 735 1079 702 1082 718 1079 b 797 1093 758 1079 778 1084 b 844 1129 815 1102 831 1114 b 880 1180 858 1144 870 1161 b 906 1239 890 1199 898 1219 l 829 1239 b 800 1194 822 1223 812 1208 b 753 1174 788 1181 772 1174 b 711 1183 740 1174 726 1177 b 665 1203 696 1189 681 1195 b 617 1224 650 1211 634 1218 b 565 1232 601 1229 584 1232 b 502 1218 541 1232 520 1227 b 455 1182 484 1209 468 1197 b 419 1131 441 1167 430 1150 b 394 1072 409 1112 401 1093 z "},"Ò":{"ha":1154,"x_min":0,"x_max":0,"o":"m 529 -25 b 756 23 611 -25 686 -9 b 936 153 825 55 885 98 b 1055 347 987 209 1027 273 b 1097 585 1083 421 1097 500 b 1065 760 1097 650 1086 708 b 972 893 1043 812 1012 856 b 829 978 932 930 885 959 b 646 1008 774 998 713 1008 b 419 960 564 1008 489 992 b 238 830 350 928 290 885 b 117 637 187 775 147 710 b 74 400 88 563 74 484 b 106 224 74 335 84 277 b 199 90 128 172 159 127 b 342 5 238 53 286 25 b 529 -25 398 -15 461 -25 z m 956 572 b 926 394 956 511 946 452 b 841 241 906 337 878 286 b 708 133 804 196 760 160 b 532 93 655 106 597 93 b 395 118 480 93 434 101 b 297 187 356 135 323 158 b 236 289 270 216 250 250 b 215 413 222 328 215 369 b 245 589 215 473 225 531 b 331 742 265 646 294 697 b 465 851 368 787 412 823 b 639 892 517 878 575 892 b 774 867 690 892 735 883 b 874 798 814 850 847 827 b 935 697 900 769 921 735 b 956 572 949 658 956 617 z m 454 1261 l 644 1061 l 746 1061 l 607 1261 z "},"Ó":{"ha":1154,"x_min":0,"x_max":0,"o":"m 529 -25 b 756 23 611 -25 686 -9 b 936 153 825 55 885 98 b 1055 347 987 209 1027 273 b 1097 585 1083 421 1097 500 b 1065 760 1097 650 1086 708 b 972 893 1043 812 1012 856 b 829 978 932 930 885 959 b 646 1008 774 998 713 1008 b 419 960 564 1008 489 992 b 238 830 350 928 290 885 b 117 637 187 775 147 710 b 74 400 88 563 74 484 b 106 224 74 335 84 277 b 199 90 128 172 159 127 b 342 5 238 53 286 25 b 529 -25 398 -15 461 -25 z m 956 572 b 926 394 956 511 946 452 b 841 241 906 337 878 286 b 708 133 804 196 760 160 b 532 93 655 106 597 93 b 395 118 480 93 434 101 b 297 187 356 135 323 158 b 236 289 270 216 250 250 b 215 413 222 328 215 369 b 245 589 215 473 225 531 b 331 742 265 646 294 697 b 465 851 368 787 412 823 b 639 892 517 878 575 892 b 774 867 690 892 735 883 b 874 798 814 850 847 827 b 935 697 900 769 921 735 b 956 572 949 658 956 617 z m 685 1061 l 910 1261 l 756 1261 l 582 1061 z "},"Ô":{"ha":1154,"x_min":0,"x_max":0,"o":"m 529 -25 b 756 23 611 -25 686 -9 b 936 153 825 55 885 98 b 1055 347 987 209 1027 273 b 1097 585 1083 421 1097 500 b 1065 760 1097 650 1086 708 b 972 893 1043 812 1012 856 b 829 978 932 930 885 959 b 646 1008 774 998 713 1008 b 419 960 564 1008 489 992 b 238 830 350 928 290 885 b 117 637 187 775 147 710 b 74 400 88 563 74 484 b 106 224 74 335 84 277 b 199 90 128 172 159 127 b 342 5 238 53 286 25 b 529 -25 398 -15 461 -25 z m 956 572 b 926 394 956 511 946 452 b 841 241 906 337 878 286 b 708 133 804 196 760 160 b 532 93 655 106 597 93 b 395 118 480 93 434 101 b 297 187 356 135 323 158 b 236 289 270 216 250 250 b 215 413 222 328 215 369 b 245 589 215 473 225 531 b 331 742 265 646 294 697 b 465 851 368 787 412 823 b 639 892 517 878 575 892 b 774 867 690 892 735 883 b 874 798 814 850 847 827 b 935 697 900 769 921 735 b 956 572 949 658 956 617 z m 921 1061 l 801 1261 l 654 1261 l 463 1061 l 589 1061 l 719 1199 l 801 1061 z "},"Õ":{"ha":1154,"x_min":0,"x_max":0,"o":"m 529 -25 b 756 23 611 -25 686 -9 b 936 153 825 55 885 98 b 1055 347 987 209 1027 273 b 1097 585 1083 421 1097 500 b 1065 760 1097 650 1086 708 b 972 893 1043 812 1012 856 b 829 978 932 930 885 959 b 646 1008 774 998 713 1008 b 419 960 564 1008 489 992 b 238 830 350 928 290 885 b 117 637 187 775 147 710 b 74 400 88 563 74 484 b 106 224 74 335 84 277 b 199 90 128 172 159 127 b 342 5 238 53 286 25 b 529 -25 398 -15 461 -25 z m 956 572 b 926 394 956 511 946 452 b 841 241 906 337 878 286 b 708 133 804 196 760 160 b 532 93 655 106 597 93 b 395 118 480 93 434 101 b 297 187 356 135 323 158 b 236 289 270 216 250 250 b 215 413 222 328 215 369 b 245 589 215 473 225 531 b 331 742 265 646 294 697 b 465 851 368 787 412 823 b 639 892 517 878 575 892 b 774 867 690 892 735 883 b 874 798 814 850 847 827 b 935 697 900 769 921 735 b 956 572 949 658 956 617 z m 438 1072 l 514 1072 b 543 1117 521 1088 531 1103 b 592 1138 555 1131 571 1138 b 635 1128 606 1138 620 1134 b 682 1107 651 1122 666 1115 b 729 1088 698 1100 713 1093 b 778 1079 745 1082 761 1079 b 840 1093 801 1079 822 1084 b 888 1129 858 1102 874 1114 b 923 1180 901 1144 913 1161 b 949 1239 933 1199 941 1219 l 872 1239 b 843 1194 865 1223 855 1208 b 796 1174 831 1181 815 1174 b 754 1183 783 1174 769 1177 b 708 1203 739 1189 724 1195 b 660 1224 693 1211 677 1218 b 608 1232 644 1229 627 1232 b 545 1218 584 1232 563 1227 b 498 1182 527 1209 511 1197 b 463 1131 484 1167 473 1150 b 438 1072 452 1112 444 1093 z "},"Ö":{"ha":1154,"x_min":0,"x_max":0,"o":"m 529 -25 b 756 23 611 -25 686 -9 b 936 153 825 55 885 98 b 1055 347 987 209 1027 273 b 1097 585 1083 421 1097 500 b 1065 760 1097 650 1086 708 b 972 893 1043 812 1012 856 b 829 978 932 930 885 959 b 646 1008 774 998 713 1008 b 419 960 564 1008 489 992 b 238 830 350 928 290 885 b 117 637 187 775 147 710 b 74 400 88 563 74 484 b 106 224 74 335 84 277 b 199 90 128 172 159 127 b 342 5 238 53 286 25 b 529 -25 398 -15 461 -25 z m 956 572 b 926 394 956 511 946 452 b 841 241 906 337 878 286 b 708 133 804 196 760 160 b 532 93 655 106 597 93 b 395 118 480 93 434 101 b 297 187 356 135 323 158 b 236 289 270 216 250 250 b 215 413 222 328 215 369 b 245 589 215 473 225 531 b 331 742 265 646 294 697 b 465 851 368 787 412 823 b 639 892 517 878 575 892 b 774 867 690 892 735 883 b 874 798 814 850 847 827 b 935 697 900 769 921 735 b 956 572 949 658 956 617 z m 918 1176 b 896 1235 918 1201 911 1221 b 840 1257 881 1250 863 1257 b 781 1233 817 1257 797 1249 b 756 1172 764 1218 756 1197 b 779 1114 756 1147 763 1128 b 836 1093 795 1100 814 1093 b 895 1117 860 1093 880 1101 b 918 1176 910 1134 918 1153 z m 643 1176 b 621 1235 643 1201 636 1221 b 565 1257 606 1250 588 1257 b 506 1233 543 1257 523 1249 b 481 1172 489 1218 481 1197 b 504 1114 481 1147 488 1128 b 563 1093 520 1100 539 1093 b 620 1117 586 1093 605 1101 b 643 1176 635 1134 643 1153 z "},"×":{"ha":925,"x_min":0,"x_max":0,"o":"m 463 500 l 225 738 l 146 660 l 383 418 l 144 182 l 225 101 l 461 338 l 699 101 l 781 182 l 542 422 l 778 660 l 699 738 z "},"Ø":{"ha":1154,"x_min":0,"x_max":0,"o":"m 1072 1024 l 953 911 b 815 983 913 943 867 967 b 646 1008 763 1000 707 1008 b 419 960 564 1008 489 992 b 238 830 350 928 290 885 b 117 637 187 775 147 710 b 74 400 88 563 74 484 b 92 263 74 350 80 304 b 147 149 105 221 123 183 l 13 21 l 67 -32 l 197 92 b 342 5 238 54 286 25 b 529 -25 398 -15 461 -25 b 756 23 611 -25 686 -9 b 936 153 825 55 885 98 b 1055 347 987 209 1027 273 b 1097 585 1083 421 1097 500 b 1074 737 1097 640 1089 691 b 1006 858 1058 783 1035 823 l 1122 969 z m 297 186 l 903 761 b 956 572 938 707 956 644 b 926 394 956 511 946 452 b 841 241 906 337 878 286 b 708 133 804 196 760 160 b 532 93 655 106 597 93 b 396 118 480 93 435 101 b 297 186 357 135 324 157 z m 854 817 l 254 249 b 225 326 241 273 231 299 b 215 413 219 354 215 383 b 245 589 215 473 225 531 b 331 742 265 646 294 697 b 465 851 368 787 412 823 b 639 892 517 878 575 892 b 761 872 684 892 725 885 b 854 817 797 859 828 841 z "},"Ù":{"ha":989,"x_min":0,"x_max":0,"o":"m 440 -25 b 616 8 508 -25 566 -14 b 741 94 666 29 707 58 b 822 219 775 131 802 172 b 865 364 841 266 856 314 l 974 983 l 838 983 l 731 372 b 702 269 724 337 715 303 b 650 180 690 236 672 206 b 567 117 628 153 600 132 b 444 93 533 101 493 93 b 346 110 406 93 373 99 b 280 155 319 121 297 136 b 243 220 263 174 250 196 b 232 299 236 245 232 271 b 239 372 232 322 234 346 l 347 983 l 211 983 l 103 364 b 94 278 97 334 94 306 b 116 160 94 236 102 197 b 181 64 130 124 152 92 b 288 -1 209 36 245 14 b 440 -25 331 -17 382 -25 z m 368 1261 l 558 1061 l 660 1061 l 521 1261 z "},"Ú":{"ha":989,"x_min":0,"x_max":0,"o":"m 440 -25 b 616 8 508 -25 566 -14 b 741 94 666 29 707 58 b 822 219 775 131 802 172 b 865 364 841 266 856 314 l 974 983 l 838 983 l 731 372 b 702 269 724 337 715 303 b 650 180 690 236 672 206 b 567 117 628 153 600 132 b 444 93 533 101 493 93 b 346 110 406 93 373 99 b 280 155 319 121 297 136 b 243 220 263 174 250 196 b 232 299 236 245 232 271 b 239 372 232 322 234 346 l 347 983 l 211 983 l 103 364 b 94 278 97 334 94 306 b 116 160 94 236 102 197 b 181 64 130 124 152 92 b 288 -1 209 36 245 14 b 440 -25 331 -17 382 -25 z m 615 1061 l 840 1261 l 686 1261 l 513 1061 z "},"Û":{"ha":989,"x_min":0,"x_max":0,"o":"m 440 -25 b 616 8 508 -25 566 -14 b 741 94 666 29 707 58 b 822 219 775 131 802 172 b 865 364 841 266 856 314 l 974 983 l 838 983 l 731 372 b 702 269 724 337 715 303 b 650 180 690 236 672 206 b 567 117 628 153 600 132 b 444 93 533 101 493 93 b 346 110 406 93 373 99 b 280 155 319 121 297 136 b 243 220 263 174 250 196 b 232 299 236 245 232 271 b 239 372 232 322 234 346 l 347 983 l 211 983 l 103 364 b 94 278 97 334 94 306 b 116 160 94 236 102 197 b 181 64 130 124 152 92 b 288 -1 209 36 245 14 b 440 -25 331 -17 382 -25 z m 835 1061 l 715 1261 l 568 1261 l 376 1061 l 503 1061 l 633 1199 l 715 1061 z "},"Ü":{"ha":989,"x_min":0,"x_max":0,"o":"m 440 -25 b 616 8 508 -25 566 -14 b 741 94 666 29 707 58 b 822 219 775 131 802 172 b 865 364 841 266 856 314 l 974 983 l 838 983 l 731 372 b 702 269 724 337 715 303 b 650 180 690 236 672 206 b 567 117 628 153 600 132 b 444 93 533 101 493 93 b 346 110 406 93 373 99 b 280 155 319 121 297 136 b 243 220 263 174 250 196 b 232 299 236 245 232 271 b 239 372 232 322 234 346 l 347 983 l 211 983 l 103 364 b 94 278 97 334 94 306 b 116 160 94 236 102 197 b 181 64 130 124 152 92 b 288 -1 209 36 245 14 b 440 -25 331 -17 382 -25 z m 839 1176 b 817 1235 839 1201 831 1221 b 761 1257 802 1250 783 1257 b 701 1233 738 1257 718 1249 b 676 1172 685 1218 676 1197 b 700 1114 676 1147 684 1128 b 757 1093 716 1100 735 1093 b 816 1117 781 1093 801 1101 b 839 1176 831 1134 839 1153 z m 564 1176 b 542 1235 564 1201 556 1221 b 486 1257 527 1250 508 1257 b 427 1233 464 1257 444 1249 b 401 1172 410 1218 401 1197 b 425 1114 401 1147 409 1128 b 483 1093 441 1100 460 1093 b 541 1117 506 1093 526 1101 b 564 1176 556 1134 564 1153 z "},"Ý":{"ha":778,"x_min":0,"x_max":0,"o":"m 372 0 l 447 425 l 925 983 l 758 983 l 399 536 l 218 983 l 64 983 l 311 425 l 236 0 z m 538 1061 l 763 1261 l 608 1261 l 435 1061 z "},"Þ":{"ha":826,"x_min":0,"x_max":0,"o":"m 181 0 l 221 229 l 389 229 b 549 248 447 229 500 235 b 673 305 597 260 638 279 b 753 400 708 330 734 362 b 782 533 772 438 782 482 b 699 715 782 611 754 672 b 464 781 644 759 566 781 l 318 781 l 354 983 l 219 983 l 46 0 z m 240 343 l 299 665 l 446 665 b 592 633 507 665 556 654 b 646 518 628 611 646 573 b 580 387 646 460 624 416 b 396 343 536 358 475 343 z "},"ß":{"ha":847,"x_min":0,"x_max":0,"o":"m 163 0 l 292 725 b 310 803 295 750 302 776 b 347 876 319 830 331 854 b 408 931 363 899 383 917 b 501 953 433 946 464 953 b 606 915 546 953 581 940 b 644 817 632 890 644 857 b 628 740 644 787 639 761 b 583 685 617 718 602 700 b 520 653 565 671 544 660 b 447 643 497 647 472 643 l 432 643 l 411 531 l 426 531 b 509 517 456 531 484 526 b 575 479 534 509 556 496 b 619 419 594 463 608 443 b 635 343 629 396 635 371 b 613 231 635 300 628 262 b 556 153 599 199 580 173 b 473 108 531 132 504 117 b 375 93 442 98 409 93 b 332 96 363 93 349 94 b 292 103 315 98 302 100 l 272 -6 b 326 -14 288 -9 306 -12 b 379 -17 346 -16 363 -17 b 535 10 436 -17 488 -8 b 659 83 583 27 624 52 b 740 197 694 115 721 153 b 768 346 759 242 768 291 b 755 432 768 376 764 405 b 717 504 746 459 734 483 b 658 559 701 525 681 544 b 581 592 635 574 609 585 l 581 594 b 719 676 636 608 682 635 b 775 831 756 716 775 768 b 755 928 775 867 768 899 b 699 1002 741 956 723 981 b 615 1050 676 1023 647 1039 b 507 1067 582 1061 546 1067 b 361 1038 450 1067 401 1057 b 261 961 321 1018 288 993 b 198 853 234 930 213 894 b 164 731 183 813 171 772 l 35 0 z "},"à":{"ha":746,"x_min":0,"x_max":0,"o":"m 514 411 b 340 402 456 411 399 408 b 183 366 282 396 229 384 b 68 290 136 348 98 322 b 24 160 38 257 24 213 b 43 76 24 126 30 99 b 92 23 56 54 72 36 b 158 -6 112 9 134 0 b 228 -14 182 -11 206 -14 b 358 11 278 -14 321 -6 b 461 92 395 28 430 55 l 464 92 b 458 44 461 76 459 60 b 456 0 456 29 456 14 l 574 0 b 578 69 574 19 575 41 b 589 149 581 96 584 123 l 638 415 b 642 449 639 425 641 436 b 643 482 643 463 643 474 b 622 572 643 517 636 547 b 567 633 608 597 590 617 b 490 666 545 648 519 659 b 399 676 460 673 430 676 b 254 652 350 676 301 668 b 131 586 207 636 166 614 l 183 500 b 275 551 209 520 240 538 b 381 572 310 565 345 572 b 483 547 425 572 459 564 b 519 463 507 529 519 501 b 518 442 519 456 519 449 b 514 411 517 434 516 424 z m 479 317 l 500 317 l 490 268 b 465 197 486 243 477 219 b 418 139 452 175 437 156 b 353 99 400 122 378 109 b 272 85 328 90 301 85 b 228 89 257 85 243 86 b 190 104 214 92 201 97 b 162 133 178 112 169 121 b 151 178 155 144 151 159 b 182 250 151 207 162 231 b 260 292 202 269 228 283 b 367 312 292 302 328 309 b 479 317 406 315 443 317 z m 199 983 l 389 783 l 490 783 l 351 983 z "},"á":{"ha":746,"x_min":0,"x_max":0,"o":"m 514 411 b 340 402 456 411 399 408 b 183 366 282 396 229 384 b 68 290 136 348 98 322 b 24 160 38 257 24 213 b 43 76 24 126 30 99 b 92 23 56 54 72 36 b 158 -6 112 9 134 0 b 228 -14 182 -11 206 -14 b 358 11 278 -14 321 -6 b 461 92 395 28 430 55 l 464 92 b 458 44 461 76 459 60 b 456 0 456 29 456 14 l 574 0 b 578 69 574 19 575 41 b 589 149 581 96 584 123 l 638 415 b 642 449 639 425 641 436 b 643 482 643 463 643 474 b 622 572 643 517 636 547 b 567 633 608 597 590 617 b 490 666 545 648 519 659 b 399 676 460 673 430 676 b 254 652 350 676 301 668 b 131 586 207 636 166 614 l 183 500 b 275 551 209 520 240 538 b 381 572 310 565 345 572 b 483 547 425 572 459 564 b 519 463 507 529 519 501 b 518 442 519 456 519 449 b 514 411 517 434 516 424 z m 479 317 l 500 317 l 490 268 b 465 197 486 243 477 219 b 418 139 452 175 437 156 b 353 99 400 122 378 109 b 272 85 328 90 301 85 b 228 89 257 85 243 86 b 190 104 214 92 201 97 b 162 133 178 112 169 121 b 151 178 155 144 151 159 b 182 250 151 207 162 231 b 260 292 202 269 228 283 b 367 312 292 302 328 309 b 479 317 406 315 443 317 z m 450 783 l 675 983 l 521 983 l 347 783 z "},"â":{"ha":746,"x_min":0,"x_max":0,"o":"m 514 411 b 340 402 456 411 399 408 b 183 366 282 396 229 384 b 68 290 136 348 98 322 b 24 160 38 257 24 213 b 43 76 24 126 30 99 b 92 23 56 54 72 36 b 158 -6 112 9 134 0 b 228 -14 182 -11 206 -14 b 358 11 278 -14 321 -6 b 461 92 395 28 430 55 l 464 92 b 458 44 461 76 459 60 b 456 0 456 29 456 14 l 574 0 b 578 69 574 19 575 41 b 589 149 581 96 584 123 l 638 415 b 642 449 639 425 641 436 b 643 482 643 463 643 474 b 622 572 643 517 636 547 b 567 633 608 597 590 617 b 490 666 545 648 519 659 b 399 676 460 673 430 676 b 254 652 350 676 301 668 b 131 586 207 636 166 614 l 183 500 b 275 551 209 520 240 538 b 381 572 310 565 345 572 b 483 547 425 572 459 564 b 519 463 507 529 519 501 b 518 442 519 456 519 449 b 514 411 517 434 516 424 z m 479 317 l 500 317 l 490 268 b 465 197 486 243 477 219 b 418 139 452 175 437 156 b 353 99 400 122 378 109 b 272 85 328 90 301 85 b 228 89 257 85 243 86 b 190 104 214 92 201 97 b 162 133 178 112 169 121 b 151 178 155 144 151 159 b 182 250 151 207 162 231 b 260 292 202 269 228 283 b 367 312 292 302 328 309 b 479 317 406 315 443 317 z m 663 783 l 543 983 l 396 983 l 204 783 l 331 783 l 461 921 l 543 783 z "},"ã":{"ha":746,"x_min":0,"x_max":0,"o":"m 514 411 b 340 402 456 411 399 408 b 183 366 282 396 229 384 b 68 290 136 348 98 322 b 24 160 38 257 24 213 b 43 76 24 126 30 99 b 92 23 56 54 72 36 b 158 -6 112 9 134 0 b 228 -14 182 -11 206 -14 b 358 11 278 -14 321 -6 b 461 92 395 28 430 55 l 464 92 b 458 44 461 76 459 60 b 456 0 456 29 456 14 l 574 0 b 578 69 574 19 575 41 b 589 149 581 96 584 123 l 638 415 b 642 449 639 425 641 436 b 643 482 643 463 643 474 b 622 572 643 517 636 547 b 567 633 608 597 590 617 b 490 666 545 648 519 659 b 399 676 460 673 430 676 b 254 652 350 676 301 668 b 131 586 207 636 166 614 l 183 500 b 275 551 209 520 240 538 b 381 572 310 565 345 572 b 483 547 425 572 459 564 b 519 463 507 529 519 501 b 518 442 519 456 519 449 b 514 411 517 434 516 424 z m 479 317 l 500 317 l 490 268 b 465 197 486 243 477 219 b 418 139 452 175 437 156 b 353 99 400 122 378 109 b 272 85 328 90 301 85 b 228 89 257 85 243 86 b 190 104 214 92 201 97 b 162 133 178 112 169 121 b 151 178 155 144 151 159 b 182 250 151 207 162 231 b 260 292 202 269 228 283 b 367 312 292 302 328 309 b 479 317 406 315 443 317 z m 183 794 l 260 794 b 289 839 267 810 277 825 b 338 860 301 853 317 860 b 381 851 351 860 366 857 b 428 829 397 845 412 838 b 475 810 444 822 459 815 b 524 801 491 804 507 801 b 585 815 547 801 567 806 b 633 851 603 825 619 837 b 669 902 647 866 659 883 b 694 961 678 921 687 941 l 618 961 b 589 917 611 945 601 931 b 542 896 577 903 561 896 b 500 905 529 896 515 899 b 454 925 485 911 470 918 b 406 946 438 933 422 940 b 354 954 390 951 373 954 b 291 940 330 954 309 950 b 244 904 273 931 257 919 b 208 853 230 889 219 872 b 183 794 198 834 190 815 z "},"ä":{"ha":746,"x_min":0,"x_max":0,"o":"m 514 411 b 340 402 456 411 399 408 b 183 366 282 396 229 384 b 68 290 136 348 98 322 b 24 160 38 257 24 213 b 43 76 24 126 30 99 b 92 23 56 54 72 36 b 158 -6 112 9 134 0 b 228 -14 182 -11 206 -14 b 358 11 278 -14 321 -6 b 461 92 395 28 430 55 l 464 92 b 458 44 461 76 459 60 b 456 0 456 29 456 14 l 574 0 b 578 69 574 19 575 41 b 589 149 581 96 584 123 l 638 415 b 642 449 639 425 641 436 b 643 482 643 463 643 474 b 622 572 643 517 636 547 b 567 633 608 597 590 617 b 490 666 545 648 519 659 b 399 676 460 673 430 676 b 254 652 350 676 301 668 b 131 586 207 636 166 614 l 183 500 b 275 551 209 520 240 538 b 381 572 310 565 345 572 b 483 547 425 572 459 564 b 519 463 507 529 519 501 b 518 442 519 456 519 449 b 514 411 517 434 516 424 z m 479 317 l 500 317 l 490 268 b 465 197 486 243 477 219 b 418 139 452 175 437 156 b 353 99 400 122 378 109 b 272 85 328 90 301 85 b 228 89 257 85 243 86 b 190 104 214 92 201 97 b 162 133 178 112 169 121 b 151 178 155 144 151 159 b 182 250 151 207 162 231 b 260 292 202 269 228 283 b 367 312 292 302 328 309 b 479 317 406 315 443 317 z m 386 899 b 364 958 386 924 379 943 b 308 979 349 972 331 979 b 249 956 286 979 266 971 b 224 894 232 940 224 919 b 247 836 224 869 231 850 b 306 815 263 822 282 815 b 363 840 329 815 348 823 b 386 899 378 856 386 875 z m 661 899 b 639 958 661 924 654 943 b 583 979 624 972 606 979 b 524 956 560 979 540 971 b 499 894 507 940 499 919 b 522 836 499 869 506 850 b 579 815 538 822 557 815 b 638 840 603 815 623 823 b 661 899 653 856 661 875 z "},"å":{"ha":746,"x_min":0,"x_max":0,"o":"m 514 411 b 340 402 456 411 399 408 b 183 366 282 396 229 384 b 68 290 136 348 98 322 b 24 160 38 257 24 213 b 43 76 24 126 30 99 b 92 23 56 54 72 36 b 158 -6 112 9 134 0 b 228 -14 182 -11 206 -14 b 358 11 278 -14 321 -6 b 461 92 395 28 430 55 l 464 92 b 458 44 461 76 459 60 b 456 0 456 29 456 14 l 574 0 b 578 69 574 19 575 41 b 589 149 581 96 584 123 l 638 415 b 642 449 639 425 641 436 b 643 482 643 463 643 474 b 622 572 643 517 636 547 b 567 633 608 597 590 617 b 490 666 545 648 519 659 b 399 676 460 673 430 676 b 254 652 350 676 301 668 b 131 586 207 636 166 614 l 183 500 b 275 551 209 520 240 538 b 381 572 310 565 345 572 b 483 547 425 572 459 564 b 519 463 507 529 519 501 b 518 442 519 456 519 449 b 514 411 517 434 516 424 z m 479 317 l 500 317 l 490 268 b 465 197 486 243 477 219 b 418 139 452 175 437 156 b 353 99 400 122 378 109 b 272 85 328 90 301 85 b 228 89 257 85 243 86 b 190 104 214 92 201 97 b 162 133 178 112 169 121 b 151 178 155 144 151 159 b 182 250 151 207 162 231 b 260 292 202 269 228 283 b 367 312 292 302 328 309 b 479 317 406 315 443 317 z m 428 768 b 539 815 473 768 510 784 b 582 929 568 846 582 884 b 549 1011 582 963 571 990 b 461 1043 526 1032 497 1043 b 399 1031 439 1043 418 1039 b 350 996 380 1022 364 1011 b 318 945 336 981 325 964 b 307 883 311 926 307 906 b 341 801 307 851 318 824 b 428 768 364 779 393 768 z m 525 921 b 499 850 525 893 516 869 b 432 821 481 831 459 821 b 383 841 411 821 394 828 b 365 890 371 854 365 871 b 391 963 365 919 374 943 b 457 992 408 982 430 992 b 507 971 478 992 495 985 b 525 921 519 957 525 940 z "},"æ":{"ha":1229,"x_min":0,"x_max":0,"o":"m 619 556 b 544 647 606 596 581 627 b 406 676 507 666 461 676 b 262 652 357 676 309 668 b 138 586 214 636 173 614 l 190 500 b 283 551 216 520 247 538 b 389 572 318 565 354 572 b 489 548 431 572 464 564 b 526 461 514 532 526 503 b 523 428 526 455 525 444 b 515 385 521 412 518 398 b 339 378 456 385 397 383 b 181 349 281 374 228 365 b 67 282 134 334 97 312 b 24 161 38 252 24 212 b 45 76 24 127 31 99 b 100 23 59 54 78 36 b 174 -6 122 9 147 0 b 253 -14 202 -11 228 -14 b 434 29 328 -14 388 0 b 538 132 480 58 514 92 b 634 22 556 86 588 49 b 790 -18 680 -5 732 -18 b 1088 117 909 -18 1008 27 l 1011 189 b 925 117 987 160 958 136 b 804 89 892 98 851 89 b 670 139 750 89 705 106 b 618 268 635 172 618 215 b 619 278 618 272 618 275 b 621 290 619 282 620 286 l 1129 290 b 1141 359 1135 312 1139 334 b 1144 415 1143 384 1144 402 b 1070 608 1144 498 1120 562 b 869 676 1021 653 954 676 b 724 641 817 676 768 665 b 619 556 679 617 644 589 z m 467 290 l 500 290 l 496 265 b 425 135 487 212 463 168 b 275 85 387 101 337 85 b 229 89 259 85 244 86 b 190 104 214 92 201 97 b 163 133 179 112 170 121 b 153 178 156 144 153 159 b 177 235 153 201 161 220 b 244 269 193 250 216 261 b 344 286 272 278 305 283 b 467 290 382 289 423 290 z m 1021 385 l 635 385 b 662 454 640 408 649 431 b 710 515 674 477 690 498 b 776 558 729 533 751 547 b 860 575 801 569 829 575 b 981 533 913 575 953 561 b 1024 426 1009 504 1024 469 b 1023 406 1024 420 1023 413 b 1021 385 1022 398 1022 391 z "},"ç":{"ha":689,"x_min":0,"x_max":0,"o":"m 582 490 l 682 565 b 640 615 671 585 657 601 b 583 649 622 629 603 641 b 516 669 562 658 540 665 b 444 676 492 674 469 676 b 281 643 384 676 330 665 b 155 553 231 621 190 591 b 74 423 120 516 93 472 b 46 267 55 373 46 321 b 114 76 46 190 69 126 b 300 -14 159 26 221 -4 l 203 -131 l 226 -158 b 256 -151 236 -156 245 -153 b 285 -149 266 -150 275 -149 b 331 -160 302 -149 318 -152 b 351 -200 345 -167 351 -181 b 342 -230 351 -212 348 -222 b 319 -248 336 -238 329 -244 b 290 -257 310 -252 300 -255 b 261 -260 280 -259 270 -260 b 206 -253 243 -260 224 -258 b 156 -236 188 -249 171 -244 l 122 -294 b 190 -318 141 -305 163 -312 b 267 -326 217 -324 243 -326 b 328 -319 286 -326 306 -324 b 387 -297 349 -315 369 -307 b 432 -256 405 -287 420 -273 b 450 -192 444 -238 450 -217 b 439 -145 450 -173 446 -158 b 411 -115 431 -133 422 -122 b 374 -98 400 -107 388 -101 b 336 -93 361 -95 348 -93 b 319 -94 331 -93 325 -93 b 300 -97 314 -94 307 -95 l 367 -18 b 510 15 420 -16 468 -5 b 624 97 551 36 589 63 l 546 169 b 471 113 525 146 500 127 b 365 90 442 98 407 90 b 283 106 334 90 306 95 b 224 147 259 116 239 129 b 188 207 208 164 196 184 b 176 282 180 230 176 255 b 196 392 176 321 183 358 b 250 484 209 427 227 458 b 333 547 273 510 301 531 b 438 569 365 562 400 569 b 526 547 470 569 499 562 b 582 490 552 531 571 513 z "},"è":{"ha":785,"x_min":0,"x_max":0,"o":"m 169 290 l 686 290 b 697 359 691 312 694 334 b 700 415 699 384 700 402 b 626 608 700 498 675 562 b 426 676 577 653 511 676 b 274 644 372 676 321 666 b 151 558 226 623 186 594 b 71 429 117 521 90 478 b 42 274 51 380 42 328 b 65 150 42 227 49 186 b 128 58 80 114 101 83 b 226 1 156 33 188 14 b 347 -18 263 -12 304 -18 b 510 16 406 -18 460 -7 b 643 117 560 39 604 72 l 567 189 b 481 117 544 160 515 136 b 360 89 447 98 407 89 b 284 102 333 89 308 93 b 223 140 260 111 240 123 b 183 197 206 156 192 175 b 168 268 173 218 168 242 l 168 278 b 169 290 168 282 169 286 z m 576 385 l 183 385 b 212 454 189 408 198 431 b 262 515 225 477 242 498 b 331 558 282 533 305 547 b 417 575 356 569 385 575 b 538 533 469 575 510 561 b 579 426 565 504 579 469 b 578 406 579 420 579 413 b 576 385 578 398 577 391 z m 231 983 l 421 783 l 522 783 l 383 983 z "},"é":{"ha":785,"x_min":0,"x_max":0,"o":"m 169 290 l 686 290 b 697 359 691 312 694 334 b 700 415 699 384 700 402 b 626 608 700 498 675 562 b 426 676 577 653 511 676 b 274 644 372 676 321 666 b 151 558 226 623 186 594 b 71 429 117 521 90 478 b 42 274 51 380 42 328 b 65 150 42 227 49 186 b 128 58 80 114 101 83 b 226 1 156 33 188 14 b 347 -18 263 -12 304 -18 b 510 16 406 -18 460 -7 b 643 117 560 39 604 72 l 567 189 b 481 117 544 160 515 136 b 360 89 447 98 407 89 b 284 102 333 89 308 93 b 223 140 260 111 240 123 b 183 197 206 156 192 175 b 168 268 173 218 168 242 l 168 278 b 169 290 168 282 169 286 z m 576 385 l 183 385 b 212 454 189 408 198 431 b 262 515 225 477 242 498 b 331 558 282 533 305 547 b 417 575 356 569 385 575 b 538 533 469 575 510 561 b 579 426 565 504 579 469 b 578 406 579 420 579 413 b 576 385 578 398 577 391 z m 458 783 l 683 983 l 529 983 l 356 783 z "},"ê":{"ha":785,"x_min":0,"x_max":0,"o":"m 169 290 l 686 290 b 697 359 691 312 694 334 b 700 415 699 384 700 402 b 626 608 700 498 675 562 b 426 676 577 653 511 676 b 274 644 372 676 321 666 b 151 558 226 623 186 594 b 71 429 117 521 90 478 b 42 274 51 380 42 328 b 65 150 42 227 49 186 b 128 58 80 114 101 83 b 226 1 156 33 188 14 b 347 -18 263 -12 304 -18 b 510 16 406 -18 460 -7 b 643 117 560 39 604 72 l 567 189 b 481 117 544 160 515 136 b 360 89 447 98 407 89 b 284 102 333 89 308 93 b 223 140 260 111 240 123 b 183 197 206 156 192 175 b 168 268 173 218 168 242 l 168 278 b 169 290 168 282 169 286 z m 576 385 l 183 385 b 212 454 189 408 198 431 b 262 515 225 477 242 498 b 331 558 282 533 305 547 b 417 575 356 569 385 575 b 538 533 469 575 510 561 b 579 426 565 504 579 469 b 578 406 579 420 579 413 b 576 385 578 398 577 391 z m 693 783 l 574 983 l 426 983 l 235 783 l 361 783 l 492 921 l 574 783 z "},"ë":{"ha":785,"x_min":0,"x_max":0,"o":"m 169 290 l 686 290 b 697 359 691 312 694 334 b 700 415 699 384 700 402 b 626 608 700 498 675 562 b 426 676 577 653 511 676 b 274 644 372 676 321 666 b 151 558 226 623 186 594 b 71 429 117 521 90 478 b 42 274 51 380 42 328 b 65 150 42 227 49 186 b 128 58 80 114 101 83 b 226 1 156 33 188 14 b 347 -18 263 -12 304 -18 b 510 16 406 -18 460 -7 b 643 117 560 39 604 72 l 567 189 b 481 117 544 160 515 136 b 360 89 447 98 407 89 b 284 102 333 89 308 93 b 223 140 260 111 240 123 b 183 197 206 156 192 175 b 168 268 173 218 168 242 l 168 278 b 169 290 168 282 169 286 z m 576 385 l 183 385 b 212 454 189 408 198 431 b 262 515 225 477 242 498 b 331 558 282 533 305 547 b 417 575 356 569 385 575 b 538 533 469 575 510 561 b 579 426 565 504 579 469 b 578 406 579 420 579 413 b 576 385 578 398 577 391 z m 419 899 b 397 958 419 924 412 943 b 342 979 382 972 364 979 b 283 956 319 979 300 971 b 257 894 266 940 257 919 b 281 836 257 869 265 850 b 339 815 296 822 316 815 b 397 840 362 815 381 823 b 419 899 412 856 419 875 z m 694 899 b 672 958 694 924 687 943 b 617 979 657 972 639 979 b 557 956 594 979 574 971 b 532 894 540 940 532 919 b 556 836 532 869 540 850 b 613 815 571 822 590 815 b 672 840 637 815 656 823 b 694 899 687 856 694 875 z "},"ì":{"ha":360,"x_min":0,"x_max":0,"o":"m 168 0 l 285 658 l 156 658 l 40 0 z m 1 983 l 192 783 l 293 783 l 154 983 z "},"í":{"ha":360,"x_min":0,"x_max":0,"o":"m 168 0 l 285 658 l 156 658 l 40 0 z m 263 782 l 488 982 l 333 982 l 160 782 z "},"î":{"ha":360,"x_min":0,"x_max":0,"o":"m 168 0 l 285 658 l 156 658 l 40 0 z m 468 783 l 349 983 l 201 983 l 10 783 l 136 783 l 267 921 l 349 783 z "},"ï":{"ha":360,"x_min":0,"x_max":0,"o":"m 168 0 l 285 658 l 156 658 l 40 0 z m 206 899 b 183 958 206 924 198 943 b 128 979 169 972 150 979 b 69 956 106 979 86 971 b 43 894 52 940 43 919 b 67 836 43 869 51 850 b 125 815 82 822 102 815 b 183 840 148 815 167 823 b 206 899 198 856 206 875 z m 481 899 b 458 958 481 924 473 943 b 403 979 444 972 425 979 b 343 956 380 979 360 971 b 318 894 326 940 318 919 b 342 836 318 869 326 850 b 399 815 357 822 376 815 b 458 840 423 815 442 823 b 481 899 473 856 481 875 z "},"ð":{"ha":833,"x_min":0,"x_max":0,"o":"m 438 676 b 278 642 379 676 326 665 b 155 552 230 620 189 590 b 76 422 121 515 95 471 b 49 269 58 373 49 322 b 72 153 49 227 56 188 b 136 62 87 118 108 87 b 235 3 164 36 197 17 b 360 -18 273 -11 314 -18 b 544 22 432 -18 493 -5 b 667 128 594 49 635 84 b 738 276 699 172 723 222 b 760 442 752 331 760 386 b 712 702 760 535 744 622 b 585 914 680 782 638 853 l 750 989 l 690 1051 l 528 978 b 478 1030 515 994 498 1011 b 417 1086 459 1049 438 1068 l 307 1024 b 362 978 325 1010 343 994 b 414 926 381 961 398 944 l 247 853 l 303 788 l 468 863 b 559 746 503 828 534 789 b 621 615 584 702 605 659 l 617 613 b 438 676 574 655 514 676 z m 624 379 b 605 268 624 340 617 303 b 552 176 592 233 575 202 b 471 113 529 149 502 128 b 367 90 439 98 405 90 b 228 144 307 90 261 108 b 179 281 196 179 179 225 b 198 391 179 319 185 356 b 251 483 210 426 228 456 b 331 546 273 509 300 530 b 435 569 362 562 397 569 b 514 555 464 569 491 565 b 573 515 537 545 557 532 b 610 454 589 497 602 477 b 624 379 619 431 624 406 z "},"ñ":{"ha":807,"x_min":0,"x_max":0,"o":"m 272 658 l 150 658 b 141 583 148 636 145 611 b 129 515 137 556 133 533 l 39 0 l 168 0 l 229 350 b 304 508 241 416 266 468 b 439 567 342 547 387 567 b 539 531 487 567 520 555 b 567 438 557 506 567 475 b 558 364 567 413 564 389 l 494 0 l 624 0 l 696 407 b 701 474 700 428 701 450 b 645 619 701 532 683 580 b 481 676 608 657 553 676 b 353 642 433 676 391 665 b 261 551 316 620 285 589 l 258 551 b 266 606 261 566 264 584 b 272 658 268 628 270 645 z m 222 794 l 299 794 b 328 839 306 810 316 825 b 376 860 340 853 356 860 b 420 851 390 860 405 857 b 467 829 435 845 451 838 b 514 810 482 822 498 815 b 563 801 530 804 546 801 b 624 815 586 801 606 806 b 672 851 642 825 658 837 b 708 902 686 866 698 883 b 733 961 717 921 726 941 l 657 961 b 628 917 650 945 640 931 b 581 896 616 903 600 896 b 539 905 568 896 554 899 b 493 925 524 911 509 918 b 445 946 477 933 461 940 b 393 954 429 951 412 954 b 330 940 369 954 348 950 b 283 904 312 931 296 919 b 247 853 269 889 257 872 b 222 794 237 834 229 815 z "},"ò":{"ha":833,"x_min":0,"x_max":0,"o":"m 354 -18 b 515 15 413 -18 467 -7 b 640 103 563 36 605 66 b 720 234 674 141 701 184 b 749 392 739 284 749 336 b 726 508 749 434 741 473 b 661 597 710 542 689 572 b 563 656 633 622 600 642 b 438 676 525 669 483 676 b 276 644 378 676 324 666 b 151 555 227 622 185 592 b 70 425 116 517 89 474 b 42 269 51 376 42 324 b 65 153 42 227 50 188 b 131 62 81 118 103 87 b 229 3 158 36 191 17 b 354 -18 267 -11 309 -18 z m 618 379 b 599 268 618 340 612 303 b 547 176 587 233 569 202 b 465 113 524 149 497 128 b 361 90 434 98 399 90 b 222 144 302 90 256 108 b 172 281 189 179 172 225 b 191 391 172 319 178 356 b 244 483 203 426 221 456 b 325 546 266 509 294 530 b 429 569 356 562 391 569 b 508 555 458 569 484 565 b 567 515 531 545 551 532 b 605 454 584 497 596 477 b 618 379 614 431 618 406 z m 244 983 l 435 783 l 536 783 l 397 983 z "},"ó":{"ha":833,"x_min":0,"x_max":0,"o":"m 354 -18 b 515 15 413 -18 467 -7 b 640 103 563 36 605 66 b 720 234 674 141 701 184 b 749 392 739 284 749 336 b 726 508 749 434 741 473 b 661 597 710 542 689 572 b 563 656 633 622 600 642 b 438 676 525 669 483 676 b 276 644 378 676 324 666 b 151 555 227 622 185 592 b 70 425 116 517 89 474 b 42 269 51 376 42 324 b 65 153 42 227 50 188 b 131 62 81 118 103 87 b 229 3 158 36 191 17 b 354 -18 267 -11 309 -18 z m 618 379 b 599 268 618 340 612 303 b 547 176 587 233 569 202 b 465 113 524 149 497 128 b 361 90 434 98 399 90 b 222 144 302 90 256 108 b 172 281 189 179 172 225 b 191 391 172 319 178 356 b 244 483 203 426 221 456 b 325 546 266 509 294 530 b 429 569 356 562 391 569 b 508 555 458 569 484 565 b 567 515 531 545 551 532 b 605 454 584 497 596 477 b 618 379 614 431 618 406 z m 485 783 l 710 983 l 556 983 l 382 783 z "},"ô":{"ha":833,"x_min":0,"x_max":0,"o":"m 354 -18 b 515 15 413 -18 467 -7 b 640 103 563 36 605 66 b 720 234 674 141 701 184 b 749 392 739 284 749 336 b 726 508 749 434 741 473 b 661 597 710 542 689 572 b 563 656 633 622 600 642 b 438 676 525 669 483 676 b 276 644 378 676 324 666 b 151 555 227 622 185 592 b 70 425 116 517 89 474 b 42 269 51 376 42 324 b 65 153 42 227 50 188 b 131 62 81 118 103 87 b 229 3 158 36 191 17 b 354 -18 267 -11 309 -18 z m 618 379 b 599 268 618 340 612 303 b 547 176 587 233 569 202 b 465 113 524 149 497 128 b 361 90 434 98 399 90 b 222 144 302 90 256 108 b 172 281 189 179 172 225 b 191 391 172 319 178 356 b 244 483 203 426 221 456 b 325 546 266 509 294 530 b 429 569 356 562 391 569 b 508 555 458 569 484 565 b 567 515 531 545 551 532 b 605 454 584 497 596 477 b 618 379 614 431 618 406 z m 715 783 l 596 983 l 449 983 l 257 783 l 383 783 l 514 921 l 596 783 z "},"õ":{"ha":833,"x_min":0,"x_max":0,"o":"m 354 -18 b 515 15 413 -18 467 -7 b 640 103 563 36 605 66 b 720 234 674 141 701 184 b 749 392 739 284 749 336 b 726 508 749 434 741 473 b 661 597 710 542 689 572 b 563 656 633 622 600 642 b 438 676 525 669 483 676 b 276 644 378 676 324 666 b 151 555 227 622 185 592 b 70 425 116 517 89 474 b 42 269 51 376 42 324 b 65 153 42 227 50 188 b 131 62 81 118 103 87 b 229 3 158 36 191 17 b 354 -18 267 -11 309 -18 z m 618 379 b 599 268 618 340 612 303 b 547 176 587 233 569 202 b 465 113 524 149 497 128 b 361 90 434 98 399 90 b 222 144 302 90 256 108 b 172 281 189 179 172 225 b 191 391 172 319 178 356 b 244 483 203 426 221 456 b 325 546 266 509 294 530 b 429 569 356 562 391 569 b 508 555 458 569 484 565 b 567 515 531 545 551 532 b 605 454 584 497 596 477 b 618 379 614 431 618 406 z m 229 794 l 306 794 b 335 839 313 810 323 825 b 383 860 347 853 363 860 b 427 851 397 860 412 857 b 474 829 442 845 458 838 b 521 810 489 822 505 815 b 569 801 537 804 553 801 b 631 815 593 801 613 806 b 679 851 649 825 665 837 b 715 902 693 866 705 883 b 740 961 724 921 733 941 l 664 961 b 635 917 656 945 647 931 b 588 896 623 903 607 896 b 546 905 575 896 561 899 b 500 925 531 911 516 918 b 452 946 484 933 468 940 b 400 954 436 951 419 954 b 337 940 376 954 355 950 b 290 904 319 931 303 919 b 254 853 276 889 264 872 b 229 794 244 834 236 815 z "},"ö":{"ha":833,"x_min":0,"x_max":0,"o":"m 354 -18 b 515 15 413 -18 467 -7 b 640 103 563 36 605 66 b 720 234 674 141 701 184 b 749 392 739 284 749 336 b 726 508 749 434 741 473 b 661 597 710 542 689 572 b 563 656 633 622 600 642 b 438 676 525 669 483 676 b 276 644 378 676 324 666 b 151 555 227 622 185 592 b 70 425 116 517 89 474 b 42 269 51 376 42 324 b 65 153 42 227 50 188 b 131 62 81 118 103 87 b 229 3 158 36 191 17 b 354 -18 267 -11 309 -18 z m 618 379 b 599 268 618 340 612 303 b 547 176 587 233 569 202 b 465 113 524 149 497 128 b 361 90 434 98 399 90 b 222 144 302 90 256 108 b 172 281 189 179 172 225 b 191 391 172 319 178 356 b 244 483 203 426 221 456 b 325 546 266 509 294 530 b 429 569 356 562 391 569 b 508 555 458 569 484 565 b 567 515 531 545 551 532 b 605 454 584 497 596 477 b 618 379 614 431 618 406 z m 433 899 b 411 958 433 924 426 943 b 356 979 396 972 378 979 b 297 956 333 979 314 971 b 271 894 279 940 271 919 b 294 836 271 869 279 850 b 353 815 310 822 330 815 b 410 840 376 815 395 823 b 433 899 426 856 433 875 z m 708 899 b 686 958 708 924 701 943 b 631 979 671 972 653 979 b 571 956 607 979 588 971 b 546 894 554 940 546 919 b 569 836 546 869 554 850 b 626 815 585 822 604 815 b 685 840 650 815 670 823 b 708 899 701 856 708 875 z "},"÷":{"ha":925,"x_min":0,"x_max":0,"o":"m 828 364 l 828 478 l 97 478 l 97 364 z m 553 183 b 527 247 553 207 544 228 b 463 274 510 265 488 274 b 398 247 437 274 415 265 b 372 183 381 228 372 207 b 398 120 372 159 381 138 b 463 93 415 102 437 93 b 527 120 488 93 510 102 b 553 183 544 138 553 159 z m 553 651 b 527 715 553 675 544 697 b 463 742 510 733 488 742 b 398 715 437 742 415 733 b 372 651 381 697 372 675 b 398 588 372 627 381 606 b 463 561 415 570 437 561 b 527 588 488 561 510 570 b 553 651 544 606 553 627 z "},"ø":{"ha":833,"x_min":0,"x_max":0,"o":"m 690 567 l 765 639 l 715 693 l 636 618 b 438 676 581 657 515 676 b 276 644 378 676 324 666 b 151 555 227 622 185 592 b 70 425 116 517 89 474 b 42 269 51 376 42 324 b 56 178 42 237 46 207 b 94 103 65 150 78 125 l 8 21 l 63 -32 l 146 49 b 239 -1 173 27 204 11 b 354 -18 274 -12 313 -18 b 515 15 413 -18 467 -7 b 640 103 563 36 605 66 b 720 234 674 141 701 184 b 749 392 739 284 749 336 b 690 567 749 459 729 518 z m 235 132 l 594 476 b 618 379 610 448 618 415 b 599 268 618 340 612 303 b 547 176 587 233 569 202 b 465 113 524 149 497 128 b 361 90 434 98 399 90 b 235 132 310 90 268 104 z m 547 533 l 190 193 b 172 281 178 217 172 246 b 191 391 172 319 178 356 b 244 483 203 426 221 456 b 325 546 266 509 294 530 b 429 569 356 562 391 569 b 494 560 453 569 475 566 b 547 533 514 553 531 544 z "},"ù":{"ha":807,"x_min":0,"x_max":0,"o":"m 489 0 l 611 0 b 620 75 613 22 616 47 b 632 143 624 103 628 125 l 722 658 l 594 658 l 532 308 b 458 151 521 243 496 190 b 322 92 419 111 374 92 b 224 128 275 92 242 104 b 196 221 205 152 196 183 b 198 258 196 233 197 245 b 203 296 199 270 201 283 l 267 658 l 139 658 l 67 251 b 62 218 65 240 63 229 b 60 186 60 207 60 196 b 116 40 60 127 78 78 b 281 -18 153 1 208 -18 b 408 16 328 -18 370 -7 b 500 107 445 39 476 69 l 503 107 b 496 52 501 92 499 74 b 489 0 493 30 491 13 z m 225 983 l 415 783 l 517 783 l 378 983 z "},"ú":{"ha":807,"x_min":0,"x_max":0,"o":"m 489 0 l 611 0 b 620 75 613 22 616 47 b 632 143 624 103 628 125 l 722 658 l 594 658 l 532 308 b 458 151 521 243 496 190 b 322 92 419 111 374 92 b 224 128 275 92 242 104 b 196 221 205 152 196 183 b 198 258 196 233 197 245 b 203 296 199 270 201 283 l 267 658 l 139 658 l 67 251 b 62 218 65 240 63 229 b 60 186 60 207 60 196 b 116 40 60 127 78 78 b 281 -18 153 1 208 -18 b 408 16 328 -18 370 -7 b 500 107 445 39 476 69 l 503 107 b 496 52 501 92 499 74 b 489 0 493 30 491 13 z m 478 783 l 703 983 l 549 983 l 375 783 z "},"û":{"ha":807,"x_min":0,"x_max":0,"o":"m 489 0 l 611 0 b 620 75 613 22 616 47 b 632 143 624 103 628 125 l 722 658 l 594 658 l 532 308 b 458 151 521 243 496 190 b 322 92 419 111 374 92 b 224 128 275 92 242 104 b 196 221 205 152 196 183 b 198 258 196 233 197 245 b 203 296 199 270 201 283 l 267 658 l 139 658 l 67 251 b 62 218 65 240 63 229 b 60 186 60 207 60 196 b 116 40 60 127 78 78 b 281 -18 153 1 208 -18 b 408 16 328 -18 370 -7 b 500 107 445 39 476 69 l 503 107 b 496 52 501 92 499 74 b 489 0 493 30 491 13 z m 681 783 l 561 983 l 414 983 l 222 783 l 349 783 l 479 921 l 561 783 z "},"ü":{"ha":807,"x_min":0,"x_max":0,"o":"m 489 0 l 611 0 b 620 75 613 22 616 47 b 632 143 624 103 628 125 l 722 658 l 594 658 l 532 308 b 458 151 521 243 496 190 b 322 92 419 111 374 92 b 224 128 275 92 242 104 b 196 221 205 152 196 183 b 198 258 196 233 197 245 b 203 296 199 270 201 283 l 267 658 l 139 658 l 67 251 b 62 218 65 240 63 229 b 60 186 60 207 60 196 b 116 40 60 127 78 78 b 281 -18 153 1 208 -18 b 408 16 328 -18 370 -7 b 500 107 445 39 476 69 l 503 107 b 496 52 501 92 499 74 b 489 0 493 30 491 13 z m 413 899 b 390 958 413 924 405 943 b 335 979 375 972 357 979 b 276 956 313 979 293 971 b 250 894 259 940 250 919 b 274 836 250 869 258 850 b 332 815 289 822 309 815 b 390 840 355 815 374 823 b 413 899 405 856 413 875 z m 688 899 b 665 958 688 924 680 943 b 610 979 650 972 632 979 b 550 956 587 979 567 971 b 525 894 533 940 525 919 b 549 836 525 869 533 850 b 606 815 564 822 583 815 b 665 840 630 815 649 823 b 688 899 680 856 688 875 z "},"ý":{"ha":688,"x_min":0,"x_max":0,"o":"m 288 140 l 193 658 l 56 658 l 200 0 l 135 -111 b 74 -192 113 -146 93 -173 b 0 -221 54 -211 30 -221 b -61 -210 -20 -221 -41 -217 l -79 -324 b 3 -333 -53 -330 -26 -333 b 78 -321 31 -333 56 -329 b 139 -285 100 -312 120 -301 b 190 -230 157 -270 175 -252 b 239 -156 206 -208 222 -183 l 721 658 l 582 658 l 290 140 z m 428 783 l 653 983 l 499 983 l 325 783 z "},"þ":{"ha":879,"x_min":0,"x_max":0,"o":"m 267 553 l 264 553 l 353 1050 l 224 1050 l -19 -333 l 110 -333 l 186 107 l 189 107 b 278 15 209 68 239 38 b 418 -18 318 -7 364 -18 b 567 14 472 -18 522 -7 b 686 101 613 35 653 64 b 765 231 719 138 746 182 b 793 390 784 281 793 334 b 772 506 793 433 786 472 b 714 596 758 541 739 571 b 624 654 689 621 659 640 b 506 675 588 668 549 675 b 365 640 455 675 408 663 b 267 553 323 617 290 588 z m 660 378 b 642 264 660 337 654 299 b 590 172 630 229 613 198 b 510 110 568 146 541 126 b 406 88 478 95 444 88 b 327 102 377 88 351 92 b 267 142 303 112 283 125 b 228 202 250 158 237 178 b 215 279 220 226 215 251 b 235 390 215 318 222 355 b 291 483 249 425 267 456 b 374 545 315 509 342 530 b 476 568 406 560 440 568 b 613 513 536 568 581 550 b 660 378 644 477 660 431 z "},"ÿ":{"ha":688,"x_min":0,"x_max":0,"o":"m 288 140 l 193 658 l 56 658 l 200 0 l 135 -111 b 74 -192 113 -146 93 -173 b 0 -221 54 -211 30 -221 b -61 -210 -20 -221 -41 -217 l -79 -324 b 3 -333 -53 -330 -26 -333 b 78 -321 31 -333 56 -329 b 139 -285 100 -312 120 -301 b 190 -230 157 -270 175 -252 b 239 -156 206 -208 222 -183 l 721 658 l 582 658 l 290 140 z m 365 899 b 343 958 365 924 358 943 b 288 979 328 972 310 979 b 228 956 265 979 246 971 b 203 894 211 940 203 919 b 226 836 203 869 211 850 b 285 815 242 822 262 815 b 342 840 308 815 327 823 b 365 899 358 856 365 875 z m 640 899 b 618 958 640 924 633 943 b 563 979 603 972 585 979 b 503 956 539 979 519 971 b 478 894 486 940 478 919 b 501 836 478 869 486 850 b 558 815 517 822 536 815 b 617 840 582 815 602 823 b 640 899 633 856 640 875 z "},"¤":{"ha":826,"x_min":0,"x_max":0,"o":"m 682 583 l 796 697 l 724 768 l 608 654 b 519 699 582 673 553 688 b 411 717 486 711 450 717 b 303 699 373 717 337 711 b 213 654 270 688 239 673 l 96 768 l 24 697 l 139 581 b 98 493 121 554 108 525 b 83 388 88 462 83 426 b 100 280 83 350 89 314 b 143 190 111 246 125 216 l 24 68 l 96 -4 l 218 117 b 308 72 245 98 275 83 b 411 56 342 61 376 56 b 517 71 449 56 484 61 b 604 114 549 81 578 95 l 725 -4 l 796 68 l 679 186 b 724 278 698 213 713 244 b 742 388 736 312 742 349 b 726 494 742 426 737 462 b 682 583 716 527 701 556 z m 411 607 b 499 590 444 607 473 601 b 567 542 526 578 548 562 b 609 473 585 522 599 499 b 624 388 619 447 624 418 b 609 302 624 357 619 328 b 567 232 599 276 585 252 b 499 184 548 212 526 196 b 411 167 473 172 444 167 b 324 184 379 167 350 172 b 257 232 298 196 275 212 b 215 302 238 252 224 276 b 200 388 205 328 200 357 b 215 473 200 418 205 447 b 257 542 224 499 238 522 b 324 590 275 562 298 578 b 411 607 350 601 379 607 z "},"¦":{"ha":308,"x_min":0,"x_max":0,"o":"m 211 938 l 97 938 l 97 451 l 211 451 z m 211 243 l 97 243 l 97 -243 l 211 -243 z "},"¨":{"ha":347,"x_min":0,"x_max":0,"o":"m 199 899 b 176 958 199 924 191 943 b 121 979 162 972 143 979 b 62 956 99 979 79 971 b 36 894 45 940 36 919 b 60 836 36 869 44 850 b 118 815 75 822 95 815 b 176 840 141 815 160 823 b 199 899 191 856 199 875 z m 474 899 b 451 958 474 924 466 943 b 396 979 437 972 418 979 b 336 956 373 979 353 971 b 311 894 319 940 311 919 b 335 836 311 869 319 850 b 392 815 350 822 369 815 b 451 840 416 815 435 823 b 474 899 466 856 474 875 z "},"´":{"ha":347,"x_min":0,"x_max":0,"o":"m 264 783 l 489 983 l 335 983 l 161 783 z "},"¸":{"ha":347,"x_min":0,"x_max":0,"o":"m 75 -97 l 157 0 l 88 0 l -22 -131 l 1 -158 b 31 -151 11 -156 20 -153 b 60 -149 41 -150 50 -149 b 106 -160 77 -149 93 -152 b 126 -200 120 -167 126 -181 b 117 -230 126 -212 123 -222 b 94 -248 111 -238 104 -244 b 65 -257 85 -252 75 -255 b 36 -260 55 -259 45 -260 b -19 -253 18 -260 -1 -258 b -69 -236 -37 -249 -54 -244 l -103 -294 b -35 -318 -84 -305 -62 -312 b 42 -326 -8 -324 18 -326 b 103 -319 61 -326 81 -324 b 162 -297 124 -315 144 -307 b 207 -256 180 -287 195 -273 b 225 -192 219 -238 225 -217 b 214 -145 225 -173 221 -158 b 186 -115 206 -133 197 -122 b 149 -98 175 -107 163 -101 b 111 -93 136 -95 123 -93 b 94 -94 106 -93 100 -93 b 75 -97 89 -94 82 -95 z "},"¼":{"ha":1208,"x_min":0,"x_max":0,"o":"m 1068 131 l 1085 219 l 997 219 l 1063 592 l 944 592 l 636 214 l 622 129 l 889 129 l 865 0 l 964 0 l 986 131 z m 939 458 l 944 458 l 900 218 l 746 218 z m 244 -44 l 1026 982 l 953 1028 l 169 1 z m 336 392 l 440 983 l 349 983 l 151 843 l 201 772 l 311 854 l 229 392 z "},"½":{"ha":1208,"x_min":0,"x_max":0,"o":"m 1122 444 b 1075 557 1122 492 1106 529 b 944 599 1044 585 1000 599 b 821 560 898 599 857 586 b 742 447 785 534 758 496 l 835 422 b 874 488 844 450 857 472 b 939 513 890 504 912 513 b 1002 493 966 513 987 506 b 1025 438 1017 480 1025 462 b 1005 377 1025 417 1018 397 b 938 308 991 357 969 334 l 681 94 l 664 0 l 1053 0 l 1071 93 l 806 93 l 988 238 b 1047 288 1010 256 1029 273 b 1089 335 1064 303 1078 319 b 1114 385 1100 350 1108 367 b 1122 444 1119 402 1122 422 z m 244 -44 l 1026 982 l 953 1028 l 169 1 z m 336 392 l 440 983 l 349 983 l 151 843 l 201 772 l 311 854 l 229 392 z "},"¾":{"ha":1208,"x_min":0,"x_max":0,"o":"m 1068 131 l 1085 219 l 997 219 l 1063 592 l 944 592 l 636 214 l 622 129 l 889 129 l 865 0 l 964 0 l 986 131 z m 939 458 l 944 458 l 900 218 l 746 218 z m 244 -44 l 1026 982 l 953 1028 l 169 1 z m 504 850 b 459 958 504 893 489 928 b 338 1001 429 987 388 1001 b 229 975 298 1001 262 993 b 149 894 197 957 170 931 l 226 847 b 269 899 239 871 254 888 b 329 914 285 909 305 914 b 383 897 351 914 369 908 b 404 846 397 885 404 868 b 372 772 404 813 394 789 b 272 746 351 754 318 746 l 242 746 l 228 665 l 258 665 b 343 644 291 665 319 658 b 379 575 367 631 379 607 b 350 506 379 546 369 523 b 268 479 331 488 303 479 b 206 497 244 479 223 485 b 169 551 189 508 177 526 l 72 521 b 143 424 86 480 110 448 b 268 389 176 401 218 389 b 351 401 298 389 325 393 b 419 439 377 410 400 422 b 464 500 438 456 453 476 b 481 585 475 524 481 552 b 455 660 481 613 472 638 b 388 706 438 683 415 698 b 469 753 419 713 446 729 b 504 850 493 777 504 809 z "},"Ā":{"ha":946,"x_min":0,"x_max":0,"o":"m 65 0 l 215 242 l 676 242 l 724 0 l 867 0 l 667 983 l 543 983 l -94 0 z m 286 363 l 574 829 l 657 363 z m 825 1107 l 842 1199 l 432 1199 l 417 1107 z "},"ā":{"ha":746,"x_min":0,"x_max":0,"o":"m 514 411 b 340 402 456 411 399 408 b 183 366 282 396 229 384 b 68 290 136 348 98 322 b 24 160 38 257 24 213 b 43 76 24 126 30 99 b 92 23 56 54 72 36 b 158 -6 112 9 134 0 b 228 -14 182 -11 206 -14 b 358 11 278 -14 321 -6 b 461 92 395 28 430 55 l 464 92 b 458 44 461 76 459 60 b 456 0 456 29 456 14 l 574 0 b 578 69 574 19 575 41 b 589 149 581 96 584 123 l 638 415 b 642 449 639 425 641 436 b 643 482 643 463 643 474 b 622 572 643 517 636 547 b 567 633 608 597 590 617 b 490 666 545 648 519 659 b 399 676 460 673 430 676 b 254 652 350 676 301 668 b 131 586 207 636 166 614 l 183 500 b 275 551 209 520 240 538 b 381 572 310 565 345 572 b 483 547 425 572 459 564 b 519 463 507 529 519 501 b 518 442 519 456 519 449 b 514 411 517 434 516 424 z m 479 317 l 500 317 l 490 268 b 465 197 486 243 477 219 b 418 139 452 175 437 156 b 353 99 400 122 378 109 b 272 85 328 90 301 85 b 228 89 257 85 243 86 b 190 104 214 92 201 97 b 162 133 178 112 169 121 b 151 178 155 144 151 159 b 182 250 151 207 162 231 b 260 292 202 269 228 283 b 367 312 292 302 328 309 b 479 317 406 315 443 317 z m 635 829 l 651 921 l 242 921 l 226 829 z "},"Ă":{"ha":946,"x_min":0,"x_max":0,"o":"m 65 0 l 215 242 l 676 242 l 724 0 l 867 0 l 667 983 l 543 983 l -94 0 z m 286 363 l 574 829 l 657 363 z m 858 1261 l 782 1261 b 723 1183 772 1223 752 1197 b 621 1161 694 1168 660 1161 b 572 1166 603 1161 587 1163 b 532 1183 556 1169 543 1175 b 506 1214 521 1191 512 1201 b 496 1261 499 1227 496 1243 l 418 1261 b 471 1116 418 1195 436 1147 b 615 1069 506 1085 554 1069 b 773 1119 676 1069 729 1086 b 858 1261 817 1153 845 1200 z "},"ă":{"ha":746,"x_min":0,"x_max":0,"o":"m 514 411 b 340 402 456 411 399 408 b 183 366 282 396 229 384 b 68 290 136 348 98 322 b 24 160 38 257 24 213 b 43 76 24 126 30 99 b 92 23 56 54 72 36 b 158 -6 112 9 134 0 b 228 -14 182 -11 206 -14 b 358 11 278 -14 321 -6 b 461 92 395 28 430 55 l 464 92 b 458 44 461 76 459 60 b 456 0 456 29 456 14 l 574 0 b 578 69 574 19 575 41 b 589 149 581 96 584 123 l 638 415 b 642 449 639 425 641 436 b 643 482 643 463 643 474 b 622 572 643 517 636 547 b 567 633 608 597 590 617 b 490 666 545 648 519 659 b 399 676 460 673 430 676 b 254 652 350 676 301 668 b 131 586 207 636 166 614 l 183 500 b 275 551 209 520 240 538 b 381 572 310 565 345 572 b 483 547 425 572 459 564 b 519 463 507 529 519 501 b 518 442 519 456 519 449 b 514 411 517 434 516 424 z m 479 317 l 500 317 l 490 268 b 465 197 486 243 477 219 b 418 139 452 175 437 156 b 353 99 400 122 378 109 b 272 85 328 90 301 85 b 228 89 257 85 243 86 b 190 104 214 92 201 97 b 162 133 178 112 169 121 b 151 178 155 144 151 159 b 182 250 151 207 162 231 b 260 292 202 269 228 283 b 367 312 292 302 328 309 b 479 317 406 315 443 317 z m 664 983 l 588 983 b 528 905 577 945 558 919 b 426 883 499 891 465 883 b 377 888 409 883 392 885 b 338 905 362 891 349 897 b 311 936 326 913 318 923 b 301 983 305 949 301 965 l 224 983 b 276 838 224 918 241 869 b 421 792 312 807 360 792 b 578 842 482 792 534 808 b 664 983 622 875 651 922 z "},"Ą":{"ha":946,"x_min":0,"x_max":0,"o":"m 813 -265 l 793 -204 b 715 -233 769 -224 743 -233 b 675 -223 700 -233 686 -230 b 658 -185 664 -216 658 -203 b 669 -139 658 -170 662 -155 b 699 -92 677 -123 687 -107 b 743 -45 712 -76 726 -60 b 794 0 760 -30 777 -15 l 867 0 l 667 983 l 543 983 l -94 0 l 65 0 l 215 242 l 676 242 l 722 3 b 667 -40 705 -10 686 -24 b 615 -90 648 -55 631 -72 b 575 -149 598 -109 585 -128 b 560 -212 565 -169 560 -190 b 593 -291 560 -248 571 -274 b 675 -317 615 -308 643 -317 b 746 -303 699 -317 723 -312 b 813 -265 769 -294 791 -281 z m 286 363 l 574 829 l 657 363 z "},"ą":{"ha":746,"x_min":0,"x_max":0,"o":"m 544 -265 l 525 -204 b 447 -233 501 -224 475 -233 b 407 -223 431 -233 418 -230 b 390 -185 396 -216 390 -203 b 401 -139 390 -170 394 -155 b 431 -92 409 -123 419 -107 b 475 -45 444 -76 458 -60 b 526 0 492 -30 509 -15 l 574 0 b 578 69 574 19 575 41 b 589 149 581 96 584 123 l 638 415 b 642 449 639 425 641 436 b 643 482 643 463 643 474 b 622 572 643 517 636 547 b 567 633 608 597 590 617 b 490 666 545 648 519 659 b 399 676 460 673 430 676 b 254 652 350 676 301 668 b 131 586 207 636 166 614 l 183 500 b 275 551 209 520 240 538 b 381 572 310 565 345 572 b 483 547 425 572 459 564 b 519 463 507 529 519 501 b 518 442 519 456 519 449 b 514 411 517 434 516 424 b 340 402 456 411 399 408 b 183 366 282 396 229 384 b 68 290 136 348 98 322 b 24 160 38 257 24 213 b 43 76 24 126 30 99 b 92 23 56 54 72 36 b 158 -6 112 9 134 0 b 228 -14 182 -11 206 -14 b 358 11 278 -14 321 -6 b 461 92 395 28 430 55 l 464 92 b 456 3 458 62 456 32 b 400 -39 438 -9 419 -23 b 347 -90 381 -55 363 -72 b 308 -148 331 -108 318 -127 b 292 -212 297 -169 292 -190 b 325 -291 292 -248 303 -274 b 407 -317 347 -308 375 -317 b 478 -303 431 -317 455 -312 b 544 -265 501 -294 523 -281 z m 479 317 l 500 317 l 490 268 b 465 197 486 243 477 219 b 418 139 452 175 437 156 b 353 99 400 122 378 109 b 272 85 328 90 301 85 b 228 89 257 85 243 86 b 190 104 214 92 201 97 b 162 133 178 112 169 121 b 151 178 155 144 151 159 b 182 250 151 207 162 231 b 260 292 202 269 228 283 b 367 312 292 302 328 309 b 479 317 406 315 443 317 z "},"Ć":{"ha":972,"x_min":0,"x_max":0,"o":"m 906 154 l 814 231 b 682 126 775 183 731 149 b 526 93 633 104 581 93 b 393 118 476 93 432 101 b 295 187 354 135 322 158 b 235 289 269 216 249 250 b 215 414 222 328 215 369 b 247 590 215 474 226 533 b 338 743 269 648 299 699 b 476 851 376 788 423 823 b 653 892 530 878 589 892 b 733 881 682 892 709 888 b 798 853 757 874 779 865 b 846 815 817 842 833 829 b 876 774 859 801 869 788 l 989 856 b 933 918 975 879 956 900 b 856 966 910 937 884 953 b 762 997 827 979 796 990 b 657 1008 728 1005 693 1008 b 428 960 575 1008 499 992 b 243 830 358 928 296 885 b 119 636 190 775 149 710 b 74 397 89 562 74 482 b 106 225 74 334 84 277 b 195 92 127 173 157 129 b 334 6 234 55 280 26 b 514 -25 388 -15 448 -25 b 642 -11 560 -25 603 -20 b 750 27 682 -2 718 11 b 838 84 782 43 812 62 b 906 154 863 106 886 129 z m 676 1061 l 901 1261 l 747 1261 l 574 1061 z "},"ć":{"ha":689,"x_min":0,"x_max":0,"o":"m 582 490 l 682 565 b 640 615 671 585 657 601 b 583 649 622 629 603 641 b 516 669 562 658 540 665 b 444 676 492 674 469 676 b 281 643 384 676 330 665 b 155 553 231 621 190 591 b 74 423 120 516 93 472 b 46 267 55 373 46 321 b 68 151 46 224 53 185 b 131 61 83 116 104 86 b 228 3 157 36 190 17 b 357 -18 267 -11 310 -18 b 506 13 413 -18 463 -8 b 624 97 549 34 588 62 l 546 169 b 471 113 525 146 500 127 b 365 90 442 98 407 90 b 283 106 334 90 306 95 b 224 147 259 116 239 129 b 188 207 208 164 196 184 b 176 282 180 230 176 255 b 196 392 176 321 183 358 b 250 484 209 427 227 458 b 333 547 273 510 301 531 b 438 569 365 562 400 569 b 526 547 470 569 499 562 b 582 490 552 531 571 513 z m 471 783 l 696 983 l 542 983 l 368 783 z "},"Ĉ":{"ha":972,"x_min":0,"x_max":0,"o":"m 906 154 l 814 231 b 682 126 775 183 731 149 b 526 93 633 104 581 93 b 393 118 476 93 432 101 b 295 187 354 135 322 158 b 235 289 269 216 249 250 b 215 414 222 328 215 369 b 247 590 215 474 226 533 b 338 743 269 648 299 699 b 476 851 376 788 423 823 b 653 892 530 878 589 892 b 733 881 682 892 709 888 b 798 853 757 874 779 865 b 846 815 817 842 833 829 b 876 774 859 801 869 788 l 989 856 b 933 918 975 879 956 900 b 856 966 910 937 884 953 b 762 997 827 979 796 990 b 657 1008 728 1005 693 1008 b 428 960 575 1008 499 992 b 243 830 358 928 296 885 b 119 636 190 775 149 710 b 74 397 89 562 74 482 b 106 225 74 334 84 277 b 195 92 127 173 157 129 b 334 6 234 55 280 26 b 514 -25 388 -15 448 -25 b 642 -11 560 -25 603 -20 b 750 27 682 -2 718 11 b 838 84 782 43 812 62 b 906 154 863 106 886 129 z m 921 1061 l 801 1261 l 654 1261 l 463 1061 l 589 1061 l 719 1199 l 801 1061 z "},"ĉ":{"ha":689,"x_min":0,"x_max":0,"o":"m 582 490 l 682 565 b 640 615 671 585 657 601 b 583 649 622 629 603 641 b 516 669 562 658 540 665 b 444 676 492 674 469 676 b 281 643 384 676 330 665 b 155 553 231 621 190 591 b 74 423 120 516 93 472 b 46 267 55 373 46 321 b 68 151 46 224 53 185 b 131 61 83 116 104 86 b 228 3 157 36 190 17 b 357 -18 267 -11 310 -18 b 506 13 413 -18 463 -8 b 624 97 549 34 588 62 l 546 169 b 471 113 525 146 500 127 b 365 90 442 98 407 90 b 283 106 334 90 306 95 b 224 147 259 116 239 129 b 188 207 208 164 196 184 b 176 282 180 230 176 255 b 196 392 176 321 183 358 b 250 484 209 427 227 458 b 333 547 273 510 301 531 b 438 569 365 562 400 569 b 526 547 470 569 499 562 b 582 490 552 531 571 513 z m 713 783 l 593 983 l 446 983 l 254 783 l 381 783 l 511 921 l 593 783 z "},"Ċ":{"ha":972,"x_min":0,"x_max":0,"o":"m 906 154 l 814 231 b 682 126 775 183 731 149 b 526 93 633 104 581 93 b 393 118 476 93 432 101 b 295 187 354 135 322 158 b 235 289 269 216 249 250 b 215 414 222 328 215 369 b 247 590 215 474 226 533 b 338 743 269 648 299 699 b 476 851 376 788 423 823 b 653 892 530 878 589 892 b 733 881 682 892 709 888 b 798 853 757 874 779 865 b 846 815 817 842 833 829 b 876 774 859 801 869 788 l 989 856 b 933 918 975 879 956 900 b 856 966 910 937 884 953 b 762 997 827 979 796 990 b 657 1008 728 1005 693 1008 b 428 960 575 1008 499 992 b 243 830 358 928 296 885 b 119 636 190 775 149 710 b 74 397 89 562 74 482 b 106 225 74 334 84 277 b 195 92 127 173 157 129 b 334 6 234 55 280 26 b 514 -25 388 -15 448 -25 b 642 -11 560 -25 603 -20 b 750 27 682 -2 718 11 b 838 84 782 43 812 62 b 906 154 863 106 886 129 z m 779 1176 b 756 1235 779 1200 772 1220 b 700 1257 741 1250 722 1257 b 641 1233 678 1257 658 1249 b 615 1171 624 1216 615 1196 b 640 1113 615 1146 623 1126 b 697 1092 656 1099 675 1092 b 756 1117 720 1092 740 1100 b 779 1176 771 1133 779 1153 z "},"ċ":{"ha":689,"x_min":0,"x_max":0,"o":"m 582 490 l 682 565 b 640 615 671 585 657 601 b 583 649 622 629 603 641 b 516 669 562 658 540 665 b 444 676 492 674 469 676 b 281 643 384 676 330 665 b 155 553 231 621 190 591 b 74 423 120 516 93 472 b 46 267 55 373 46 321 b 68 151 46 224 53 185 b 131 61 83 116 104 86 b 228 3 157 36 190 17 b 357 -18 267 -11 310 -18 b 506 13 413 -18 463 -8 b 624 97 549 34 588 62 l 546 169 b 471 113 525 146 500 127 b 365 90 442 98 407 90 b 283 106 334 90 306 95 b 224 147 259 116 239 129 b 188 207 208 164 196 184 b 176 282 180 230 176 255 b 196 392 176 321 183 358 b 250 484 209 427 227 458 b 333 547 273 510 301 531 b 438 569 365 562 400 569 b 526 547 470 569 499 562 b 582 490 552 531 571 513 z m 572 899 b 549 957 572 923 565 942 b 493 979 534 972 515 979 b 434 955 471 979 451 971 b 408 893 417 939 408 918 b 433 835 408 868 416 849 b 490 814 449 821 468 814 b 549 839 513 814 533 822 b 572 899 564 856 572 875 z "},"Č":{"ha":972,"x_min":0,"x_max":0,"o":"m 906 154 l 814 231 b 682 126 775 183 731 149 b 526 93 633 104 581 93 b 393 118 476 93 432 101 b 295 187 354 135 322 158 b 235 289 269 216 249 250 b 215 414 222 328 215 369 b 247 590 215 474 226 533 b 338 743 269 648 299 699 b 476 851 376 788 423 823 b 653 892 530 878 589 892 b 733 881 682 892 709 888 b 798 853 757 874 779 865 b 846 815 817 842 833 829 b 876 774 859 801 869 788 l 989 856 b 933 918 975 879 956 900 b 856 966 910 937 884 953 b 762 997 827 979 796 990 b 657 1008 728 1005 693 1008 b 428 960 575 1008 499 992 b 243 830 358 928 296 885 b 119 636 190 775 149 710 b 74 397 89 562 74 482 b 106 225 74 334 84 277 b 195 92 127 173 157 129 b 334 6 234 55 280 26 b 514 -25 388 -15 448 -25 b 642 -11 560 -25 603 -20 b 750 27 682 -2 718 11 b 838 84 782 43 812 62 b 906 154 863 106 886 129 z m 754 1061 l 944 1261 l 819 1261 l 689 1124 l 608 1261 l 488 1261 l 607 1061 z "},"č":{"ha":689,"x_min":0,"x_max":0,"o":"m 582 490 l 682 565 b 640 615 671 585 657 601 b 583 649 622 629 603 641 b 516 669 562 658 540 665 b 444 676 492 674 469 676 b 281 643 384 676 330 665 b 155 553 231 621 190 591 b 74 423 120 516 93 472 b 46 267 55 373 46 321 b 68 151 46 224 53 185 b 131 61 83 116 104 86 b 228 3 157 36 190 17 b 357 -18 267 -11 310 -18 b 506 13 413 -18 463 -8 b 624 97 549 34 588 62 l 546 169 b 471 113 525 146 500 127 b 365 90 442 98 407 90 b 283 106 334 90 306 95 b 224 147 259 116 239 129 b 188 207 208 164 196 184 b 176 282 180 230 176 255 b 196 392 176 321 183 358 b 250 484 209 427 227 458 b 333 547 273 510 301 531 b 438 569 365 562 400 569 b 526 547 470 569 499 562 b 582 490 552 531 571 513 z m 543 783 l 733 983 l 608 983 l 478 846 l 397 983 l 276 983 l 396 783 z "},"Ď":{"ha":1051,"x_min":0,"x_max":0,"o":"m 218 983 l 44 0 l 394 0 b 633 41 481 0 560 14 b 824 157 706 68 770 107 b 949 338 877 207 919 267 b 994 572 979 408 994 486 b 954 760 994 645 981 708 b 849 888 927 813 892 855 b 701 960 805 921 756 945 b 536 983 647 976 592 983 z m 200 119 l 332 867 l 503 867 b 659 842 563 867 615 858 b 767 774 703 825 739 803 b 831 676 796 746 817 713 b 851 556 844 638 851 598 b 823 394 851 500 842 446 b 738 254 804 341 775 295 b 597 156 700 213 653 181 b 401 119 541 132 475 119 z m 647 1061 l 838 1261 l 713 1261 l 582 1124 l 501 1261 l 381 1261 l 500 1061 z "},"ď":{"ha":872,"x_min":0,"x_max":0,"o":"m 42 268 b 63 152 42 225 49 187 b 121 63 76 117 96 88 b 211 4 146 38 176 18 b 329 -17 246 -10 286 -17 b 469 17 380 -17 427 -5 b 569 106 512 40 545 69 l 572 106 l 554 0 l 679 0 l 865 1050 l 736 1050 l 649 550 l 646 550 b 556 643 625 590 596 621 b 417 676 517 665 470 676 b 266 644 362 676 312 666 b 147 557 220 623 181 594 b 69 427 114 520 88 477 b 42 268 51 378 42 325 z m 175 281 b 193 394 175 320 181 358 b 244 486 205 429 222 460 b 325 548 267 512 294 533 b 431 571 356 563 392 571 b 508 556 459 571 485 566 b 568 517 531 547 551 533 b 606 456 585 500 597 480 b 619 379 615 433 619 407 b 599 268 619 340 613 303 b 544 176 586 233 567 202 b 460 113 520 149 492 128 b 358 90 428 98 394 90 b 222 145 299 90 254 109 b 175 281 191 182 175 227 z m 976 719 l 1143 983 l 1014 983 l 869 719 z "},"Đ":{"ha":1051,"x_min":0,"x_max":0,"o":"m 218 983 l 144 563 l 53 563 l 35 467 l 126 467 l 44 0 l 394 0 b 633 41 481 0 560 14 b 824 157 706 68 770 107 b 949 338 877 207 919 267 b 994 572 979 408 994 486 b 954 760 994 645 981 708 b 849 888 927 813 892 855 b 701 960 805 921 756 945 b 536 983 647 976 592 983 z m 200 119 l 261 467 l 578 467 l 597 563 l 278 563 l 332 867 l 503 867 b 659 842 563 867 615 858 b 767 774 703 825 739 803 b 831 676 796 746 817 713 b 851 556 844 638 851 598 b 823 394 851 500 842 446 b 738 254 804 341 775 295 b 597 156 700 213 653 181 b 401 119 541 132 475 119 z "},"đ":{"ha":872,"x_min":0,"x_max":0,"o":"m 706 879 l 479 879 l 464 792 l 690 792 l 649 550 l 646 550 b 556 643 625 590 596 621 b 417 676 517 665 470 676 b 266 644 362 676 312 666 b 147 557 220 623 181 594 b 69 427 114 520 88 477 b 42 268 51 378 42 325 b 63 152 42 225 49 187 b 121 63 76 117 96 88 b 211 4 146 38 176 18 b 329 -17 246 -10 286 -17 b 469 17 380 -17 427 -5 b 569 106 512 40 545 69 l 572 106 l 554 0 l 679 0 l 819 792 l 899 792 l 914 879 l 835 879 l 865 1050 l 736 1050 z m 175 281 b 193 394 175 320 181 358 b 244 486 205 429 222 460 b 325 548 267 512 294 533 b 431 571 356 563 392 571 b 508 556 459 571 485 566 b 568 517 531 547 551 533 b 606 456 585 500 597 480 b 619 379 615 433 619 407 b 599 268 619 340 613 303 b 544 176 586 233 567 202 b 460 113 520 149 492 128 b 358 90 428 98 394 90 b 222 145 299 90 254 109 b 175 281 191 182 175 227 z "},"Ē":{"ha":808,"x_min":0,"x_max":0,"o":"m 200 121 l 258 451 l 708 451 l 729 567 l 279 567 l 331 864 l 803 864 l 824 983 l 218 983 l 44 0 l 689 0 l 710 121 z m 740 1107 l 757 1199 l 347 1199 l 332 1107 z "},"ē":{"ha":785,"x_min":0,"x_max":0,"o":"m 169 290 l 686 290 b 697 359 691 312 694 334 b 700 415 699 384 700 402 b 626 608 700 498 675 562 b 426 676 577 653 511 676 b 274 644 372 676 321 666 b 151 558 226 623 186 594 b 71 429 117 521 90 478 b 42 274 51 380 42 328 b 65 150 42 227 49 186 b 128 58 80 114 101 83 b 226 1 156 33 188 14 b 347 -18 263 -12 304 -18 b 510 16 406 -18 460 -7 b 643 117 560 39 604 72 l 567 189 b 481 117 544 160 515 136 b 360 89 447 98 407 89 b 284 102 333 89 308 93 b 223 140 260 111 240 123 b 183 197 206 156 192 175 b 168 268 173 218 168 242 l 168 278 b 169 290 168 282 169 286 z m 576 385 l 183 385 b 212 454 189 408 198 431 b 262 515 225 477 242 498 b 331 558 282 533 305 547 b 417 575 356 569 385 575 b 538 533 469 575 510 561 b 579 426 565 504 579 469 b 578 406 579 420 579 413 b 576 385 578 398 577 391 z m 674 829 l 690 921 l 281 921 l 265 829 z "},"Ĕ":{"ha":808,"x_min":0,"x_max":0,"o":"m 200 121 l 258 451 l 708 451 l 729 567 l 279 567 l 331 864 l 803 864 l 824 983 l 218 983 l 44 0 l 689 0 l 710 121 z m 781 1261 l 704 1261 b 645 1183 694 1223 674 1197 b 543 1161 616 1168 582 1161 b 494 1166 525 1161 509 1163 b 454 1183 478 1169 465 1175 b 428 1214 443 1191 434 1201 b 418 1261 421 1227 418 1243 l 340 1261 b 393 1116 340 1195 358 1147 b 538 1069 428 1085 476 1069 b 695 1119 599 1069 651 1086 b 781 1261 739 1153 768 1200 z "},"ĕ":{"ha":785,"x_min":0,"x_max":0,"o":"m 169 290 l 686 290 b 697 359 691 312 694 334 b 700 415 699 384 700 402 b 626 608 700 498 675 562 b 426 676 577 653 511 676 b 274 644 372 676 321 666 b 151 558 226 623 186 594 b 71 429 117 521 90 478 b 42 274 51 380 42 328 b 65 150 42 227 49 186 b 128 58 80 114 101 83 b 226 1 156 33 188 14 b 347 -18 263 -12 304 -18 b 510 16 406 -18 460 -7 b 643 117 560 39 604 72 l 567 189 b 481 117 544 160 515 136 b 360 89 447 98 407 89 b 284 102 333 89 308 93 b 223 140 260 111 240 123 b 183 197 206 156 192 175 b 168 268 173 218 168 242 l 168 278 b 169 290 168 282 169 286 z m 576 385 l 183 385 b 212 454 189 408 198 431 b 262 515 225 477 242 498 b 331 558 282 533 305 547 b 417 575 356 569 385 575 b 538 533 469 575 510 561 b 579 426 565 504 579 469 b 578 406 579 420 579 413 b 576 385 578 398 577 391 z m 707 983 l 631 983 b 572 905 620 945 601 919 b 469 883 542 891 508 883 b 420 888 452 883 435 885 b 381 905 405 891 392 897 b 354 936 369 913 361 923 b 344 983 348 949 344 965 l 267 983 b 319 838 267 918 284 869 b 464 792 355 807 403 792 b 622 842 525 792 578 808 b 707 983 666 875 694 922 z "},"Ė":{"ha":808,"x_min":0,"x_max":0,"o":"m 200 121 l 258 451 l 708 451 l 729 567 l 279 567 l 331 864 l 803 864 l 824 983 l 218 983 l 44 0 l 689 0 l 710 121 z m 628 1176 b 605 1235 628 1200 620 1220 b 549 1257 590 1250 571 1257 b 490 1233 526 1257 507 1249 b 464 1171 472 1216 464 1196 b 488 1113 464 1146 472 1126 b 546 1092 504 1099 524 1092 b 604 1117 569 1092 588 1100 b 628 1176 620 1133 628 1153 z "},"ė":{"ha":785,"x_min":0,"x_max":0,"o":"m 169 290 l 686 290 b 697 359 691 312 694 334 b 700 415 699 384 700 402 b 626 608 700 498 675 562 b 426 676 577 653 511 676 b 274 644 372 676 321 666 b 151 558 226 623 186 594 b 71 429 117 521 90 478 b 42 274 51 380 42 328 b 65 150 42 227 49 186 b 128 58 80 114 101 83 b 226 1 156 33 188 14 b 347 -18 263 -12 304 -18 b 510 16 406 -18 460 -7 b 643 117 560 39 604 72 l 567 189 b 481 117 544 160 515 136 b 360 89 447 98 407 89 b 284 102 333 89 308 93 b 223 140 260 111 240 123 b 183 197 206 156 192 175 b 168 268 173 218 168 242 l 168 278 b 169 290 168 282 169 286 z m 576 385 l 183 385 b 212 454 189 408 198 431 b 262 515 225 477 242 498 b 331 558 282 533 305 547 b 417 575 356 569 385 575 b 538 533 469 575 510 561 b 579 426 565 504 579 469 b 578 406 579 420 579 413 b 576 385 578 398 577 391 z m 560 899 b 537 957 560 923 552 942 b 481 979 522 972 503 979 b 422 955 458 979 439 971 b 396 893 404 939 396 918 b 420 835 396 868 404 849 b 478 814 436 821 456 814 b 536 839 501 814 520 822 b 560 899 552 856 560 875 z "},"Ę":{"ha":808,"x_min":0,"x_max":0,"o":"m 681 -265 l 661 -204 b 583 -233 637 -224 611 -233 b 543 -223 568 -233 554 -230 b 526 -185 532 -216 526 -203 b 538 -139 526 -170 530 -155 b 567 -92 545 -123 555 -107 b 611 -45 580 -76 594 -60 b 663 0 628 -30 645 -15 l 689 0 l 710 121 l 200 121 l 258 451 l 708 451 l 729 567 l 279 567 l 331 864 l 803 864 l 824 983 l 218 983 l 44 0 l 586 0 b 532 -42 569 -13 550 -27 b 481 -92 513 -58 497 -74 b 443 -150 466 -110 453 -130 b 428 -212 433 -170 428 -191 b 461 -291 428 -248 439 -274 b 543 -317 483 -308 511 -317 b 614 -303 567 -317 591 -312 b 681 -265 637 -294 659 -281 z "},"ę":{"ha":785,"x_min":0,"x_max":0,"o":"m 436 -265 l 417 -204 b 339 -233 393 -224 367 -233 b 299 -223 323 -233 310 -230 b 282 -185 288 -216 282 -203 b 317 -99 282 -157 294 -128 b 401 -14 341 -70 369 -42 b 533 28 449 -7 493 6 b 643 117 574 49 611 79 l 567 189 b 481 117 544 160 515 136 b 360 89 447 98 407 89 b 284 102 333 89 308 93 b 223 140 260 111 240 123 b 183 197 206 156 192 175 b 168 268 173 218 168 242 l 168 278 b 169 290 168 282 169 286 l 686 290 b 697 359 691 312 694 334 b 700 415 699 384 700 402 b 626 608 700 498 675 562 b 426 676 577 653 511 676 b 274 644 372 676 321 666 b 151 558 226 623 186 594 b 71 429 117 521 90 478 b 42 274 51 380 42 328 b 63 156 42 230 49 191 b 120 67 76 122 96 92 b 208 9 145 43 174 23 b 319 -17 241 -5 279 -14 b 270 -58 303 -30 286 -43 b 226 -104 254 -72 239 -87 b 195 -156 213 -121 203 -138 b 183 -212 187 -174 183 -193 b 217 -291 183 -248 194 -274 b 299 -317 239 -308 266 -317 b 369 -303 323 -317 346 -312 b 436 -265 393 -294 415 -281 z m 576 385 l 183 385 b 212 454 189 408 198 431 b 262 515 225 477 242 498 b 331 558 282 533 305 547 b 417 575 356 569 385 575 b 538 533 469 575 510 561 b 579 426 565 504 579 469 b 578 406 579 420 579 413 b 576 385 578 398 577 391 z "},"Ě":{"ha":808,"x_min":0,"x_max":0,"o":"m 200 121 l 258 451 l 708 451 l 729 567 l 279 567 l 331 864 l 803 864 l 824 983 l 218 983 l 44 0 l 689 0 l 710 121 z m 607 1061 l 797 1261 l 672 1261 l 542 1124 l 461 1261 l 340 1261 l 460 1061 z "},"ě":{"ha":785,"x_min":0,"x_max":0,"o":"m 169 290 l 686 290 b 697 359 691 312 694 334 b 700 415 699 384 700 402 b 626 608 700 498 675 562 b 426 676 577 653 511 676 b 274 644 372 676 321 666 b 151 558 226 623 186 594 b 71 429 117 521 90 478 b 42 274 51 380 42 328 b 65 150 42 227 49 186 b 128 58 80 114 101 83 b 226 1 156 33 188 14 b 347 -18 263 -12 304 -18 b 510 16 406 -18 460 -7 b 643 117 560 39 604 72 l 567 189 b 481 117 544 160 515 136 b 360 89 447 98 407 89 b 284 102 333 89 308 93 b 223 140 260 111 240 123 b 183 197 206 156 192 175 b 168 268 173 218 168 242 l 168 278 b 169 290 168 282 169 286 z m 576 385 l 183 385 b 212 454 189 408 198 431 b 262 515 225 477 242 498 b 331 558 282 533 305 547 b 417 575 356 569 385 575 b 538 533 469 575 510 561 b 579 426 565 504 579 469 b 578 406 579 420 579 413 b 576 385 578 398 577 391 z m 525 783 l 715 983 l 590 983 l 460 846 l 379 983 l 258 983 l 378 783 z "},"Ĝ":{"ha":1049,"x_min":0,"x_max":0,"o":"m 538 93 b 400 117 486 93 440 101 b 299 185 360 134 327 156 b 237 287 272 213 251 247 b 215 414 222 326 215 369 b 247 590 215 474 226 533 b 338 743 269 648 299 699 b 476 851 376 788 423 823 b 653 892 530 878 589 892 b 799 856 712 892 761 880 b 883 774 837 831 865 804 l 996 856 b 856 969 963 906 917 944 b 657 1008 796 995 729 1008 b 428 960 575 1008 499 992 b 243 830 358 928 296 885 b 119 636 190 775 149 710 b 74 397 89 562 74 482 b 106 225 74 334 84 277 b 197 92 127 173 157 129 b 338 6 236 55 283 26 b 521 -25 393 -15 454 -25 b 710 -3 586 -25 649 -18 b 883 61 772 11 830 32 l 967 538 l 614 538 l 592 421 l 814 421 l 765 146 b 538 93 705 112 629 94 z m 908 1061 l 789 1261 l 642 1261 l 450 1061 l 576 1061 l 707 1199 l 789 1061 z "},"ĝ":{"ha":875,"x_min":0,"x_max":0,"o":"m 71 -115 l -15 -208 b 122 -301 19 -248 65 -279 b 296 -333 178 -322 237 -333 b 470 -303 365 -333 423 -323 b 585 -222 517 -282 555 -255 b 655 -105 616 -188 639 -149 b 692 32 671 -61 683 -15 l 801 658 l 676 658 l 658 551 l 654 551 b 568 643 637 590 608 621 b 428 676 528 665 481 676 b 278 645 373 676 323 666 b 160 560 232 624 193 596 b 82 433 126 524 100 481 b 54 279 63 385 54 334 b 74 164 54 238 61 199 b 132 74 88 129 107 99 b 222 15 157 49 187 29 b 340 -7 257 0 297 -7 b 476 24 390 -7 436 3 b 578 110 517 45 551 74 l 581 110 l 564 22 b 535 -74 556 -12 547 -44 b 485 -151 523 -103 506 -129 b 408 -202 465 -172 439 -190 b 297 -221 378 -215 341 -221 b 167 -192 251 -221 208 -211 b 71 -115 127 -173 95 -148 z m 186 289 b 205 401 186 330 192 367 b 257 490 217 436 235 465 b 338 549 279 515 306 535 b 442 571 369 564 404 571 b 580 517 500 571 546 553 b 631 381 614 481 631 435 b 611 272 631 343 624 306 b 557 183 598 238 580 208 b 475 122 534 157 506 137 b 372 99 444 106 409 99 b 293 113 343 99 316 103 b 235 154 270 123 250 137 b 199 215 219 172 207 192 b 186 289 190 237 186 262 z m 732 783 l 613 983 l 465 983 l 274 783 l 400 783 l 531 921 l 613 783 z "},"Ğ":{"ha":1049,"x_min":0,"x_max":0,"o":"m 538 93 b 400 117 486 93 440 101 b 299 185 360 134 327 156 b 237 287 272 213 251 247 b 215 414 222 326 215 369 b 247 590 215 474 226 533 b 338 743 269 648 299 699 b 476 851 376 788 423 823 b 653 892 530 878 589 892 b 799 856 712 892 761 880 b 883 774 837 831 865 804 l 996 856 b 856 969 963 906 917 944 b 657 1008 796 995 729 1008 b 428 960 575 1008 499 992 b 243 830 358 928 296 885 b 119 636 190 775 149 710 b 74 397 89 562 74 482 b 106 225 74 334 84 277 b 197 92 127 173 157 129 b 338 6 236 55 283 26 b 521 -25 393 -15 454 -25 b 710 -3 586 -25 649 -18 b 883 61 772 11 830 32 l 967 538 l 614 538 l 592 421 l 814 421 l 765 146 b 538 93 705 112 629 94 z m 917 1261 l 840 1261 b 781 1183 830 1223 810 1197 b 679 1161 752 1168 718 1161 b 630 1166 662 1161 645 1163 b 590 1183 615 1169 601 1175 b 564 1214 579 1191 570 1201 b 554 1261 557 1227 554 1243 l 476 1261 b 529 1116 476 1195 494 1147 b 674 1069 564 1085 613 1069 b 831 1119 735 1069 787 1086 b 917 1261 875 1153 904 1200 z "},"ğ":{"ha":875,"x_min":0,"x_max":0,"o":"m 71 -115 l -15 -208 b 122 -301 19 -248 65 -279 b 296 -333 178 -322 237 -333 b 470 -303 365 -333 423 -323 b 585 -222 517 -282 555 -255 b 655 -105 616 -188 639 -149 b 692 32 671 -61 683 -15 l 801 658 l 676 658 l 658 551 l 654 551 b 568 643 637 590 608 621 b 428 676 528 665 481 676 b 278 645 373 676 323 666 b 160 560 232 624 193 596 b 82 433 126 524 100 481 b 54 279 63 385 54 334 b 74 164 54 238 61 199 b 132 74 88 129 107 99 b 222 15 157 49 187 29 b 340 -7 257 0 297 -7 b 476 24 390 -7 436 3 b 578 110 517 45 551 74 l 581 110 l 564 22 b 535 -74 556 -12 547 -44 b 485 -151 523 -103 506 -129 b 408 -202 465 -172 439 -190 b 297 -221 378 -215 341 -221 b 167 -192 251 -221 208 -211 b 71 -115 127 -173 95 -148 z m 186 289 b 205 401 186 330 192 367 b 257 490 217 436 235 465 b 338 549 279 515 306 535 b 442 571 369 564 404 571 b 580 517 500 571 546 553 b 631 381 614 481 631 435 b 611 272 631 343 624 306 b 557 183 598 238 580 208 b 475 122 534 157 506 137 b 372 99 444 106 409 99 b 293 113 343 99 316 103 b 235 154 270 123 250 137 b 199 215 219 172 207 192 b 186 289 190 237 186 262 z m 743 983 l 667 983 b 608 905 656 945 637 919 b 506 883 578 891 544 883 b 456 888 488 883 472 885 b 417 905 441 891 428 897 b 390 936 406 913 397 923 b 381 983 384 949 381 965 l 303 983 b 356 838 303 918 320 869 b 500 792 391 807 439 792 b 658 842 561 792 614 808 b 743 983 702 875 730 922 z "},"Ġ":{"ha":1049,"x_min":0,"x_max":0,"o":"m 538 93 b 400 117 486 93 440 101 b 299 185 360 134 327 156 b 237 287 272 213 251 247 b 215 414 222 326 215 369 b 247 590 215 474 226 533 b 338 743 269 648 299 699 b 476 851 376 788 423 823 b 653 892 530 878 589 892 b 799 856 712 892 761 880 b 883 774 837 831 865 804 l 996 856 b 856 969 963 906 917 944 b 657 1008 796 995 729 1008 b 428 960 575 1008 499 992 b 243 830 358 928 296 885 b 119 636 190 775 149 710 b 74 397 89 562 74 482 b 106 225 74 334 84 277 b 197 92 127 173 157 129 b 338 6 236 55 283 26 b 521 -25 393 -15 454 -25 b 710 -3 586 -25 649 -18 b 883 61 772 11 830 32 l 967 538 l 614 538 l 592 421 l 814 421 l 765 146 b 538 93 705 112 629 94 z m 778 1176 b 755 1235 778 1200 770 1220 b 699 1257 740 1250 721 1257 b 640 1233 676 1257 657 1249 b 614 1171 622 1216 614 1196 b 638 1113 614 1146 622 1126 b 696 1092 654 1099 674 1092 b 754 1117 719 1092 738 1100 b 778 1176 770 1133 778 1153 z "},"ġ":{"ha":875,"x_min":0,"x_max":0,"o":"m 71 -115 l -15 -208 b 122 -301 19 -248 65 -279 b 296 -333 178 -322 237 -333 b 470 -303 365 -333 423 -323 b 585 -222 517 -282 555 -255 b 655 -105 616 -188 639 -149 b 692 32 671 -61 683 -15 l 801 658 l 676 658 l 658 551 l 654 551 b 568 643 637 590 608 621 b 428 676 528 665 481 676 b 278 645 373 676 323 666 b 160 560 232 624 193 596 b 82 433 126 524 100 481 b 54 279 63 385 54 334 b 74 164 54 238 61 199 b 132 74 88 129 107 99 b 222 15 157 49 187 29 b 340 -7 257 0 297 -7 b 476 24 390 -7 436 3 b 578 110 517 45 551 74 l 581 110 l 564 22 b 535 -74 556 -12 547 -44 b 485 -151 523 -103 506 -129 b 408 -202 465 -172 439 -190 b 297 -221 378 -215 341 -221 b 167 -192 251 -221 208 -211 b 71 -115 127 -173 95 -148 z m 186 289 b 205 401 186 330 192 367 b 257 490 217 436 235 465 b 338 549 279 515 306 535 b 442 571 369 564 404 571 b 580 517 500 571 546 553 b 631 381 614 481 631 435 b 611 272 631 343 624 306 b 557 183 598 238 580 208 b 475 122 534 157 506 137 b 372 99 444 106 409 99 b 293 113 343 99 316 103 b 235 154 270 123 250 137 b 199 215 219 172 207 192 b 186 289 190 237 186 262 z m 594 899 b 572 957 594 923 587 942 b 515 979 556 972 538 979 b 456 955 493 979 473 971 b 431 893 439 939 431 918 b 455 835 431 868 439 849 b 513 814 471 821 490 814 b 571 839 536 814 555 822 b 594 899 587 856 594 875 z "},"Ģ":{"ha":1049,"x_min":0,"x_max":0,"o":"m 538 93 b 400 117 486 93 440 101 b 299 185 360 134 327 156 b 237 287 272 213 251 247 b 215 414 222 326 215 369 b 247 590 215 474 226 533 b 338 743 269 648 299 699 b 476 851 376 788 423 823 b 653 892 530 878 589 892 b 799 856 712 892 761 880 b 883 774 837 831 865 804 l 996 856 b 856 969 963 906 917 944 b 657 1008 796 995 729 1008 b 428 960 575 1008 499 992 b 243 830 358 928 296 885 b 119 636 190 775 149 710 b 74 397 89 562 74 482 b 106 225 74 334 84 277 b 197 92 127 173 157 129 b 338 6 236 55 283 26 b 521 -25 393 -15 454 -25 b 710 -3 586 -25 649 -18 b 883 61 772 11 830 32 l 967 538 l 614 538 l 592 421 l 814 421 l 765 146 b 538 93 705 112 629 94 z m 408 -326 l 575 -62 l 446 -62 l 301 -326 z "},"ģ":{"ha":875,"x_min":0,"x_max":0,"o":"m 71 -115 l -15 -208 b 122 -301 19 -248 65 -279 b 296 -333 178 -322 237 -333 b 470 -303 365 -333 423 -323 b 585 -222 517 -282 555 -255 b 655 -105 616 -188 639 -149 b 692 32 671 -61 683 -15 l 801 658 l 676 658 l 658 551 l 654 551 b 568 643 637 590 608 621 b 428 676 528 665 481 676 b 278 645 373 676 323 666 b 160 560 232 624 193 596 b 82 433 126 524 100 481 b 54 279 63 385 54 334 b 74 164 54 238 61 199 b 132 74 88 129 107 99 b 222 15 157 49 187 29 b 340 -7 257 0 297 -7 b 476 24 390 -7 436 3 b 578 110 517 45 551 74 l 581 110 l 564 22 b 535 -74 556 -12 547 -44 b 485 -151 523 -103 506 -129 b 408 -202 465 -172 439 -190 b 297 -221 378 -215 341 -221 b 167 -192 251 -221 208 -211 b 71 -115 127 -173 95 -148 z m 186 289 b 205 401 186 330 192 367 b 257 490 217 436 235 465 b 338 549 279 515 306 535 b 442 571 369 564 404 571 b 580 517 500 571 546 553 b 631 381 614 481 631 435 b 611 272 631 343 624 306 b 557 183 598 238 580 208 b 475 122 534 157 506 137 b 372 99 444 106 409 99 b 293 113 343 99 316 103 b 235 154 270 123 250 137 b 199 215 219 172 207 192 b 186 289 190 237 186 262 z m 575 1054 l 408 783 l 538 783 l 682 1054 z "},"Ĥ":{"ha":999,"x_min":0,"x_max":0,"o":"m 218 983 l 44 0 l 181 0 l 260 451 l 746 451 l 667 0 l 803 0 l 976 983 l 840 983 l 767 571 l 281 571 l 354 983 z m 836 1061 l 717 1261 l 569 1261 l 378 1061 l 504 1061 l 635 1199 l 717 1061 z "},"ĥ":{"ha":807,"x_min":0,"x_max":0,"o":"m 482 676 b 356 642 435 676 393 665 b 269 558 320 620 291 592 l 267 558 l 353 1050 l 224 1050 l 39 0 l 168 0 l 229 349 b 303 508 241 415 266 468 b 439 567 341 547 386 567 b 539 531 487 567 520 555 b 567 438 557 506 567 475 b 558 364 567 413 564 389 l 494 0 l 624 0 l 696 407 b 701 474 700 428 701 450 b 646 619 701 532 683 580 b 482 676 609 657 554 676 z m 765 1106 l 646 1306 l 499 1306 l 307 1106 l 433 1106 l 564 1243 l 646 1106 z "},"Ħ":{"ha":999,"x_min":0,"x_max":0,"o":"m 218 983 l 44 0 l 181 0 l 260 451 l 746 451 l 667 0 l 803 0 l 976 983 l 840 983 l 804 782 l 318 782 l 354 983 z m 767 571 l 281 571 l 303 694 l 789 694 z "},"ħ":{"ha":807,"x_min":0,"x_max":0,"o":"m 193 879 l 108 879 l 93 792 l 178 792 l 39 0 l 168 0 l 229 349 b 303 508 241 415 266 468 b 439 567 341 547 386 567 b 539 531 487 567 520 555 b 567 438 557 506 567 475 b 558 364 567 413 564 389 l 494 0 l 624 0 l 696 407 b 701 474 700 428 701 450 b 646 619 701 532 683 580 b 482 676 609 657 554 676 b 356 642 435 676 393 665 b 269 558 320 620 291 592 l 267 558 l 307 792 l 526 792 l 542 879 l 322 879 l 353 1050 l 224 1050 z "},"Ĩ":{"ha":376,"x_min":0,"x_max":0,"o":"m 181 0 l 354 983 l 218 983 l 44 0 z m 54 1072 l 131 1072 b 160 1117 138 1088 148 1103 b 208 1138 172 1131 188 1138 b 252 1128 222 1138 237 1134 b 299 1107 267 1122 283 1115 b 346 1088 314 1100 330 1093 b 394 1079 362 1082 378 1079 b 456 1093 418 1079 438 1084 b 504 1129 474 1102 490 1114 b 540 1180 518 1144 530 1161 b 565 1239 549 1199 558 1219 l 489 1239 b 460 1194 481 1223 472 1208 b 413 1174 448 1181 432 1174 b 371 1183 400 1174 386 1177 b 325 1203 356 1189 341 1195 b 277 1224 309 1211 293 1218 b 225 1232 261 1229 244 1232 b 162 1218 201 1232 180 1227 b 115 1182 144 1209 128 1197 b 79 1131 101 1167 89 1150 b 54 1072 69 1112 61 1093 z "},"ĩ":{"ha":360,"x_min":0,"x_max":0,"o":"m 168 0 l 285 658 l 156 658 l 40 0 z m -8 794 l 68 794 b 97 839 75 810 85 825 b 146 860 109 853 125 860 b 190 851 160 860 174 857 b 236 829 205 845 220 838 b 283 810 252 822 268 815 b 332 801 299 804 315 801 b 394 815 355 801 376 806 b 442 851 412 825 428 837 b 477 902 456 866 467 883 b 503 961 487 921 495 941 l 426 961 b 397 917 419 945 409 931 b 350 896 385 903 369 896 b 308 905 337 896 323 899 b 263 925 294 911 278 918 b 215 946 247 933 231 940 b 163 954 198 951 181 954 b 99 940 138 954 117 950 b 52 904 81 931 66 919 b 17 853 39 889 27 872 b -8 794 6 834 -2 815 z "},"Ī":{"ha":376,"x_min":0,"x_max":0,"o":"m 181 0 l 354 983 l 218 983 l 44 0 z m 508 1107 l 525 1199 l 115 1199 l 100 1107 z "},"ī":{"ha":360,"x_min":0,"x_max":0,"o":"m 168 0 l 285 658 l 156 658 l 40 0 z m 447 829 l 464 921 l 54 921 l 39 829 z "},"Į":{"ha":376,"x_min":0,"x_max":0,"o":"m 193 -265 l 174 -204 b 96 -233 150 -224 124 -233 b 56 -223 80 -233 67 -230 b 39 -185 44 -216 39 -203 b 50 -139 39 -170 43 -155 b 80 -92 57 -123 67 -107 b 124 -45 92 -76 107 -60 b 175 0 140 -30 157 -15 l 181 0 l 354 983 l 218 983 l 44 0 l 99 0 b 44 -42 81 -13 63 -27 b -6 -92 26 -58 9 -74 b -44 -150 -22 -110 -34 -130 b -60 -212 -55 -170 -60 -191 b -26 -291 -60 -248 -49 -274 b 56 -317 -4 -308 23 -317 b 126 -303 80 -317 103 -312 b 193 -265 150 -294 172 -281 z "},"į":{"ha":360,"x_min":0,"x_max":0,"o":"m 179 -265 l 160 -204 b 82 -233 136 -224 110 -233 b 42 -223 66 -233 53 -230 b 25 -185 31 -216 25 -203 b 36 -139 25 -170 29 -155 b 66 -92 44 -123 53 -107 b 110 -45 78 -76 93 -60 b 161 0 126 -30 144 -15 l 168 0 l 285 658 l 156 658 l 40 0 l 85 0 b 31 -42 67 -13 49 -27 b -20 -92 12 -58 -5 -74 b -58 -150 -35 -110 -48 -130 b -74 -212 -69 -170 -74 -191 b -40 -291 -74 -248 -62 -274 b 42 -317 -18 -308 9 -317 b 113 -303 66 -317 89 -312 b 179 -265 136 -294 158 -281 z m 340 899 b 317 957 340 923 333 942 b 261 979 302 972 283 979 b 202 955 239 979 219 971 b 176 893 185 939 176 918 b 201 835 176 868 184 849 b 258 814 217 821 236 814 b 317 839 281 814 301 822 b 340 899 332 856 340 875 z "},"İ":{"ha":376,"x_min":0,"x_max":0,"o":"m 181 0 l 354 983 l 218 983 l 44 0 z m 394 1176 b 372 1235 394 1200 387 1220 b 315 1257 356 1250 338 1257 b 256 1233 293 1257 273 1249 b 231 1171 239 1216 231 1196 b 255 1113 231 1146 239 1126 b 313 1092 271 1099 290 1092 b 371 1117 336 1092 355 1100 b 394 1176 387 1133 394 1153 z "},"ı":{"ha":360,"x_min":0,"x_max":0,"o":"m 168 0 l 285 658 l 156 658 l 40 0 z "},"Ĳ":{"ha":1054,"x_min":0,"x_max":0,"o":"m 181 0 l 354 983 l 218 983 l 44 0 z m 472 215 l 349 179 b 374 98 352 150 361 122 b 427 33 388 73 405 52 b 505 -10 449 15 475 0 b 607 -25 535 -20 569 -25 b 750 6 665 -25 713 -15 b 840 85 787 27 817 53 b 892 190 863 117 881 152 b 918 300 904 228 913 265 l 1039 983 l 903 983 l 783 307 b 765 225 779 278 772 251 b 733 157 757 199 746 176 b 681 111 719 138 702 122 b 603 94 660 100 634 94 b 513 130 565 94 535 106 b 472 215 490 153 477 182 z "},"ĳ":{"ha":717,"x_min":0,"x_max":0,"o":"m 168 0 l 285 658 l 156 658 l 40 0 z m 340 899 b 317 957 340 923 333 942 b 261 979 302 972 283 979 b 202 955 239 979 219 971 b 176 893 185 939 176 918 b 201 835 176 868 184 849 b 258 814 217 821 236 814 b 317 839 281 814 301 822 b 340 899 332 856 340 875 z m 219 -215 l 193 -325 b 230 -331 203 -327 216 -329 b 269 -333 244 -332 257 -333 b 376 -313 312 -333 348 -327 b 447 -259 405 -300 428 -282 b 488 -180 465 -236 478 -210 b 511 -86 498 -150 506 -119 l 643 658 l 514 658 l 383 -82 b 371 -137 380 -101 375 -120 b 351 -181 366 -154 360 -169 b 319 -211 343 -194 332 -204 b 271 -222 306 -219 290 -222 b 219 -215 253 -222 236 -220 z m 697 899 b 674 957 697 923 690 942 b 618 979 659 972 640 979 b 559 955 596 979 576 971 b 533 893 542 939 533 918 b 558 835 533 868 541 849 b 615 814 574 821 593 814 b 674 839 638 814 658 822 b 697 899 689 856 697 875 z "},"Ĵ":{"ha":682,"x_min":0,"x_max":0,"o":"m 100 215 l -24 179 b 2 98 -20 150 -11 122 b 55 33 16 73 33 52 b 133 -10 77 15 103 0 b 235 -25 163 -20 197 -25 b 378 6 293 -25 341 -15 b 468 85 415 27 445 53 b 520 190 491 117 509 152 b 546 300 532 228 540 265 l 667 983 l 531 983 l 411 307 b 392 225 406 278 400 251 b 360 157 384 199 374 176 b 309 111 347 138 330 122 b 231 94 288 100 262 94 b 140 130 193 94 163 106 b 100 215 118 153 105 182 z m 832 1061 l 713 1261 l 565 1261 l 374 1061 l 500 1061 l 631 1199 l 713 1061 z "},"ĵ":{"ha":360,"x_min":0,"x_max":0,"o":"m -137 -215 l -164 -325 b -127 -331 -154 -327 -141 -329 b -87 -333 -113 -332 -100 -333 b 19 -313 -45 -333 -9 -327 b 90 -259 48 -300 72 -282 b 131 -180 108 -236 122 -210 b 154 -86 141 -150 149 -119 l 286 658 l 157 658 l 26 -82 b 14 -137 23 -101 19 -120 b -6 -181 9 -154 3 -169 b -37 -211 -14 -194 -25 -204 b -86 -222 -50 -219 -67 -222 b -137 -215 -104 -222 -121 -220 z m 467 783 l 347 983 l 200 983 l 8 783 l 135 783 l 265 921 l 347 783 z "},"Ķ":{"ha":863,"x_min":0,"x_max":0,"o":"m 275 544 l 353 983 l 218 983 l 44 0 l 179 0 l 268 508 l 271 508 l 633 0 l 810 0 l 414 524 l 938 983 l 749 983 l 278 544 z m 285 -326 l 451 -62 l 322 -62 l 178 -326 z "},"ķ":{"ha":700,"x_min":0,"x_max":0,"o":"m 235 371 l 354 1050 l 225 1050 l 40 0 l 169 0 l 229 342 l 233 342 l 479 0 l 642 0 l 371 353 l 726 658 l 556 658 l 239 371 z m 217 -326 l 383 -62 l 254 -62 l 110 -326 z "},"Ĺ":{"ha":710,"x_min":0,"x_max":0,"o":"m 200 121 l 354 983 l 218 983 l 44 0 l 621 0 l 640 121 z m 349 1061 l 574 1261 l 419 1261 l 246 1061 z "},"ĺ":{"ha":361,"x_min":0,"x_max":0,"o":"m 169 0 l 356 1050 l 225 1050 l 40 0 z m 331 1100 l 556 1300 l 401 1300 l 228 1100 z "},"Ļ":{"ha":710,"x_min":0,"x_max":0,"o":"m 200 121 l 354 983 l 218 983 l 44 0 l 621 0 l 640 121 z m 233 -326 l 400 -62 l 271 -62 l 126 -326 z "},"ļ":{"ha":361,"x_min":0,"x_max":0,"o":"m 169 0 l 356 1050 l 225 1050 l 40 0 z m 14 -326 l 181 -62 l 51 -62 l -93 -326 z "},"Ľ":{"ha":710,"x_min":0,"x_max":0,"o":"m 200 121 l 354 983 l 218 983 l 44 0 l 621 0 l 640 121 z m 506 719 l 672 983 l 543 983 l 399 719 z "},"ľ":{"ha":361,"x_min":0,"x_max":0,"o":"m 169 0 l 356 1050 l 225 1050 l 40 0 z m 456 719 l 622 983 l 493 983 l 349 719 z "},"Ŀ":{"ha":710,"x_min":0,"x_max":0,"o":"m 200 121 l 354 983 l 218 983 l 44 0 l 621 0 l 640 121 z m 619 468 b 597 526 619 492 612 512 b 540 549 581 541 563 549 b 481 524 518 549 498 541 b 456 463 464 508 456 488 b 480 404 456 438 464 418 b 538 383 496 390 515 383 b 596 408 561 383 580 392 b 619 468 612 425 619 445 z "},"ŀ":{"ha":486,"x_min":0,"x_max":0,"o":"m 169 0 l 356 1050 l 225 1050 l 40 0 z m 508 468 b 485 526 508 492 501 512 b 429 549 470 541 451 549 b 370 524 407 549 387 541 b 344 463 353 508 344 488 b 369 404 344 438 353 418 b 426 383 385 390 404 383 b 485 408 450 383 469 392 b 508 468 500 425 508 445 z "},"Ł":{"ha":710,"x_min":0,"x_max":0,"o":"m 275 533 l 354 983 l 218 983 l 121 432 l -1 342 l -24 217 l 100 308 l 44 0 l 621 0 l 642 121 l 201 121 l 253 410 l 592 665 l 614 789 z "},"ł":{"ha":361,"x_min":0,"x_max":0,"o":"m 286 665 l 354 1050 l 225 1050 l 140 563 l 17 457 l -6 332 l 118 438 l 40 0 l 168 0 l 264 543 l 388 647 l 410 772 z "},"Ń":{"ha":1067,"x_min":0,"x_max":0,"o":"m 751 192 l 392 983 l 218 983 l 44 0 l 179 0 l 322 808 l 325 808 l 686 0 l 856 0 l 1029 983 l 893 983 l 754 192 z m 638 1061 l 863 1261 l 708 1261 l 535 1061 z "},"ń":{"ha":807,"x_min":0,"x_max":0,"o":"m 272 658 l 150 658 b 141 583 148 636 145 611 b 129 515 137 556 133 533 l 39 0 l 168 0 l 229 350 b 304 508 241 416 266 468 b 439 567 342 547 387 567 b 539 531 487 567 520 555 b 567 438 557 506 567 475 b 558 364 567 413 564 389 l 494 0 l 624 0 l 696 407 b 701 474 700 428 701 450 b 645 619 701 532 683 580 b 481 676 608 657 553 676 b 353 642 433 676 391 665 b 261 551 316 620 285 589 l 258 551 b 266 606 261 566 264 584 b 272 658 268 628 270 645 z m 467 783 l 692 983 l 538 983 l 364 783 z "},"Ņ":{"ha":1067,"x_min":0,"x_max":0,"o":"m 751 192 l 392 983 l 218 983 l 44 0 l 179 0 l 322 808 l 325 808 l 686 0 l 856 0 l 1029 983 l 893 983 l 754 192 z m 336 -326 l 503 -62 l 374 -62 l 229 -326 z "},"ņ":{"ha":807,"x_min":0,"x_max":0,"o":"m 272 658 l 150 658 b 141 583 148 636 145 611 b 129 515 137 556 133 533 l 39 0 l 168 0 l 229 350 b 304 508 241 416 266 468 b 439 567 342 547 387 567 b 539 531 487 567 520 555 b 567 438 557 506 567 475 b 558 364 567 413 564 389 l 494 0 l 624 0 l 696 407 b 701 474 700 428 701 450 b 645 619 701 532 683 580 b 481 676 608 657 553 676 b 353 642 433 676 391 665 b 261 551 316 620 285 589 l 258 551 b 266 606 261 566 264 584 b 272 658 268 628 270 645 z m 229 -326 l 396 -62 l 267 -62 l 122 -326 z "},"Ň":{"ha":1067,"x_min":0,"x_max":0,"o":"m 751 192 l 392 983 l 218 983 l 44 0 l 179 0 l 322 808 l 325 808 l 686 0 l 856 0 l 1029 983 l 893 983 l 754 192 z m 704 1061 l 894 1261 l 769 1261 l 639 1124 l 558 1261 l 438 1261 l 557 1061 z "},"ň":{"ha":807,"x_min":0,"x_max":0,"o":"m 272 658 l 150 658 b 141 583 148 636 145 611 b 129 515 137 556 133 533 l 39 0 l 168 0 l 229 350 b 304 508 241 416 266 468 b 439 567 342 547 387 567 b 539 531 487 567 520 555 b 567 438 557 506 567 475 b 558 364 567 413 564 389 l 494 0 l 624 0 l 696 407 b 701 474 700 428 701 450 b 645 619 701 532 683 580 b 481 676 608 657 553 676 b 353 642 433 676 391 665 b 261 551 316 620 285 589 l 258 551 b 266 606 261 566 264 584 b 272 658 268 628 270 645 z m 532 783 l 722 983 l 597 983 l 467 846 l 386 983 l 265 983 l 385 783 z "},"ŉ":{"ha":835,"x_min":0,"x_max":0,"o":"m 300 658 l 178 658 b 169 583 176 636 173 611 b 157 515 165 556 161 533 l 67 0 l 196 0 l 257 350 b 332 508 269 416 294 468 b 467 567 370 547 415 567 b 567 531 515 567 548 555 b 594 438 585 506 594 475 b 586 364 594 413 592 389 l 522 0 l 651 0 l 724 407 b 729 474 727 428 729 450 b 673 619 729 532 710 580 b 508 676 635 657 581 676 b 381 642 461 676 419 665 b 289 551 344 620 313 589 l 286 551 b 294 606 289 566 291 584 b 300 658 296 628 298 645 z m 163 719 l 329 983 l 200 983 l 56 719 z "},"Ō":{"ha":1154,"x_min":0,"x_max":0,"o":"m 529 -25 b 756 23 611 -25 686 -9 b 936 153 825 55 885 98 b 1055 347 987 209 1027 273 b 1097 585 1083 421 1097 500 b 1065 760 1097 650 1086 708 b 972 893 1043 812 1012 856 b 829 978 932 930 885 959 b 646 1008 774 998 713 1008 b 419 960 564 1008 489 992 b 238 830 350 928 290 885 b 117 637 187 775 147 710 b 74 400 88 563 74 484 b 106 224 74 335 84 277 b 199 90 128 172 159 127 b 342 5 238 53 286 25 b 529 -25 398 -15 461 -25 z m 956 572 b 926 394 956 511 946 452 b 841 241 906 337 878 286 b 708 133 804 196 760 160 b 532 93 655 106 597 93 b 395 118 480 93 434 101 b 297 187 356 135 323 158 b 236 289 270 216 250 250 b 215 413 222 328 215 369 b 245 589 215 473 225 531 b 331 742 265 646 294 697 b 465 851 368 787 412 823 b 639 892 517 878 575 892 b 774 867 690 892 735 883 b 874 798 814 850 847 827 b 935 697 900 769 921 735 b 956 572 949 658 956 617 z m 893 1107 l 910 1199 l 500 1199 l 485 1107 z "},"ō":{"ha":833,"x_min":0,"x_max":0,"o":"m 354 -18 b 515 15 413 -18 467 -7 b 640 103 563 36 605 66 b 720 234 674 141 701 184 b 749 392 739 284 749 336 b 726 508 749 434 741 473 b 661 597 710 542 689 572 b 563 656 633 622 600 642 b 438 676 525 669 483 676 b 276 644 378 676 324 666 b 151 555 227 622 185 592 b 70 425 116 517 89 474 b 42 269 51 376 42 324 b 65 153 42 227 50 188 b 131 62 81 118 103 87 b 229 3 158 36 191 17 b 354 -18 267 -11 309 -18 z m 618 379 b 599 268 618 340 612 303 b 547 176 587 233 569 202 b 465 113 524 149 497 128 b 361 90 434 98 399 90 b 222 144 302 90 256 108 b 172 281 189 179 172 225 b 191 391 172 319 178 356 b 244 483 203 426 221 456 b 325 546 266 509 294 530 b 429 569 356 562 391 569 b 508 555 458 569 484 565 b 567 515 531 545 551 532 b 605 454 584 497 596 477 b 618 379 614 431 618 406 z m 679 829 l 696 921 l 286 921 l 271 829 z "},"Ŏ":{"ha":1154,"x_min":0,"x_max":0,"o":"m 529 -25 b 756 23 611 -25 686 -9 b 936 153 825 55 885 98 b 1055 347 987 209 1027 273 b 1097 585 1083 421 1097 500 b 1065 760 1097 650 1086 708 b 972 893 1043 812 1012 856 b 829 978 932 930 885 959 b 646 1008 774 998 713 1008 b 419 960 564 1008 489 992 b 238 830 350 928 290 885 b 117 637 187 775 147 710 b 74 400 88 563 74 484 b 106 224 74 335 84 277 b 199 90 128 172 159 127 b 342 5 238 53 286 25 b 529 -25 398 -15 461 -25 z m 956 572 b 926 394 956 511 946 452 b 841 241 906 337 878 286 b 708 133 804 196 760 160 b 532 93 655 106 597 93 b 395 118 480 93 434 101 b 297 187 356 135 323 158 b 236 289 270 216 250 250 b 215 413 222 328 215 369 b 245 589 215 473 225 531 b 331 742 265 646 294 697 b 465 851 368 787 412 823 b 639 892 517 878 575 892 b 774 867 690 892 735 883 b 874 798 814 850 847 827 b 935 697 900 769 921 735 b 956 572 949 658 956 617 z m 919 1261 l 843 1261 b 784 1183 833 1223 813 1197 b 682 1161 755 1168 721 1161 b 633 1166 664 1161 648 1163 b 593 1183 617 1169 604 1175 b 567 1214 582 1191 573 1201 b 557 1261 560 1227 557 1243 l 479 1261 b 532 1116 479 1195 497 1147 b 676 1069 567 1085 615 1069 b 834 1119 738 1069 790 1086 b 919 1261 878 1153 906 1200 z "},"ŏ":{"ha":833,"x_min":0,"x_max":0,"o":"m 354 -18 b 515 15 413 -18 467 -7 b 640 103 563 36 605 66 b 720 234 674 141 701 184 b 749 392 739 284 749 336 b 726 508 749 434 741 473 b 661 597 710 542 689 572 b 563 656 633 622 600 642 b 438 676 525 669 483 676 b 276 644 378 676 324 666 b 151 555 227 622 185 592 b 70 425 116 517 89 474 b 42 269 51 376 42 324 b 65 153 42 227 50 188 b 131 62 81 118 103 87 b 229 3 158 36 191 17 b 354 -18 267 -11 309 -18 z m 618 379 b 599 268 618 340 612 303 b 547 176 587 233 569 202 b 465 113 524 149 497 128 b 361 90 434 98 399 90 b 222 144 302 90 256 108 b 172 281 189 179 172 225 b 191 391 172 319 178 356 b 244 483 203 426 221 456 b 325 546 266 509 294 530 b 429 569 356 562 391 569 b 508 555 458 569 484 565 b 567 515 531 545 551 532 b 605 454 584 497 596 477 b 618 379 614 431 618 406 z m 707 983 l 631 983 b 572 905 620 945 601 919 b 469 883 542 891 508 883 b 420 888 452 883 435 885 b 381 905 405 891 392 897 b 354 936 369 913 361 923 b 344 983 348 949 344 965 l 267 983 b 319 838 267 918 284 869 b 464 792 355 807 403 792 b 622 842 525 792 578 808 b 707 983 666 875 694 922 z "},"Ő":{"ha":1154,"x_min":0,"x_max":0,"o":"m 529 -25 b 756 23 611 -25 686 -9 b 936 153 825 55 885 98 b 1055 347 987 209 1027 273 b 1097 585 1083 421 1097 500 b 1065 760 1097 650 1086 708 b 972 893 1043 812 1012 856 b 829 978 932 930 885 959 b 646 1008 774 998 713 1008 b 419 960 564 1008 489 992 b 238 830 350 928 290 885 b 117 637 187 775 147 710 b 74 400 88 563 74 484 b 106 224 74 335 84 277 b 199 90 128 172 159 127 b 342 5 238 53 286 25 b 529 -25 398 -15 461 -25 z m 956 572 b 926 394 956 511 946 452 b 841 241 906 337 878 286 b 708 133 804 196 760 160 b 532 93 655 106 597 93 b 395 118 480 93 434 101 b 297 187 356 135 323 158 b 236 289 270 216 250 250 b 215 413 222 328 215 369 b 245 589 215 473 225 531 b 331 742 265 646 294 697 b 465 851 368 787 412 823 b 639 892 517 878 575 892 b 774 867 690 892 735 883 b 874 798 814 850 847 827 b 935 697 900 769 921 735 b 956 572 949 658 956 617 z m 850 1061 l 1076 1261 l 919 1261 l 744 1061 z m 600 1061 l 825 1261 l 668 1261 l 494 1061 z "},"ő":{"ha":833,"x_min":0,"x_max":0,"o":"m 354 -18 b 515 15 413 -18 467 -7 b 640 103 563 36 605 66 b 720 234 674 141 701 184 b 749 392 739 284 749 336 b 726 508 749 434 741 473 b 661 597 710 542 689 572 b 563 656 633 622 600 642 b 438 676 525 669 483 676 b 276 644 378 676 324 666 b 151 555 227 622 185 592 b 70 425 116 517 89 474 b 42 269 51 376 42 324 b 65 153 42 227 50 188 b 131 62 81 118 103 87 b 229 3 158 36 191 17 b 354 -18 267 -11 309 -18 z m 618 379 b 599 268 618 340 612 303 b 547 176 587 233 569 202 b 465 113 524 149 497 128 b 361 90 434 98 399 90 b 222 144 302 90 256 108 b 172 281 189 179 172 225 b 191 391 172 319 178 356 b 244 483 203 426 221 456 b 325 546 266 509 294 530 b 429 569 356 562 391 569 b 508 555 458 569 484 565 b 567 515 531 545 551 532 b 605 454 584 497 596 477 b 618 379 614 431 618 406 z m 636 783 l 863 983 l 706 983 l 531 783 z m 386 783 l 611 983 l 454 983 l 281 783 z "},"Ŕ":{"ha":850,"x_min":0,"x_max":0,"o":"m 179 0 l 256 439 l 407 439 l 603 0 l 756 0 l 546 453 b 656 485 586 459 622 470 b 742 542 689 500 718 519 b 799 626 766 566 785 594 b 819 739 813 659 819 696 b 797 844 819 779 812 814 b 731 920 781 874 759 899 b 629 967 703 941 669 957 b 497 983 589 978 545 983 l 218 983 l 44 0 z m 275 551 l 332 868 l 476 868 b 626 835 539 868 589 857 b 681 724 662 813 681 775 b 660 641 681 690 674 663 b 606 588 647 619 629 602 b 526 560 584 575 557 565 b 426 551 495 554 462 551 z m 511 1061 l 736 1261 l 582 1261 l 408 1061 z "},"ŕ":{"ha":476,"x_min":0,"x_max":0,"o":"m 128 515 l 38 0 l 165 0 l 226 346 b 249 426 231 374 239 400 b 292 493 260 451 274 474 b 354 540 309 513 330 528 b 438 557 378 551 406 557 b 494 550 457 557 476 555 l 517 671 b 465 676 503 675 486 676 b 347 641 421 676 381 665 b 260 547 312 617 283 586 l 257 547 b 260 573 258 555 259 563 b 265 603 262 583 263 593 b 268 634 266 614 267 624 b 271 658 269 644 270 652 l 149 658 b 140 583 147 636 144 611 b 128 515 135 556 131 533 z m 311 783 l 536 983 l 382 983 l 208 783 z "},"Ŗ":{"ha":850,"x_min":0,"x_max":0,"o":"m 179 0 l 256 439 l 407 439 l 603 0 l 756 0 l 546 453 b 656 485 586 459 622 470 b 742 542 689 500 718 519 b 799 626 766 566 785 594 b 819 739 813 659 819 696 b 797 844 819 779 812 814 b 731 920 781 874 759 899 b 629 967 703 941 669 957 b 497 983 589 978 545 983 l 218 983 l 44 0 z m 275 551 l 332 868 l 476 868 b 626 835 539 868 589 857 b 681 724 662 813 681 775 b 660 641 681 690 674 663 b 606 588 647 619 629 602 b 526 560 584 575 557 565 b 426 551 495 554 462 551 z m 258 -326 l 425 -62 l 296 -62 l 151 -326 z "},"ŗ":{"ha":476,"x_min":0,"x_max":0,"o":"m 128 515 l 38 0 l 165 0 l 226 346 b 249 426 231 374 239 400 b 292 493 260 451 274 474 b 354 540 309 513 330 528 b 438 557 378 551 406 557 b 494 550 457 557 476 555 l 517 671 b 465 676 503 675 486 676 b 347 641 421 676 381 665 b 260 547 312 617 283 586 l 257 547 b 260 573 258 555 259 563 b 265 603 262 583 263 593 b 268 634 266 614 267 624 b 271 658 269 644 270 652 l 149 658 b 140 583 147 636 144 611 b 128 515 135 556 131 533 z m 7 -328 l 174 -64 l 44 -64 l -100 -328 z "},"Ř":{"ha":850,"x_min":0,"x_max":0,"o":"m 179 0 l 256 439 l 407 439 l 603 0 l 756 0 l 546 453 b 656 485 586 459 622 470 b 742 542 689 500 718 519 b 799 626 766 566 785 594 b 819 739 813 659 819 696 b 797 844 819 779 812 814 b 731 920 781 874 759 899 b 629 967 703 941 669 957 b 497 983 589 978 545 983 l 218 983 l 44 0 z m 275 551 l 332 868 l 476 868 b 626 835 539 868 589 857 b 681 724 662 813 681 775 b 660 641 681 690 674 663 b 606 588 647 619 629 602 b 526 560 584 575 557 565 b 426 551 495 554 462 551 z m 579 1061 l 769 1261 l 644 1261 l 514 1124 l 433 1261 l 313 1261 l 432 1061 z "},"ř":{"ha":476,"x_min":0,"x_max":0,"o":"m 128 515 l 38 0 l 165 0 l 226 346 b 249 426 231 374 239 400 b 292 493 260 451 274 474 b 354 540 309 513 330 528 b 438 557 378 551 406 557 b 494 550 457 557 476 555 l 517 671 b 465 676 503 675 486 676 b 347 641 421 676 381 665 b 260 547 312 617 283 586 l 257 547 b 260 573 258 555 259 563 b 265 603 262 583 263 593 b 268 634 266 614 267 624 b 271 658 269 644 270 652 l 149 658 b 140 583 147 636 144 611 b 128 515 135 556 131 533 z m 418 783 l 608 983 l 483 983 l 353 846 l 272 983 l 151 983 l 271 783 z "},"Ś":{"ha":790,"x_min":0,"x_max":0,"o":"m 668 806 l 774 886 b 659 976 747 925 709 955 b 499 1008 609 998 556 1008 b 354 987 447 1008 399 1001 b 239 926 310 972 271 952 b 163 831 206 900 181 869 b 136 707 145 794 136 752 b 154 611 136 670 142 638 b 203 542 166 584 182 561 b 274 492 223 522 247 506 b 357 454 300 478 328 465 b 431 424 383 445 407 435 b 492 388 454 414 474 401 b 533 339 509 374 523 357 b 549 274 544 320 549 299 b 530 194 549 243 542 216 b 481 137 517 171 501 152 b 410 102 460 122 437 110 b 329 90 384 94 357 90 b 201 123 281 90 238 101 b 117 204 163 145 135 172 l 3 128 b 62 60 19 102 38 79 b 140 13 85 41 112 26 b 230 -15 169 1 199 -9 b 324 -25 261 -22 292 -25 b 476 -1 380 -25 431 -17 b 592 64 522 14 560 36 b 666 163 624 92 649 125 b 692 289 683 202 692 244 b 672 387 692 326 685 359 b 616 462 658 415 640 440 b 534 519 592 484 565 503 b 433 563 503 535 469 550 b 369 590 410 571 389 580 b 319 622 350 599 333 610 b 287 664 306 634 295 648 b 275 719 279 680 275 698 b 295 799 275 750 282 776 b 347 853 309 821 326 839 b 415 885 367 868 390 878 b 486 894 439 891 463 894 b 593 870 526 894 562 886 b 668 806 625 854 650 832 z m 504 1061 l 729 1261 l 575 1261 l 401 1061 z "},"ś":{"ha":617,"x_min":0,"x_max":0,"o":"m 482 500 l 582 565 b 490 647 562 600 531 628 b 353 676 450 667 404 676 b 251 663 318 676 284 672 b 164 622 218 653 189 640 b 104 558 139 605 119 583 b 82 471 89 532 82 503 b 95 403 82 444 86 421 b 132 354 104 384 116 368 b 188 319 148 340 166 329 b 258 293 209 310 232 301 b 360 249 304 278 338 263 b 394 183 383 234 394 212 b 351 110 394 151 380 127 b 250 86 323 94 289 86 b 151 111 213 86 180 94 b 85 176 122 128 100 150 l -19 108 b 87 14 6 69 41 37 b 250 -21 133 -9 187 -21 b 349 -8 283 -21 316 -16 b 435 32 381 1 410 14 b 497 99 461 50 481 72 b 521 193 513 125 521 157 b 470 317 521 247 504 288 b 325 389 436 347 388 370 b 238 422 287 399 258 410 b 207 482 217 434 207 454 b 219 525 207 499 211 513 b 252 553 228 537 239 547 b 296 569 266 560 280 566 b 343 574 312 572 327 574 b 429 553 378 574 407 567 b 482 500 451 539 469 521 z m 382 783 l 607 983 l 453 983 l 279 783 z "},"Ŝ":{"ha":790,"x_min":0,"x_max":0,"o":"m 668 806 l 774 886 b 659 976 747 925 709 955 b 499 1008 609 998 556 1008 b 354 987 447 1008 399 1001 b 239 926 310 972 271 952 b 163 831 206 900 181 869 b 136 707 145 794 136 752 b 154 611 136 670 142 638 b 203 542 166 584 182 561 b 274 492 223 522 247 506 b 357 454 300 478 328 465 b 431 424 383 445 407 435 b 492 388 454 414 474 401 b 533 339 509 374 523 357 b 549 274 544 320 549 299 b 530 194 549 243 542 216 b 481 137 517 171 501 152 b 410 102 460 122 437 110 b 329 90 384 94 357 90 b 201 123 281 90 238 101 b 117 204 163 145 135 172 l 3 128 b 62 60 19 102 38 79 b 140 13 85 41 112 26 b 230 -15 169 1 199 -9 b 324 -25 261 -22 292 -25 b 476 -1 380 -25 431 -17 b 592 64 522 14 560 36 b 666 163 624 92 649 125 b 692 289 683 202 692 244 b 672 387 692 326 685 359 b 616 462 658 415 640 440 b 534 519 592 484 565 503 b 433 563 503 535 469 550 b 369 590 410 571 389 580 b 319 622 350 599 333 610 b 287 664 306 634 295 648 b 275 719 279 680 275 698 b 295 799 275 750 282 776 b 347 853 309 821 326 839 b 415 885 367 868 390 878 b 486 894 439 891 463 894 b 593 870 526 894 562 886 b 668 806 625 854 650 832 z m 753 1061 l 633 1261 l 486 1261 l 294 1061 l 421 1061 l 551 1199 l 633 1061 z "},"ŝ":{"ha":617,"x_min":0,"x_max":0,"o":"m 482 500 l 582 565 b 490 647 562 600 531 628 b 353 676 450 667 404 676 b 251 663 318 676 284 672 b 164 622 218 653 189 640 b 104 558 139 605 119 583 b 82 471 89 532 82 503 b 95 403 82 444 86 421 b 132 354 104 384 116 368 b 188 319 148 340 166 329 b 258 293 209 310 232 301 b 360 249 304 278 338 263 b 394 183 383 234 394 212 b 351 110 394 151 380 127 b 250 86 323 94 289 86 b 151 111 213 86 180 94 b 85 176 122 128 100 150 l -19 108 b 87 14 6 69 41 37 b 250 -21 133 -9 187 -21 b 349 -8 283 -21 316 -16 b 435 32 381 1 410 14 b 497 99 461 50 481 72 b 521 193 513 125 521 157 b 470 317 521 247 504 288 b 325 389 436 347 388 370 b 238 422 287 399 258 410 b 207 482 217 434 207 454 b 219 525 207 499 211 513 b 252 553 228 537 239 547 b 296 569 266 560 280 566 b 343 574 312 572 327 574 b 429 553 378 574 407 567 b 482 500 451 539 469 521 z m 615 783 l 496 983 l 349 983 l 157 783 l 283 783 l 414 921 l 496 783 z "},"Ş":{"ha":790,"x_min":0,"x_max":0,"o":"m 668 806 l 774 886 b 659 976 747 925 709 955 b 499 1008 609 998 556 1008 b 354 987 447 1008 399 1001 b 239 926 310 972 271 952 b 163 831 206 900 181 869 b 136 707 145 794 136 752 b 154 611 136 670 142 638 b 203 542 166 584 182 561 b 274 492 223 522 247 506 b 357 454 300 478 328 465 b 431 424 383 445 407 435 b 492 388 454 414 474 401 b 533 339 509 374 523 357 b 549 274 544 320 549 299 b 530 194 549 243 542 216 b 481 137 517 171 501 152 b 410 102 460 122 437 110 b 329 90 384 94 357 90 b 201 123 281 90 238 101 b 117 204 163 145 135 172 l 3 128 b 126 19 32 81 73 44 b 292 -24 178 -6 233 -20 l 203 -131 l 226 -158 b 256 -151 236 -156 245 -153 b 285 -149 266 -150 275 -149 b 331 -160 302 -149 318 -152 b 351 -200 345 -167 351 -181 b 342 -230 351 -212 348 -222 b 319 -248 336 -238 329 -244 b 290 -257 310 -252 300 -255 b 261 -260 280 -259 270 -260 b 206 -253 243 -260 224 -258 b 156 -236 188 -249 171 -244 l 122 -294 b 190 -318 141 -305 163 -312 b 267 -326 217 -324 243 -326 b 328 -319 286 -326 306 -324 b 387 -297 349 -315 369 -307 b 432 -256 405 -287 420 -273 b 450 -192 444 -238 450 -217 b 439 -145 450 -173 446 -158 b 411 -115 431 -133 422 -122 b 374 -98 400 -107 388 -101 b 336 -93 361 -95 348 -93 b 319 -94 331 -93 325 -93 b 300 -97 314 -94 307 -95 l 361 -24 b 499 7 412 -20 458 -10 b 603 74 539 24 574 46 b 669 170 631 101 653 134 b 692 289 684 207 692 246 b 672 387 692 326 685 359 b 616 462 658 415 640 440 b 534 519 592 484 565 503 b 433 563 503 535 469 550 b 369 590 410 571 389 580 b 319 622 350 599 333 610 b 287 664 306 634 295 648 b 275 719 279 680 275 698 b 295 799 275 750 282 776 b 347 853 309 821 326 839 b 415 885 367 868 390 878 b 486 894 439 891 463 894 b 593 870 526 894 562 886 b 668 806 625 854 650 832 z "},"ş":{"ha":617,"x_min":0,"x_max":0,"o":"m 482 500 l 582 565 b 490 647 562 600 531 628 b 353 676 450 667 404 676 b 251 663 318 676 284 672 b 164 622 218 653 189 640 b 104 558 139 605 119 583 b 82 471 89 532 82 503 b 95 403 82 444 86 421 b 132 354 104 384 116 368 b 188 319 148 340 166 329 b 258 293 209 310 232 301 b 360 249 304 278 338 263 b 394 183 383 234 394 212 b 351 110 394 151 380 127 b 250 86 323 94 289 86 b 151 111 213 86 180 94 b 85 176 122 128 100 150 l -19 108 b 74 21 3 72 34 43 b 217 -19 115 -1 162 -15 l 124 -131 l 147 -158 b 176 -151 156 -156 166 -153 b 206 -149 187 -150 196 -149 b 252 -160 223 -149 239 -152 b 272 -200 266 -167 272 -181 b 263 -230 272 -212 269 -222 b 240 -248 257 -238 250 -244 b 211 -257 231 -252 221 -255 b 182 -260 201 -259 191 -260 b 127 -253 163 -260 145 -258 b 76 -236 109 -249 92 -244 l 43 -294 b 111 -318 62 -305 84 -312 b 188 -326 138 -324 163 -326 b 249 -319 207 -326 227 -324 b 308 -297 270 -315 290 -307 b 353 -256 326 -287 341 -273 b 371 -192 365 -238 371 -217 b 360 -145 371 -173 367 -158 b 332 -115 352 -133 343 -122 b 295 -98 321 -107 309 -101 b 257 -93 282 -95 269 -93 b 240 -94 251 -93 246 -93 b 221 -97 235 -94 228 -95 l 286 -18 b 374 1 317 -15 346 -9 b 449 42 403 12 428 25 b 501 106 471 59 488 81 b 521 193 514 131 521 160 b 470 317 521 247 504 288 b 325 389 436 347 388 370 b 238 422 287 399 258 410 b 207 482 217 434 207 454 b 219 525 207 499 211 513 b 252 553 228 537 239 547 b 296 569 266 560 280 566 b 343 574 312 572 327 574 b 429 553 378 574 407 567 b 482 500 451 539 469 521 z "},"Ţ":{"ha":743,"x_min":0,"x_max":0,"o":"m 361 0 l 514 864 l 822 864 l 843 983 l 88 983 l 67 864 l 378 864 l 225 0 z m 253 -97 l 335 0 l 265 0 l 156 -131 l 179 -158 b 208 -151 188 -156 198 -153 b 238 -149 219 -150 228 -149 b 284 -160 255 -149 271 -152 b 304 -200 297 -167 304 -181 b 295 -230 304 -212 301 -222 b 272 -248 289 -238 281 -244 b 243 -257 263 -252 253 -255 b 214 -260 233 -259 223 -260 b 159 -253 195 -260 177 -258 b 108 -236 141 -249 124 -244 l 75 -294 b 143 -318 94 -305 116 -312 b 219 -326 170 -324 195 -326 b 281 -319 239 -326 259 -324 b 340 -297 302 -315 322 -307 b 385 -256 358 -287 373 -273 b 403 -192 397 -238 403 -217 b 392 -145 403 -173 399 -158 b 364 -115 384 -133 375 -122 b 327 -98 353 -107 341 -101 b 289 -93 314 -95 301 -93 b 272 -94 283 -93 278 -93 b 253 -97 267 -94 260 -95 z "},"ţ":{"ha":450,"x_min":0,"x_max":0,"o":"m 438 553 l 457 658 l 292 658 l 325 847 l 197 847 l 165 658 l 42 658 l 22 553 l 147 553 l 83 196 b 79 163 81 185 80 174 b 78 131 78 151 78 141 b 123 23 78 81 93 46 b 244 -11 153 0 194 -11 b 301 -6 263 -11 282 -9 b 349 7 320 -3 336 1 l 358 110 b 326 99 350 105 339 101 b 288 94 313 96 300 94 b 230 109 263 94 244 99 b 208 165 216 119 208 138 b 213 207 208 177 210 191 l 275 553 z m 193 -97 l 275 0 l 206 0 l 96 -131 l 119 -158 b 149 -151 129 -156 138 -153 b 178 -149 159 -150 169 -149 b 224 -160 195 -149 211 -152 b 244 -200 238 -167 244 -181 b 235 -230 244 -212 241 -222 b 213 -248 229 -238 222 -244 b 183 -257 203 -252 194 -255 b 154 -260 173 -259 163 -260 b 99 -253 136 -260 117 -258 b 49 -236 81 -249 64 -244 l 15 -294 b 83 -318 34 -305 56 -312 b 160 -326 110 -324 136 -326 b 221 -319 179 -326 200 -324 b 280 -297 242 -315 262 -307 b 325 -256 298 -287 313 -273 b 343 -192 337 -238 343 -217 b 332 -145 343 -173 339 -158 b 304 -115 325 -133 315 -122 b 267 -98 293 -107 281 -101 b 229 -93 254 -95 241 -93 b 213 -94 224 -93 218 -93 b 193 -97 207 -94 200 -95 z "},"Ť":{"ha":743,"x_min":0,"x_max":0,"o":"m 361 0 l 514 864 l 822 864 l 843 983 l 88 983 l 67 864 l 378 864 l 225 0 z m 550 1061 l 740 1261 l 615 1261 l 485 1124 l 404 1261 l 283 1261 l 403 1061 z "},"ť":{"ha":450,"x_min":0,"x_max":0,"o":"m 438 553 l 457 658 l 292 658 l 325 847 l 197 847 l 165 658 l 42 658 l 22 553 l 147 553 l 83 196 b 79 163 81 185 80 174 b 78 131 78 151 78 141 b 123 23 78 81 93 46 b 244 -11 153 0 194 -11 b 301 -6 263 -11 282 -9 b 349 7 320 -3 336 1 l 358 110 b 326 99 350 105 339 101 b 288 94 313 96 300 94 b 230 109 263 94 244 99 b 208 165 216 119 208 138 b 213 207 208 177 210 191 l 275 553 z m 457 751 l 624 1015 l 494 1015 l 350 751 z "},"Ŧ":{"ha":757,"x_min":0,"x_max":0,"o":"m 360 729 l 132 729 l 117 642 l 344 642 l 232 0 l 368 0 l 481 642 l 707 642 l 722 729 l 496 729 l 521 864 l 829 864 l 850 983 l 94 983 l 74 864 l 385 864 z "},"ŧ":{"ha":450,"x_min":0,"x_max":0,"o":"m 124 422 l 24 422 l 8 335 l 108 335 l 83 196 b 79 163 81 185 80 174 b 78 131 78 151 78 141 b 123 23 78 81 93 46 b 244 -11 153 0 194 -11 b 301 -6 263 -11 282 -9 b 349 7 320 -3 336 1 l 358 110 b 326 99 350 105 339 101 b 288 94 313 96 300 94 b 230 109 263 94 244 99 b 208 165 216 119 208 138 b 213 207 208 177 210 191 l 235 335 l 379 335 l 394 422 l 251 422 l 275 553 l 438 553 l 457 658 l 292 658 l 325 847 l 197 847 l 165 658 l 42 658 l 22 553 l 147 553 z "},"Ũ":{"ha":989,"x_min":0,"x_max":0,"o":"m 440 -25 b 616 8 508 -25 566 -14 b 741 94 666 29 707 58 b 822 219 775 131 802 172 b 865 364 841 266 856 314 l 974 983 l 838 983 l 731 372 b 702 269 724 337 715 303 b 650 180 690 236 672 206 b 567 117 628 153 600 132 b 444 93 533 101 493 93 b 346 110 406 93 373 99 b 280 155 319 121 297 136 b 243 220 263 174 250 196 b 232 299 236 245 232 271 b 239 372 232 322 234 346 l 347 983 l 211 983 l 103 364 b 94 278 97 334 94 306 b 116 160 94 236 102 197 b 181 64 130 124 152 92 b 288 -1 209 36 245 14 b 440 -25 331 -17 382 -25 z m 361 1072 l 438 1072 b 467 1117 445 1088 455 1103 b 515 1138 479 1131 495 1138 b 559 1128 529 1138 544 1134 b 606 1107 574 1122 590 1115 b 653 1088 621 1100 637 1093 b 701 1079 669 1082 685 1079 b 763 1093 725 1079 745 1084 b 811 1129 781 1102 797 1114 b 847 1180 825 1144 837 1161 b 872 1239 856 1199 865 1219 l 796 1239 b 767 1194 788 1223 779 1208 b 719 1174 755 1181 739 1174 b 678 1183 706 1174 693 1177 b 632 1203 663 1189 648 1195 b 584 1224 616 1211 600 1218 b 532 1232 568 1229 550 1232 b 469 1218 508 1232 487 1227 b 422 1182 451 1209 435 1197 b 386 1131 408 1167 396 1150 b 361 1072 376 1112 368 1093 z "},"ũ":{"ha":807,"x_min":0,"x_max":0,"o":"m 489 0 l 611 0 b 620 75 613 22 616 47 b 632 143 624 103 628 125 l 722 658 l 594 658 l 532 308 b 458 151 521 243 496 190 b 322 92 419 111 374 92 b 224 128 275 92 242 104 b 196 221 205 152 196 183 b 198 258 196 233 197 245 b 203 296 199 270 201 283 l 267 658 l 139 658 l 67 251 b 62 218 65 240 63 229 b 60 186 60 207 60 196 b 116 40 60 127 78 78 b 281 -18 153 1 208 -18 b 408 16 328 -18 370 -7 b 500 107 445 39 476 69 l 503 107 b 496 52 501 92 499 74 b 489 0 493 30 491 13 z m 207 794 l 283 794 b 313 839 291 810 300 825 b 361 860 325 853 341 860 b 405 851 375 860 390 857 b 451 829 420 845 436 838 b 499 810 467 822 483 815 b 547 801 514 804 531 801 b 609 815 570 801 591 806 b 657 851 627 825 643 837 b 692 902 671 866 683 883 b 718 961 702 921 711 941 l 642 961 b 613 917 634 945 625 931 b 565 896 600 903 585 896 b 524 905 552 896 538 899 b 478 925 509 911 494 918 b 430 946 462 933 446 940 b 378 954 414 951 396 954 b 315 940 354 954 333 950 b 267 904 297 931 281 919 b 232 853 254 889 242 872 b 207 794 222 834 213 815 z "},"Ū":{"ha":989,"x_min":0,"x_max":0,"o":"m 440 -25 b 616 8 508 -25 566 -14 b 741 94 666 29 707 58 b 822 219 775 131 802 172 b 865 364 841 266 856 314 l 974 983 l 838 983 l 731 372 b 702 269 724 337 715 303 b 650 180 690 236 672 206 b 567 117 628 153 600 132 b 444 93 533 101 493 93 b 346 110 406 93 373 99 b 280 155 319 121 297 136 b 243 220 263 174 250 196 b 232 299 236 245 232 271 b 239 372 232 322 234 346 l 347 983 l 211 983 l 103 364 b 94 278 97 334 94 306 b 116 160 94 236 102 197 b 181 64 130 124 152 92 b 288 -1 209 36 245 14 b 440 -25 331 -17 382 -25 z m 811 1107 l 828 1199 l 418 1199 l 403 1107 z "},"ū":{"ha":807,"x_min":0,"x_max":0,"o":"m 489 0 l 611 0 b 620 75 613 22 616 47 b 632 143 624 103 628 125 l 722 658 l 594 658 l 532 308 b 458 151 521 243 496 190 b 322 92 419 111 374 92 b 224 128 275 92 242 104 b 196 221 205 152 196 183 b 198 258 196 233 197 245 b 203 296 199 270 201 283 l 267 658 l 139 658 l 67 251 b 62 218 65 240 63 229 b 60 186 60 207 60 196 b 116 40 60 127 78 78 b 281 -18 153 1 208 -18 b 408 16 328 -18 370 -7 b 500 107 445 39 476 69 l 503 107 b 496 52 501 92 499 74 b 489 0 493 30 491 13 z m 660 829 l 676 921 l 267 921 l 251 829 z "},"Ŭ":{"ha":989,"x_min":0,"x_max":0,"o":"m 440 -25 b 616 8 508 -25 566 -14 b 741 94 666 29 707 58 b 822 219 775 131 802 172 b 865 364 841 266 856 314 l 974 983 l 838 983 l 731 372 b 702 269 724 337 715 303 b 650 180 690 236 672 206 b 567 117 628 153 600 132 b 444 93 533 101 493 93 b 346 110 406 93 373 99 b 280 155 319 121 297 136 b 243 220 263 174 250 196 b 232 299 236 245 232 271 b 239 372 232 322 234 346 l 347 983 l 211 983 l 103 364 b 94 278 97 334 94 306 b 116 160 94 236 102 197 b 181 64 130 124 152 92 b 288 -1 209 36 245 14 b 440 -25 331 -17 382 -25 z m 844 1261 l 768 1261 b 709 1183 758 1223 738 1197 b 607 1161 680 1168 646 1161 b 558 1166 589 1161 573 1163 b 518 1183 542 1169 529 1175 b 492 1214 507 1191 498 1201 b 482 1261 485 1227 482 1243 l 404 1261 b 457 1116 404 1195 422 1147 b 601 1069 492 1085 540 1069 b 759 1119 663 1069 715 1086 b 844 1261 803 1153 831 1200 z "},"ŭ":{"ha":807,"x_min":0,"x_max":0,"o":"m 489 0 l 611 0 b 620 75 613 22 616 47 b 632 143 624 103 628 125 l 722 658 l 594 658 l 532 308 b 458 151 521 243 496 190 b 322 92 419 111 374 92 b 224 128 275 92 242 104 b 196 221 205 152 196 183 b 198 258 196 233 197 245 b 203 296 199 270 201 283 l 267 658 l 139 658 l 67 251 b 62 218 65 240 63 229 b 60 186 60 207 60 196 b 116 40 60 127 78 78 b 281 -18 153 1 208 -18 b 408 16 328 -18 370 -7 b 500 107 445 39 476 69 l 503 107 b 496 52 501 92 499 74 b 489 0 493 30 491 13 z m 689 983 l 613 983 b 553 905 602 945 583 919 b 451 883 524 891 490 883 b 402 888 434 883 417 885 b 363 905 387 891 374 897 b 336 936 351 913 343 923 b 326 983 330 949 326 965 l 249 983 b 301 838 249 918 266 869 b 446 792 337 807 385 792 b 603 842 507 792 559 808 b 689 983 647 875 676 922 z "},"Ů":{"ha":989,"x_min":0,"x_max":0,"o":"m 440 -25 b 616 8 508 -25 566 -14 b 741 94 666 29 707 58 b 822 219 775 131 802 172 b 865 364 841 266 856 314 l 974 983 l 838 983 l 731 372 b 702 269 724 337 715 303 b 650 180 690 236 672 206 b 567 117 628 153 600 132 b 444 93 533 101 493 93 b 346 110 406 93 373 99 b 280 155 319 121 297 136 b 243 220 263 174 250 196 b 232 299 236 245 232 271 b 239 372 232 322 234 346 l 347 983 l 211 983 l 103 364 b 94 278 97 334 94 306 b 116 160 94 236 102 197 b 181 64 130 124 152 92 b 288 -1 209 36 245 14 b 440 -25 331 -17 382 -25 z m 604 1046 b 715 1092 650 1046 687 1061 b 758 1207 744 1123 758 1162 b 725 1289 758 1240 747 1268 b 638 1321 703 1310 674 1321 b 576 1308 615 1321 595 1317 b 526 1274 557 1300 540 1288 b 494 1223 513 1259 502 1242 b 483 1161 487 1204 483 1183 b 517 1079 483 1129 495 1101 b 604 1046 540 1057 569 1046 z m 701 1199 b 675 1128 701 1171 693 1147 b 608 1099 657 1108 635 1099 b 559 1119 587 1099 571 1105 b 542 1168 547 1132 542 1149 b 567 1240 542 1197 550 1221 b 633 1269 584 1260 606 1269 b 683 1249 655 1269 671 1263 b 701 1199 695 1235 701 1218 z "},"ů":{"ha":807,"x_min":0,"x_max":0,"o":"m 489 0 l 611 0 b 620 75 613 22 616 47 b 632 143 624 103 628 125 l 722 658 l 594 658 l 532 308 b 458 151 521 243 496 190 b 322 92 419 111 374 92 b 224 128 275 92 242 104 b 196 221 205 152 196 183 b 198 258 196 233 197 245 b 203 296 199 270 201 283 l 267 658 l 139 658 l 67 251 b 62 218 65 240 63 229 b 60 186 60 207 60 196 b 116 40 60 127 78 78 b 281 -18 153 1 208 -18 b 408 16 328 -18 370 -7 b 500 107 445 39 476 69 l 503 107 b 496 52 501 92 499 74 b 489 0 493 30 491 13 z m 447 768 b 558 815 493 768 530 784 b 601 929 587 846 601 884 b 568 1011 601 963 590 990 b 481 1043 546 1032 517 1043 b 419 1031 458 1043 438 1039 b 369 996 400 1022 383 1011 b 338 945 356 981 345 964 b 326 883 330 926 326 906 b 360 801 326 851 338 824 b 447 768 383 779 412 768 z m 544 921 b 518 850 544 893 536 869 b 451 821 500 831 478 821 b 402 841 430 821 414 828 b 385 890 391 854 385 871 b 410 963 385 919 393 943 b 476 992 428 982 450 992 b 526 971 498 992 514 985 b 544 921 538 957 544 940 z "},"Ű":{"ha":989,"x_min":0,"x_max":0,"o":"m 440 -25 b 616 8 508 -25 566 -14 b 741 94 666 29 707 58 b 822 219 775 131 802 172 b 865 364 841 266 856 314 l 974 983 l 838 983 l 731 372 b 702 269 724 337 715 303 b 650 180 690 236 672 206 b 567 117 628 153 600 132 b 444 93 533 101 493 93 b 346 110 406 93 373 99 b 280 155 319 121 297 136 b 243 220 263 174 250 196 b 232 299 236 245 232 271 b 239 372 232 322 234 346 l 347 983 l 211 983 l 103 364 b 94 278 97 334 94 306 b 116 160 94 236 102 197 b 181 64 130 124 152 92 b 288 -1 209 36 245 14 b 440 -25 331 -17 382 -25 z m 767 1061 l 993 1261 l 836 1261 l 661 1061 z m 517 1061 l 742 1261 l 585 1261 l 411 1061 z "},"ű":{"ha":807,"x_min":0,"x_max":0,"o":"m 489 0 l 611 0 b 620 75 613 22 616 47 b 632 143 624 103 628 125 l 722 658 l 594 658 l 532 308 b 458 151 521 243 496 190 b 322 92 419 111 374 92 b 224 128 275 92 242 104 b 196 221 205 152 196 183 b 198 258 196 233 197 245 b 203 296 199 270 201 283 l 267 658 l 139 658 l 67 251 b 62 218 65 240 63 229 b 60 186 60 207 60 196 b 116 40 60 127 78 78 b 281 -18 153 1 208 -18 b 408 16 328 -18 370 -7 b 500 107 445 39 476 69 l 503 107 b 496 52 501 92 499 74 b 489 0 493 30 491 13 z m 619 783 l 846 983 l 689 983 l 514 783 z m 369 783 l 594 983 l 438 983 l 264 783 z "},"Ų":{"ha":989,"x_min":0,"x_max":0,"o":"m 544 -265 l 525 -204 b 447 -233 501 -224 475 -233 b 407 -223 431 -233 418 -230 b 390 -185 396 -216 390 -203 b 424 -103 390 -158 401 -131 b 501 -21 446 -75 472 -48 b 650 24 559 -14 608 1 b 756 113 692 48 727 77 b 826 230 785 148 809 187 b 865 364 844 273 857 318 l 974 983 l 838 983 l 731 372 b 702 269 724 337 715 303 b 650 180 690 236 672 206 b 567 117 628 153 600 132 b 444 93 533 101 493 93 b 346 110 406 93 373 99 b 280 155 319 121 297 136 b 243 220 263 174 250 196 b 232 299 236 245 232 271 b 239 372 232 322 234 346 l 347 983 l 211 983 l 103 364 b 94 278 97 334 94 306 b 115 163 94 237 101 199 b 174 69 128 128 148 96 b 274 3 201 41 234 19 b 417 -25 315 -14 362 -23 b 371 -65 401 -37 386 -50 b 331 -110 356 -79 343 -94 b 303 -159 320 -125 310 -142 b 292 -212 295 -176 292 -194 b 325 -291 292 -248 303 -274 b 407 -317 347 -308 375 -317 b 478 -303 431 -317 455 -312 b 544 -265 501 -294 523 -281 z "},"ų":{"ha":807,"x_min":0,"x_max":0,"o":"m 579 -265 l 560 -204 b 482 -233 536 -224 510 -233 b 442 -223 466 -233 453 -230 b 425 -185 431 -216 425 -203 b 436 -139 425 -170 429 -155 b 466 -92 444 -123 453 -107 b 510 -45 478 -76 493 -60 b 561 0 526 -30 544 -15 l 611 0 b 620 75 613 22 616 47 b 632 143 624 103 628 125 l 722 658 l 594 658 l 532 308 b 458 151 521 243 496 190 b 322 92 419 111 374 92 b 224 128 275 92 242 104 b 196 221 205 152 196 183 b 198 258 196 233 197 245 b 203 296 199 270 201 283 l 267 658 l 139 658 l 67 251 b 62 218 65 240 63 229 b 60 186 60 207 60 196 b 116 40 60 127 78 78 b 281 -18 153 1 208 -18 b 408 16 328 -18 370 -7 b 500 107 445 39 476 69 l 503 107 b 496 53 501 92 499 74 b 489 3 493 33 491 16 b 434 -40 471 -10 453 -25 b 381 -91 415 -56 397 -73 b 342 -149 365 -109 352 -128 b 326 -212 331 -169 326 -190 b 360 -291 326 -248 338 -274 b 442 -317 382 -308 409 -317 b 513 -303 466 -317 489 -312 b 579 -265 536 -294 558 -281 z "},"Ŵ":{"ha":1364,"x_min":0,"x_max":0,"o":"m 324 197 l 260 983 l 117 983 l 213 0 l 356 0 l 749 794 l 751 794 l 836 0 l 978 0 l 1456 983 l 1311 983 l 940 197 l 938 197 l 858 983 l 708 983 l 326 197 z m 1024 1061 l 904 1261 l 757 1261 l 565 1061 l 692 1061 l 822 1199 l 904 1061 z "},"ŵ":{"ha":1054,"x_min":0,"x_max":0,"o":"m 190 658 l 56 658 l 138 0 l 271 0 l 531 499 l 533 499 l 600 0 l 733 0 l 1081 658 l 944 658 l 694 156 l 690 156 l 625 658 l 496 658 l 239 156 l 236 156 z m 811 783 l 692 983 l 544 983 l 353 783 l 479 783 l 610 921 l 692 783 z "},"Ŷ":{"ha":778,"x_min":0,"x_max":0,"o":"m 372 0 l 447 425 l 925 983 l 758 983 l 399 536 l 218 983 l 64 983 l 311 425 l 236 0 z m 726 1061 l 607 1261 l 460 1261 l 268 1061 l 394 1061 l 525 1199 l 607 1061 z "},"ŷ":{"ha":688,"x_min":0,"x_max":0,"o":"m 288 140 l 193 658 l 56 658 l 200 0 l 135 -111 b 74 -192 113 -146 93 -173 b 0 -221 54 -211 30 -221 b -61 -210 -20 -221 -41 -217 l -79 -324 b 3 -333 -53 -330 -26 -333 b 78 -321 31 -333 56 -329 b 139 -285 100 -312 120 -301 b 190 -230 157 -270 175 -252 b 239 -156 206 -208 222 -183 l 721 658 l 582 658 l 290 140 z m 636 783 l 517 983 l 369 983 l 178 783 l 304 783 l 435 921 l 517 783 z "},"Ź":{"ha":806,"x_min":0,"x_max":0,"o":"m 835 864 l 857 983 l 171 983 l 150 864 l 660 864 l -25 119 l -46 0 l 693 0 l 714 121 l 154 121 z m 524 1061 l 749 1261 l 594 1261 l 421 1061 z "},"ź":{"ha":640,"x_min":0,"x_max":0,"o":"m 607 553 l 625 658 l 110 658 l 90 553 l 443 553 l -11 106 l -29 0 l 521 0 l 539 108 l 151 108 z m 385 783 l 610 983 l 456 983 l 282 783 z "},"Ż":{"ha":806,"x_min":0,"x_max":0,"o":"m 835 864 l 857 983 l 171 983 l 150 864 l 660 864 l -25 119 l -46 0 l 693 0 l 714 121 l 154 121 z m 624 1176 b 601 1235 624 1200 616 1220 b 544 1257 585 1250 567 1257 b 485 1233 522 1257 503 1249 b 460 1171 468 1216 460 1196 b 484 1113 460 1146 468 1126 b 542 1092 500 1099 519 1092 b 600 1117 565 1092 584 1100 b 624 1176 616 1133 624 1153 z "},"ż":{"ha":640,"x_min":0,"x_max":0,"o":"m 607 553 l 625 658 l 110 658 l 90 553 l 443 553 l -11 106 l -29 0 l 521 0 l 539 108 l 151 108 z m 482 899 b 459 957 482 923 474 942 b 403 979 444 972 425 979 b 344 955 381 979 361 971 b 318 893 327 939 318 918 b 342 835 318 868 326 849 b 400 814 359 821 378 814 b 458 839 423 814 443 822 b 482 899 474 856 482 875 z "},"ƒ":{"ha":826,"x_min":0,"x_max":0,"o":"m 636 488 l 654 588 l 494 588 l 549 733 b 569 783 554 748 561 765 b 597 832 577 801 586 817 b 638 869 608 847 622 859 b 694 885 653 880 672 885 b 733 878 707 885 720 883 b 768 861 746 874 758 869 l 840 958 b 776 989 820 971 798 981 b 701 1000 753 996 728 1000 b 601 981 663 1000 630 994 b 526 929 573 968 547 950 b 469 854 504 908 485 883 b 429 764 454 825 440 795 l 364 588 l 190 588 l 172 488 l 326 488 l 172 64 b 149 8 165 44 157 26 b 120 -38 140 -9 131 -25 b 82 -70 109 -52 97 -62 b 31 -82 67 -78 50 -82 b -36 -64 6 -82 -17 -76 l -106 -160 b -49 -185 -89 -171 -70 -179 b 15 -193 -28 -190 -7 -193 b 114 -176 52 -193 85 -187 b 190 -127 143 -164 168 -148 b 249 -53 213 -106 232 -81 b 293 42 265 -24 280 7 l 458 488 z "},"Ș":{"ha":790,"x_min":0,"x_max":0,"o":"m 668 806 l 774 886 b 659 976 747 925 709 955 b 499 1008 609 998 556 1008 b 354 987 447 1008 399 1001 b 239 926 310 972 271 952 b 163 831 206 900 181 869 b 136 707 145 794 136 752 b 154 611 136 670 142 638 b 203 542 166 584 182 561 b 274 492 223 522 247 506 b 357 454 300 478 328 465 b 431 424 383 445 407 435 b 492 388 454 414 474 401 b 533 339 509 374 523 357 b 549 274 544 320 549 299 b 530 194 549 243 542 216 b 481 137 517 171 501 152 b 410 102 460 122 437 110 b 329 90 384 94 357 90 b 201 123 281 90 238 101 b 117 204 163 145 135 172 l 3 128 b 62 60 19 102 38 79 b 140 13 85 41 112 26 b 230 -15 169 1 199 -9 b 324 -25 261 -22 292 -25 b 476 -1 380 -25 431 -17 b 592 64 522 14 560 36 b 666 163 624 92 649 125 b 692 289 683 202 692 244 b 672 387 692 326 685 359 b 616 462 658 415 640 440 b 534 519 592 484 565 503 b 433 563 503 535 469 550 b 369 590 410 571 389 580 b 319 622 350 599 333 610 b 287 664 306 634 295 648 b 275 719 279 680 275 698 b 295 799 275 750 282 776 b 347 853 309 821 326 839 b 415 885 367 868 390 878 b 486 894 439 891 463 894 b 593 870 526 894 562 886 b 668 806 625 854 650 832 z m 214 -326 l 381 -62 l 251 -62 l 107 -326 z "},"ș":{"ha":617,"x_min":0,"x_max":0,"o":"m 482 500 l 582 565 b 490 647 562 600 531 628 b 353 676 450 667 404 676 b 251 663 318 676 284 672 b 164 622 218 653 189 640 b 104 558 139 605 119 583 b 82 471 89 532 82 503 b 95 403 82 444 86 421 b 132 354 104 384 116 368 b 188 319 148 340 166 329 b 258 293 209 310 232 301 b 360 249 304 278 338 263 b 394 183 383 234 394 212 b 351 110 394 151 380 127 b 250 86 323 94 289 86 b 151 111 213 86 180 94 b 85 176 122 128 100 150 l -19 108 b 87 14 6 69 41 37 b 250 -21 133 -9 187 -21 b 349 -8 283 -21 316 -16 b 435 32 381 1 410 14 b 497 99 461 50 481 72 b 521 193 513 125 521 157 b 470 317 521 247 504 288 b 325 389 436 347 388 370 b 238 422 287 399 258 410 b 207 482 217 434 207 454 b 219 525 207 499 211 513 b 252 553 228 537 239 547 b 296 569 266 560 280 566 b 343 574 312 572 327 574 b 429 553 378 574 407 567 b 482 500 451 539 469 521 z m 132 -326 l 299 -62 l 169 -62 l 25 -326 z "},"Ț":{"ha":743,"x_min":0,"x_max":0,"o":"m 361 0 l 514 864 l 822 864 l 843 983 l 88 983 l 67 864 l 378 864 l 225 0 z m 197 -326 l 364 -62 l 235 -62 l 90 -326 z "},"ț":{"ha":450,"x_min":0,"x_max":0,"o":"m 438 553 l 457 658 l 292 658 l 325 847 l 197 847 l 165 658 l 42 658 l 22 553 l 147 553 l 83 196 b 79 163 81 185 80 174 b 78 131 78 151 78 141 b 123 23 78 81 93 46 b 244 -11 153 0 194 -11 b 301 -6 263 -11 282 -9 b 349 7 320 -3 336 1 l 358 110 b 326 99 350 105 339 101 b 288 94 313 96 300 94 b 230 109 263 94 244 99 b 208 165 216 119 208 138 b 213 207 208 177 210 191 l 275 553 z m 94 -326 l 261 -62 l 132 -62 l -12 -326 z "},"ˆ":{"ha":347,"x_min":0,"x_max":0,"o":"m 465 783 l 346 983 l 199 983 l 7 783 l 133 783 l 264 921 l 346 783 z "},"ˇ":{"ha":347,"x_min":0,"x_max":0,"o":"m 310 783 l 500 983 l 375 983 l 244 846 l 164 983 l 43 983 l 163 783 z "},"ˉ":{"ha":347,"x_min":0,"x_max":0,"o":"m 449 1107 l 465 1199 l 56 1199 l 40 1107 z "},"˘":{"ha":347,"x_min":0,"x_max":0,"o":"m 492 983 l 415 983 b 356 905 405 945 385 919 b 254 883 327 891 293 883 b 205 888 237 883 220 885 b 165 905 190 891 176 897 b 139 936 154 913 145 923 b 129 983 132 949 129 965 l 51 983 b 104 838 51 918 69 869 b 249 792 139 807 188 792 b 406 842 310 792 362 808 b 492 983 450 875 479 922 z "},"˙":{"ha":347,"x_min":0,"x_max":0,"o":"m 340 899 b 317 957 340 923 333 942 b 261 979 302 972 283 979 b 202 955 239 979 219 971 b 176 893 185 939 176 918 b 201 835 176 868 184 849 b 258 814 217 821 236 814 b 317 839 281 814 301 822 b 340 899 332 856 340 875 z "},"˚":{"ha":347,"x_min":0,"x_max":0,"o":"m 243 768 b 354 815 288 768 325 784 b 397 929 383 846 397 884 b 364 1011 397 963 386 990 b 276 1043 342 1032 313 1043 b 215 1031 254 1043 234 1039 b 165 996 196 1022 179 1011 b 133 945 151 981 141 964 b 122 883 126 926 122 906 b 156 801 122 851 134 824 b 243 768 179 779 208 768 z m 340 921 b 314 850 340 893 331 869 b 247 821 296 831 274 821 b 198 841 226 821 209 828 b 181 890 186 854 181 871 b 206 963 181 919 189 943 b 272 992 223 982 245 992 b 322 971 294 992 310 985 b 340 921 334 957 340 940 z "},"˛":{"ha":347,"x_min":0,"x_max":0,"o":"m 165 -265 l 146 -204 b 68 -233 122 -224 96 -233 b 28 -223 52 -233 39 -230 b 11 -185 17 -216 11 -203 b 23 -138 11 -170 15 -154 b 55 -90 31 -122 41 -106 b 100 -42 68 -73 83 -57 b 153 4 117 -26 134 -11 l 78 4 b 22 -39 60 -9 42 -23 b -31 -90 3 -55 -15 -72 b -72 -148 -47 -108 -61 -127 b -87 -212 -82 -169 -87 -190 b -54 -291 -87 -248 -76 -274 b 28 -317 -32 -308 -5 -317 b 99 -303 52 -317 75 -312 b 165 -265 122 -294 144 -281 z "},"˜":{"ha":347,"x_min":0,"x_max":0,"o":"m -1 794 l 75 794 b 104 839 82 810 92 825 b 153 860 116 853 132 860 b 197 851 167 860 181 857 b 243 829 212 845 227 838 b 290 810 259 822 275 815 b 339 801 306 804 322 801 b 401 815 362 801 383 806 b 449 851 419 825 435 837 b 484 902 463 866 474 883 b 510 961 494 921 502 941 l 433 961 b 404 917 426 945 416 931 b 357 896 392 903 376 896 b 315 905 344 896 330 899 b 269 925 300 911 285 918 b 222 946 254 933 238 940 b 169 954 205 951 188 954 b 106 940 145 954 124 950 b 59 904 88 931 72 919 b 24 853 46 889 34 872 b -1 794 13 834 5 815 z "},"˝":{"ha":347,"x_min":0,"x_max":0,"o":"m 417 783 l 643 983 l 486 983 l 311 783 z m 167 783 l 392 983 l 235 983 l 61 783 z "},"–":{"ha":556,"x_min":0,"x_max":0,"o":"m 504 288 l 524 392 l 51 392 l 32 288 z "},"—":{"ha":833,"x_min":0,"x_max":0,"o":"m 782 288 l 801 392 l 51 392 l 32 288 z "},"‘":{"ha":340,"x_min":0,"x_max":0,"o":"m 272 983 l 96 638 l 224 638 l 381 983 z "},"’":{"ha":340,"x_min":0,"x_max":0,"o":"m 204 638 l 381 983 l 253 983 l 96 638 z "},"‚":{"ha":340,"x_min":0,"x_max":0,"o":"m 58 -185 l 236 161 l 107 161 l -49 -185 z "},"“":{"ha":589,"x_min":0,"x_max":0,"o":"m 474 638 l 629 983 l 521 983 l 344 638 z m 224 638 l 379 983 l 272 983 l 96 638 z "},"”":{"ha":589,"x_min":0,"x_max":0,"o":"m 453 638 l 629 983 l 501 983 l 344 638 z m 204 638 l 381 983 l 253 983 l 96 638 z "},"„":{"ha":589,"x_min":0,"x_max":0,"o":"m 308 -185 l 485 161 l 356 161 l 200 -185 z m 58 -185 l 236 161 l 107 161 l -49 -185 z "},"†":{"ha":797,"x_min":0,"x_max":0,"o":"m 508 701 l 558 983 l 435 983 l 385 701 l 106 701 l 86 593 l 365 593 l 231 -175 l 354 -175 l 489 593 l 769 593 l 789 701 z "}}}
